<?xml version="1.0" encoding="utf-8"?>
<!-- Generator: Adobe Illustrator 19.0.0, SVG Export Plug-In . SVG Version: 6.00 Build 0)  -->
<svg version="1.1" id="Layer_1" xmlns="http://www.w3.org/2000/svg" xmlns:xlink="http://www.w3.org/1999/xlink" x="0px" y="0px"
	 viewBox="-41 164.9 512 512" style="enable-background:new -41 164.9 512 512;" xml:space="preserve">
<style type="text/css">
	.st0{fill:#556080;}
	.st1{fill:#7383BF;}
	.st2{fill:#C6E2F7;}
	.st3{fill:#6B8A99;}
	.st4{fill:#F2ECBF;}
	.st5{fill:#8FAEC1;}
</style>
<path class="st0" d="M104.7,182.5c-24.3,0-44.1,19.8-44.1,44.1v26.5h35.3v-26.5c0-4.9,4-8.8,8.8-8.8h97.1v-35.3H104.7z"/>
<path class="st0" d="M219.4,226.7h35.3v70.6h-35.3V226.7z"/>
<path class="st1" d="M192.9,164.9h88.3v70.6h-88.3V164.9z"/>
<path class="st1" d="M192.9,288.5h88.3v44.1h-88.3V288.5z"/>
<path class="st2" d="M351.8,676.9H122.3c-9.8,0-17.7-7.9-17.7-17.7V341.5c0-9.8,7.9-17.7,17.7-17.7h229.5c9.8,0,17.7,7.9,17.7,17.7
	v317.8C369.5,669,361.6,676.9,351.8,676.9L351.8,676.9z"/>
<path class="st3" d="M237.1,420.9c-4.9,0-8.8-3.9-8.8-8.8v-53c0-4.9,4-8.8,8.8-8.8c4.9,0,8.8,3.9,8.8,8.8v53
	C245.9,416.9,241.9,420.9,237.1,420.9z"/>
<path class="st4" d="M104.7,412.1h264.8v194.2H104.7V412.1z"/>
<g>
	<path class="st5" d="M219.4,323.8h35.3v35.3h-35.3V323.8z"/>
	<path class="st5" d="M298.9,385.6h-17.7c-4.9,0-8.8-3.9-8.8-8.8s4-8.8,8.8-8.8h17.7c4.9,0,8.8,3.9,8.8,8.8S303.7,385.6,298.9,385.6
		z"/>
	<path class="st5" d="M210.6,650.4h-17.7c-4.9,0-8.8-3.9-8.8-8.8s4-8.8,8.8-8.8h17.7c4.9,0,8.8,3.9,8.8,8.8S215.5,650.4,210.6,650.4
		z"/>
</g>
<path class="st5" d="M369.5,367.9h-35.3c-4.9,0-8.8,3.9-8.8,8.8s4,8.8,8.8,8.8h35.3V367.9z"/>
<path class="st5" d="M157.6,632.8h-53v17.7h53c4.9,0,8.8-3.9,8.8-8.8S162.5,632.8,157.6,632.8z"/>
</svg>
