<svg preserveAspectRatio="none" id="e4e382bb-6009-4b99-8814-392b740fa032" data-name="Layer 1" xmlns="http://www.w3.org/2000/svg" xmlns:xlink="http://www.w3.org/1999/xlink" viewBox="0 0 530.55319 298.14894"><defs><style>.b0aeee1f-a274-4c1d-948e-92391ac4f547,.fb915361-a2e4-4c3a-aab0-917f3ce66eb9{fill:none;}.bb3b4e02-b571-40bf-aded-1ff5b9b972ef{clip-path:url(#a733b2fb-7944-4fda-8cef-6c80ba8cd7d7);}.a3f3c7e5-1ea4-449b-82dc-f235c21fc0f8{fill:#decda8;}.f92e756a-d66d-4404-ad4e-b33242a66e2f{fill:#6d6e71;}.fb915361-a2e4-4c3a-aab0-917f3ce66eb9{stroke:#bcbec0;stroke-miterlimit:10;stroke-width:8px;stroke-dasharray:25 8.076;}.a3880f6a-60d6-46c1-85e7-34f8e6dc454a{fill:#d5bdab;}.eb5387dd-f374-46d1-b973-2f1744769e05{fill:#f6dac6;}.bd667cb0-c13b-4f17-8210-d4717df72ea6{clip-path:url(#fa3601b7-b0bc-429a-8129-b8f86f6de248);}.e599b891-94fd-451b-bac3-ba8aa7e10cbf{fill:#aa8b75;}.a9c981ca-b33c-45f7-a00a-30d8be98708a{fill:#916f59;}.b9b88891-c647-4b68-8cf3-8a01ba2a27a3{fill:#c59f74;}.fb30fe40-daaa-4e44-b46d-4623be506b0e{fill:#ddc09b;}.b756540a-1ba0-4fe6-bae9-7ddf517d9822{clip-path:url(#bef0b6cf-863d-4e8a-acac-da46d80cb3ad);}.b12ac34e-4340-4d8d-976c-54b932a79223{fill:#58595b;}.bcfea45c-4c19-4a2f-a2cd-b7468dc37c36{fill:#939598;}.b482427e-7d6d-4d4f-85cd-91026654157b{fill:#bcbec0;}.f21f71eb-9545-4b3e-8d7b-198163459feb{clip-path:url(#a5fdc009-edb9-4689-9dc6-1a5817af029b);}.b76afcd3-11f7-4d05-8fc3-3fc13a31d413,.fd06f0bc-3ecc-4dcd-8c4a-2f52e3f28fda{fill:#808285;}.b806c474-b684-473b-bcb9-71a16b06fd78{clip-path:url(#f99da983-bfa6-40ef-a88e-1cf9ec471361);}.bb9a5d29-9a64-47a8-8cd9-b91228ea4d80{clip-path:url(#b27acc14-d67f-4c67-8db6-a181389924e1);}.a7f34975-951c-4189-b452-9cda9371ac11{clip-path:url(#b7875f15-0076-4938-a869-a30df44c8a38);}.f8a9fce0-0da5-4af2-a9d3-d5adcadee061{clip-path:url(#b2a1e787-bc28-4d61-a2ad-e3a804884c0a);}.e15fb1fa-3d29-42f0-b05c-1ef1691e76ea{clip-path:url(#a2398323-a875-4a30-bdb5-001d02df34ae);}.aaa40258-41b7-4ed9-8ebc-4660383c8743{clip-path:url(#b59a4eb9-5c68-4ca1-a450-a5745d854fd8);}.b76afcd3-11f7-4d05-8fc3-3fc13a31d413{opacity:0.5;}</style><clipPath id="a733b2fb-7944-4fda-8cef-6c80ba8cd7d7"><rect class="b0aeee1f-a274-4c1d-948e-92391ac4f547" x="0.59763" width="530.04255" height="298.14894"/></clipPath><clipPath id="fa3601b7-b0bc-429a-8129-b8f86f6de248"><polygon class="b0aeee1f-a274-4c1d-948e-92391ac4f547" points="551.911 179.432 483.23 157.036 333.102 179.432 236.081 165.287 110.975 179.432 -21.87 179.432 -21.87 63.178 40.506 63.178 97.698 45.645 183.996 63.178 293.272 63.178 399.485 56.843 473.017 63.178 551.911 63.178 551.911 179.432"/></clipPath><clipPath id="bef0b6cf-863d-4e8a-acac-da46d80cb3ad"><path class="b0aeee1f-a274-4c1d-948e-92391ac4f547" d="M423.44351,160.43952c1.67895.6923,3.49519,1.29493,5.418,2.038,2.75128,1.06326,5.6518,2.23487,7.35746,4.4988,1.02729,1.36354,1.54671,3.04152,2.75528,4.27108,3.82275,3.88913,11.60047,1.03715,15.948,4.421,1.246.96979,2.05214,2.35845,3.31623,3.30792,3.244,2.43659,8.15995,1.14734,11.63835-.99416s6.58047-5.08127,10.64927-5.9567a6.91806,6.91806,0,0,0,5.19572,1.5309,32.97063,32.97063,0,0,1,11.29126-9.547c2.88645-1.57984,9.50812-5.32715,10.18958-8.7032-.36759,1.82108,2.34531,3.38663,4.30067,2.93088s3.16785-2.08479,4.22911-3.61064c4.68134-6.73068,9.54312-14.45773,7.24338-22.69176-2.30176-8.24125-11.10456-14.05882-19.76348-17.48607a110.01712,110.01712,0,0,0-29.32443-6.67277c-14.37045-1.47312-28.90966-1.05081-42.3054,2.53174-6.89086,1.84289-13.70525,4.70258-17.8129,9.93444-4.03918,5.14465-6.93265,14.375-4.5773,21.06268a58.3889,58.3889,0,0,0,7.19694,13.93809A14.9262,14.9262,0,0,0,423.44351,160.43952Z"/></clipPath><clipPath id="a5fdc009-edb9-4689-9dc6-1a5817af029b"><path class="b0aeee1f-a274-4c1d-948e-92391ac4f547" d="M410.12213,93.12431c-2.2324,2.85-5.43647,4.73454-7.59568,7.64629s-2.81644,7.741.02443,9.91066c.8141.62176,1.82113.94329,2.57348,1.64585,2.77762,2.59382.46235,28.60135,3.33955,31.07218,1.85971,1.597,4.58209.69851,6.97623.51007,7.92294-.62359,14.72172,7.43512,22.64151,6.76879,2.16545-.18219,4.23149-1.02,6.37518-1.39005,6.3696-1.09942,16.40854.98423,21.59949,5.04025,3.616,2.8256,7.5,7.30518,11.78134,8.92052,3.18694,1.202,7.37257.53518,10.56367-.39345,3.95614-1.15125,3.07192-1.13438,5.30419-4.5364,2.53183-3.85855,4.71968-4.36411,9.208-4.8842,3.6371-.42144,7.42-.92853,10.47731-3.04318,3.15264-2.18061,5.65576-6.53463,8.26892-9.36567,2.30146-2.49335,2.87775-26.43913,3.34352-29.87957.7725-5.70616.8127-12.98071-4.10744-15.51821a10.18474,10.18474,0,0,1-2.90625-1.58579c-2.3138-2.39043.27165-7.02675-1.6428-9.78034a5.51227,5.51227,0,0,0-2.34227-1.72586c-8.15713-3.72684-17.6329-1.16365-26.38686-2.81388-14.26443-2.689-25.38295-16.26145-39.83013-17.45569a7.55555,7.55555,0,0,0-3.94864.4919c-1.59014.77258-2.61787,2.39312-3.74233,3.80571a21.01124,21.01124,0,0,1-18.526,7.82881c-1.85177-.21448-3.73674-.68471-5.55219-.245s-3.533,2.20563-3.17721,4.12942c.90174,4.87287,4.64915,3.59222,1.068,7.45143-1.22856,1.324-3.27975,1.03315-4.13837,3.09067C409.46905,89.54282,409.89361,93.41605,410.12213,93.12431Z"/></clipPath><clipPath id="f99da983-bfa6-40ef-a88e-1cf9ec471361"><path class="b0aeee1f-a274-4c1d-948e-92391ac4f547" d="M290.40623,160.43952c1.67895.6923,3.49519,1.29493,5.418,2.038,2.75128,1.06326,5.6518,2.23487,7.35746,4.4988,1.02729,1.36354,1.54671,3.04152,2.75528,4.27108,3.82275,3.88913,11.60047,1.03715,15.948,4.421,1.246.96979,2.05214,2.35845,3.31623,3.30792,3.244,2.43659,8.15995,1.14734,11.63835-.99416s6.58047-5.08127,10.64927-5.9567a6.91806,6.91806,0,0,0,5.19572,1.5309,32.97063,32.97063,0,0,1,11.29126-9.547c2.88645-1.57984,9.50812-5.32715,10.18958-8.7032-.36759,1.82108,2.34531,3.38663,4.30067,2.93088s3.16785-2.08479,4.22911-3.61064c4.68134-6.73068,9.54312-14.45773,7.24338-22.69176-2.30176-8.24125-11.10456-14.05882-19.76348-17.48607a110.01712,110.01712,0,0,0-29.32443-6.67277c-14.37045-1.47312-28.90966-1.05081-42.3054,2.53174-6.89086,1.84289-13.70525,4.70258-17.8129,9.93444-4.03919,5.14465-6.93265,14.375-4.5773,21.06268A58.3889,58.3889,0,0,0,283.352,155.2428,14.9262,14.9262,0,0,0,290.40623,160.43952Z"/></clipPath><clipPath id="b27acc14-d67f-4c67-8db6-a181389924e1"><path class="b0aeee1f-a274-4c1d-948e-92391ac4f547" d="M277.08485,93.12431c-2.2324,2.85-5.43647,4.73454-7.59568,7.64629s-2.81644,7.741.02443,9.91066c.8141.62176,1.82113.94329,2.57348,1.64585,2.77762,2.59382.46235,28.60135,3.33955,31.07218,1.85971,1.597,4.58209.69851,6.97623.51007,7.92294-.62359,14.72172,7.43512,22.64151,6.76879,2.16545-.18219,4.23149-1.02,6.37518-1.39005,6.3696-1.09942,16.40854.98423,21.59949,5.04025,3.616,2.8256,7.5,7.30518,11.78134,8.92052,3.18694,1.202,7.37257.53518,10.56367-.39345,3.95614-1.15125,3.07192-1.13438,5.30419-4.5364,2.53183-3.85855,4.71968-4.36411,9.208-4.8842,3.6371-.42144,7.42-.92853,10.47731-3.04318,3.15264-2.18061,5.65576-6.53463,8.26892-9.36567,2.30146-2.49335,2.87775-26.43913,3.34352-29.87957.7725-5.70616.8127-12.98071-4.10744-15.51821a10.18474,10.18474,0,0,1-2.90625-1.58579c-2.3138-2.39043.27165-7.02675-1.6428-9.78034a5.51227,5.51227,0,0,0-2.34227-1.72586c-8.15713-3.72684-17.6329-1.16365-26.38686-2.81388-14.26443-2.689-25.38295-16.26145-39.83013-17.45569a7.55555,7.55555,0,0,0-3.94864.4919c-1.59014.77258-2.61787,2.39312-3.74233,3.80571a21.01124,21.01124,0,0,1-18.526,7.82881c-1.85177-.21448-3.73674-.68471-5.5522-.245s-3.533,2.20563-3.1772,4.12942c.90174,4.87287,4.64915,3.59222,1.068,7.45143-1.22856,1.324-3.27975,1.03315-4.13837,3.09067C276.43177,89.54282,276.85633,93.41605,277.08485,93.12431Z"/></clipPath><clipPath id="b7875f15-0076-4938-a869-a30df44c8a38"><path class="b0aeee1f-a274-4c1d-948e-92391ac4f547" d="M157.369,160.43952c1.67895.6923,3.49519,1.29493,5.418,2.038,2.75128,1.06326,5.6518,2.23487,7.35746,4.4988,1.02729,1.36354,1.54671,3.04152,2.75528,4.27108,3.82275,3.88913,11.60047,1.03715,15.948,4.421,1.246.96979,2.05214,2.35845,3.31623,3.30792,3.244,2.43659,8.16,1.14734,11.63835-.99416s6.58047-5.08127,10.64927-5.9567a6.91806,6.91806,0,0,0,5.19572,1.5309,32.97063,32.97063,0,0,1,11.29126-9.547c2.88645-1.57984,9.50811-5.32715,10.18958-8.7032-.36759,1.82108,2.34531,3.38663,4.30067,2.93088s3.16785-2.08479,4.22911-3.61064c4.68134-6.73068,9.54312-14.45773,7.24338-22.69176-2.30176-8.24125-11.10456-14.05882-19.76348-17.48607a110.01712,110.01712,0,0,0-29.32443-6.67277c-14.37045-1.47312-28.90966-1.05081-42.3054,2.53174-6.89086,1.84289-13.70525,4.70258-17.8129,9.93444-4.03919,5.14465-6.93265,14.375-4.5773,21.06268a58.3889,58.3889,0,0,0,7.19694,13.93809A14.9262,14.9262,0,0,0,157.369,160.43952Z"/></clipPath><clipPath id="b2a1e787-bc28-4d61-a2ad-e3a804884c0a"><path class="b0aeee1f-a274-4c1d-948e-92391ac4f547" d="M144.04757,93.12431c-2.2324,2.85-5.43647,4.73454-7.59568,7.64629s-2.81644,7.741.02443,9.91066c.8141.62176,1.82113.94329,2.57348,1.64585,2.77762,2.59382.46235,28.60135,3.33955,31.07218,1.85971,1.597,4.58209.69851,6.97623.51007,7.92294-.62359,14.72172,7.43512,22.64151,6.76879,2.16545-.18219,4.23149-1.02,6.37518-1.39005,6.3696-1.09942,16.40854.98423,21.59949,5.04025,3.616,2.8256,7.5,7.30518,11.78134,8.92052,3.18694,1.202,7.37257.53518,10.56367-.39345,3.95614-1.15125,3.07192-1.13438,5.30419-4.5364,2.53183-3.85855,4.71968-4.36411,9.208-4.8842,3.6371-.42144,7.42-.92853,10.47731-3.04318,3.15264-2.18061,5.65576-6.53463,8.26892-9.36567,2.30146-2.49335,2.87775-26.43913,3.34352-29.87957.77249-5.70616.8127-12.98071-4.10744-15.51821a10.18474,10.18474,0,0,1-2.90625-1.58579c-2.3138-2.39043.27165-7.02675-1.6428-9.78034A5.51227,5.51227,0,0,0,247.93,82.5362c-8.15713-3.72684-17.6329-1.16365-26.38686-2.81388-14.26443-2.689-25.38295-16.26145-39.83013-17.45569a7.55555,7.55555,0,0,0-3.94864.4919c-1.59014.77258-2.61787,2.39312-3.74233,3.80571a21.01124,21.01124,0,0,1-18.526,7.82881c-1.85177-.21448-3.73674-.68471-5.5522-.245s-3.533,2.20563-3.1772,4.12942c.90174,4.87287,4.64915,3.59222,1.068,7.45143-1.22856,1.324-3.27976,1.03315-4.13837,3.09067C143.39449,89.54282,143.81905,93.41605,144.04757,93.12431Z"/></clipPath><clipPath id="a2398323-a875-4a30-bdb5-001d02df34ae"><path class="b0aeee1f-a274-4c1d-948e-92391ac4f547" d="M24.33167,160.43952c1.679.6923,3.49519,1.29493,5.418,2.038,2.75128,1.06326,5.6518,2.23487,7.35746,4.4988,1.02729,1.36354,1.54671,3.04152,2.75528,4.27108,3.82275,3.88913,11.60047,1.03715,15.948,4.421,1.246.96979,2.05214,2.35845,3.31623,3.30792,3.244,2.43659,8.16,1.14734,11.63835-.99416s6.58047-5.08127,10.64927-5.9567a6.91806,6.91806,0,0,0,5.19572,1.5309,32.97053,32.97053,0,0,1,11.29126-9.547c2.88645-1.57984,9.50811-5.32715,10.18958-8.7032-.36759,1.82108,2.34531,3.38663,4.30067,2.93088s3.16785-2.08479,4.22911-3.61064c4.68134-6.73068,9.54312-14.45773,7.24338-22.69176-2.30176-8.24125-11.10456-14.05882-19.76348-17.48607a110.01712,110.01712,0,0,0-29.32443-6.67277c-14.37045-1.47312-28.90966-1.05081-42.3054,2.53174-6.89086,1.84289-13.70525,4.70258-17.8129,9.93444-4.03919,5.14465-6.93265,14.375-4.5773,21.06268a58.3889,58.3889,0,0,0,7.19694,13.93809A14.9262,14.9262,0,0,0,24.33167,160.43952Z"/></clipPath><clipPath id="b59a4eb9-5c68-4ca1-a450-a5745d854fd8"><path class="b0aeee1f-a274-4c1d-948e-92391ac4f547" d="M11.01029,93.12431c-2.2324,2.85-5.43647,4.73454-7.59568,7.64629s-2.81644,7.741.02443,9.91066c.8141.62176,1.82113.94329,2.57348,1.64585,2.77762,2.59382.46235,28.60135,3.33955,31.07218,1.85971,1.597,4.58209.69851,6.97623.51007,7.92294-.62359,14.72172,7.43512,22.64151,6.76879,2.16545-.18219,4.23149-1.02,6.37518-1.39005,6.3696-1.09942,16.40854.98423,21.59949,5.04025,3.616,2.8256,7.5,7.30518,11.78134,8.92052,3.18694,1.202,7.37257.53518,10.56367-.39345,3.95614-1.15125,3.07192-1.13438,5.30419-4.5364,2.53183-3.85855,4.71968-4.36411,9.208-4.8842,3.6371-.42144,7.42-.92853,10.47731-3.04318,3.15264-2.18061,5.65576-6.53463,8.26892-9.36567,2.30146-2.49335,2.87775-26.43913,3.34352-29.87957.77249-5.70616.8127-12.98071-4.10744-15.51821a10.18474,10.18474,0,0,1-2.90625-1.58579c-2.3138-2.39043.27165-7.02675-1.6428-9.78034a5.51227,5.51227,0,0,0-2.34227-1.72586c-8.15713-3.72684-17.6329-1.16365-26.38686-2.81388C74.24142,77.0333,63.1229,63.46087,48.67572,62.26663a7.55554,7.55554,0,0,0-3.94864.4919c-1.59014.77258-2.61787,2.39312-3.74233,3.80571a21.01124,21.01124,0,0,1-18.526,7.82881c-1.85177-.21448-3.73674-.68471-5.5522-.245s-3.533,2.20563-3.1772,4.12942c.90174,4.87287,4.64915,3.59222,1.068,7.45143-1.22856,1.324-3.27976,1.03315-4.13837,3.09067C10.35721,89.54282,10.78177,93.41605,11.01029,93.12431Z"/></clipPath></defs><title>Artboard 69</title><g class="bb3b4e02-b571-40bf-aded-1ff5b9b972ef"><rect class="a3f3c7e5-1ea4-449b-82dc-f235c21fc0f8" x="116.54444" y="-115.94681" width="298.14894" height="530.04255" transform="translate(116.54444 414.69338) rotate(-90)"/><polygon class="f92e756a-d66d-4404-ad4e-b33242a66e2f" points="354.694 298.149 180.822 298.149 180.822 194.141 267.758 194.141 354.694 194.141 354.694 298.149"/><line class="fb915361-a2e4-4c3a-aab0-917f3ce66eb9" x1="267.75809" y1="298.14894" x2="267.75809" y2="194.14081"/><polygon class="f92e756a-d66d-4404-ad4e-b33242a66e2f" points="354.694 104.008 180.822 104.008 180.822 0 267.758 0 354.694 0 354.694 104.008"/><line class="fb915361-a2e4-4c3a-aab0-917f3ce66eb9" x1="267.75809" y1="104.00813" x2="267.75809"/><polygon class="a3880f6a-60d6-46c1-85e7-34f8e6dc454a" points="551.911 201.588 483.23 178.396 333.102 201.588 236.081 186.94 110.975 201.588 -21.87 201.588 -21.87 63.801 40.506 63.801 97.698 45.645 183.996 63.801 293.272 63.801 399.485 57.241 473.017 63.801 551.911 63.801 551.911 201.588"/><path class="eb5387dd-f374-46d1-b973-2f1744769e05" d="M552.23708,202.04223c-11.27014-3.49829-22.71429-6.88427-34.4057-10.30517-11.68916-3.39038-23.59107-7.02271-35.50109-10.677l1.32879.11474c-12.45981,2.26148-24.90865,4.59424-37.3797,6.783l-37.39983,6.65283c-12.4696,2.198-24.92633,4.47974-37.40709,6.60572l-37.42822,6.469-.85236.14722-1.01086-.144-97.14145-13.85009,1.85251.03076L111.81374,208.75439l-.27173.03247-.56757.0166-33.21118.97315c-5.53521.14673-11.07043.35937-16.60565.4519l-16.60559.29395-33.21118.58789-8.3028.14429-8.30279.04882-16.60559.09742-9.793.05761-.02039-9.87109-.14227-68.89282L-31.8972,98.248l-.02429-34.44653-.00708-10.07471,10.05823.02369,62.37671.14648-2.99683.46411,57.23755-18.011,2.48022-.78052,2.47852.53222c14.37036,3.08594,28.76132,6.074,43.11484,9.24024l43.07916,9.40967-1.90387-.19825,53.78863.42872,26.89921.21484,26.90637.34326c1.1221.04224,2.24112-.01294,3.35977-.0791l3.357-.17017,6.71411-.34033L318.45012,54.27l26.86173-1.36109,53.73755-2.72168.62074-.03125.44316.0459,73.43756,7.61621-.53368-.02392,19.72336.50366c6.57446.14844,13.14891.377,19.72336.59033l39.44671,1.28272,3.69646.12036-.066,3.51025c-.44085,23.45874-1.05478,46.82568-1.64771,69.9104l-.9254,34.36646Q552.53533,185.146,552.23708,202.04223Zm-.65274-.90918-.31663-137.33154.6429.64282-78.89343.09156h-.03213l-.03333-.00293L399.41573,58.02l.1176.00171-53.8308,3.36279-26.91583,1.6814-13.458.84057-6.729.42041-3.36453.21c-1.12122.07935-2.24277.14795-3.36722.12232l-107.87192.0896h-.0979l-.09732-.02027L97.48848,46.64062l.5174-.02588L40.82912,64.81738l-.15668.04981-.16607.00024-62.37671.04614,1.11194-1.11206-.07471,137.78589-1.03723-1.03711,132.84478.24536-.09191.00537,125.10778-14.634.10389-.01221.103.01563,97.0156,14.68359-.22382.00049,150.14633-23.07007.14969-.023.14281.0481C506.158,185.49267,528.79418,193.28784,551.58434,201.13305Z"/><g class="bd667cb0-c13b-4f17-8210-d4717df72ea6"><polygon class="e599b891-94fd-451b-bac3-ba8aa7e10cbf" points="530.64 29.304 0.598 29.304 0.598 118 43.57 132.891 114.549 116.058 265.619 138.07 405.102 122.532 477.613 133.538 530.64 118 530.64 29.304"/></g><polygon class="a9c981ca-b33c-45f7-a00a-30d8be98708a" points="97.698 46.645 114.549 117.058 265.619 139.07 183.996 64.178 97.698 46.645"/><path class="b9b88891-c647-4b68-8cf3-8a01ba2a27a3" d="M44.81031,267.57715a.83165.83165,0,0,1-.85608-.49423,6.55575,6.55575,0,0,1-.322-1.0131,7.80391,7.80391,0,0,0-1.2065-1.8954,2.57381,2.57381,0,0,1-.57567-2.10336c-.99565.03508-2.10236.72891-2.89206.12153a1.71557,1.71557,0,0,1-.37525-1.84644,6.32575,6.32575,0,0,0,.55006-1.72612,6.99585,6.99585,0,0,1-1.14848.48967c-.57542.07141-1.05875-.49218-1.56018-.38886a.83073.83073,0,0,0-.40228.27972l-.934.97885a.54123.54123,0,0,1-.23111.16831c-.31968.08824-.477-.39746-.38782-.71686s.24407-.71081.0055-.94117c-.27815-.26856-.722.01135-1.02119.25622s-.843.40517-.99139.04815l-1.31043.036a.36945.36945,0,0,0-.23794.06231.394.394,0,0,0-.09451.26382,3.114,3.114,0,0,1-1.53485,2.317.63416.63416,0,0,1-.66642.06413.66082.66082,0,0,1-.19477-.304c-.2208-.55949-.20041-1.96609-.53621-2.36772-.35836-.4286-1.61487-.59938-2.16548-.8473a5.69734,5.69734,0,0,0-.65908,3.48124c.0129,1.22914-.97527,2.76381-.90261,3.8036a3.71084,3.71084,0,0,0-2.131-3.0587,7.55994,7.55994,0,0,0,.71322,3.303,3.16632,3.16632,0,0,1-1.12581-1.70472,4.92617,4.92617,0,0,0-.37275,3.05259,1.56723,1.56723,0,0,1,.05355.6199.44407.44407,0,0,1-.4273.38031,2.49679,2.49679,0,0,1-1.51926,1.76024c.0302.4572.72881.36416,1.14031.16264,1.09224-.53488,2.56224-.73074,3.40147.14947a24.50187,24.50187,0,0,1,2.78924-2.30283l-.47767.26673c3.43843,1.82209,7.30731,3.46231,11.11644,2.6665a2.24156,2.24156,0,0,0-.84092-2.7961,3.45082,3.45082,0,0,0,4.27968.69551l-.28436-.48375c.10789-.62953,1.01265-.70239,1.59546-.44107A6.084,6.084,0,0,0,44.81031,267.57715Z"/><path class="fb30fe40-daaa-4e44-b46d-4623be506b0e" d="M31.48248,270.45133a12.68058,12.68058,0,0,0,1.12667-7.37435,10.42321,10.42321,0,0,0,.76841,2.28163,1.58641,1.58641,0,0,0,.60364.7669c.70642.38372,1.49044-.33212,1.976-.97282l.08762,2.64625a7.23365,7.23365,0,0,0,4.36348-1.20535,8.0508,8.0508,0,0,1-5.66137,5.17688.7306.7306,0,0,0-.08264-1.123,1.1419,1.1419,0,0,0-.55419-.14017,10.20557,10.20557,0,0,0-2.62818.49889,2.85286,2.85286,0,0,1-2.54864-.40815c-1.12494-1.03231-.49971-3.06107-1.45244-4.25416a3.01488,3.01488,0,0,0-2.306-.93572c-.85613-.02658-1.71475.11831-2.56739.03664.15125.607.9635.85859,1.12776,1.46219.19335.71049-.653,1.29082-1.38824,1.33033a8.24363,8.24363,0,0,0-2.19547.03873,6.44608,6.44608,0,0,0,3.33266,1.34286,2.95726,2.95726,0,0,1,1.4343.33435c.408.28379.55055.99238.12457,1.24844"/><path class="b9b88891-c647-4b68-8cf3-8a01ba2a27a3" d="M498.02056,198.07851l2.92007-.91029a.75484.75484,0,0,0,.61762.75895,1.97089,1.97089,0,0,0,1.05183-.12845,12.47293,12.47293,0,0,0,2.90731-1.39853c.33944.89247,1.618.80136,2.5377.54487l3.78039-1.05422a3.77338,3.77338,0,0,0-.99879,3.59,13.4778,13.4778,0,0,0-7.12645,1.00937,2.75722,2.75722,0,0,0-1.50194,1.20934c-.57056,1.23279.62875,2.517,1.70233,3.34926a9.75021,9.75021,0,0,1-2.42931,1.2843,1.66259,1.66259,0,0,1-.9876.12225c-.81774-.22594-.87605-1.45021-.36211-2.12521a12.98536,12.98536,0,0,1,1.97956-1.58447c-.76627-1.17073-2.4423-1.21739-3.83313-1.06325-1.76316.19541-3.53047,4.77778-5.20749,2.17427-1.17056-1.81725,1.48623-5.50308,2.68024-6.58961C495.99851,198.45079,497.07186,198.37425,498.02056,198.07851Z"/><path class="fb30fe40-daaa-4e44-b46d-4623be506b0e" d="M499.79711,203.70369c.223.06891.3185-.2658.3505-.497a2.82209,2.82209,0,0,1,1.50063-1.76917,31.18808,31.18808,0,0,1,3.85429-2.0921,8.52325,8.52325,0,0,0-4.12742,1.689c-.41758.32052-.84231.78022-.74741,1.298.05239.28581.2593.52784.29729.81592.07424.56291-.55992,1.01174-1.12632.97214a2.912,2.912,0,0,1-1.49969-.75068.52757.52757,0,0,1-.1792.7871.797.797,0,0,1-.86587-.16308,1.7111,1.7111,0,0,1-.44863-.80907,4.2219,4.2219,0,0,1,.05983-2.54709,4.95091,4.95091,0,0,1-1.60294,5.17.28286.28286,0,0,1,.25665-.32917,9.19441,9.19441,0,0,0-.52768-3.99244,5.53484,5.53484,0,0,0,1.64713,1.31556.48555.48555,0,0,0,.41346.06922c.1522-.07027.1925-.264.2137-.43029l.15862-1.24428,1.0848,1.07352a.26825.26825,0,0,0,.47643-.026l2.32672-2.6964c-.41247,1.78744-2.51266,3.04729-2.32691,4.87228,1.70181-1.90851,3.50119-3.8855,5.89583-4.7823a11.23938,11.23938,0,0,0-.35271,1.46453.87042.87042,0,0,0,.01214.47941.90763.90763,0,0,0,.4121.38381l1.56874.93534a10.55429,10.55429,0,0,0-2.45814-.18253.91185.91185,0,0,0-.62119.19176.7903.7903,0,0,0-.07091.83491,2.8,2.8,0,0,1,.28589.83485l-1.98036.20225a.84212.84212,0,0,0-.61313.24035c-.1367.18024-.00393.52621.21575.47225"/><path class="fb30fe40-daaa-4e44-b46d-4623be506b0e" d="M148.73514,274.64119a16.829,16.829,0,0,1,2.60323-5.72653,1.76689,1.76689,0,0,0,.82477,2.3187,1.5441,1.5441,0,0,0,2.06016-1.17c0,2.63344,1.97842,5.2084,1.14814,7.70753a9.84934,9.84934,0,0,0,4.18024-2.61835,9.59813,9.59813,0,0,0,.51005,1.87778"/><path class="fb30fe40-daaa-4e44-b46d-4623be506b0e" d="M145.03505,227.84294a5.38991,5.38991,0,0,1-3.84308-3.0198c.79576-.65735,1.97-.51636,2.93769-.87553s1.55458-1.95933.57767-2.29245a6.62234,6.62234,0,0,0,3.76165,1.26635,2.8581,2.8581,0,0,0,2.22909,3.83165"/><path class="f92e756a-d66d-4404-ad4e-b33242a66e2f" d="M423.44351,160.43952c1.67895.6923,3.49519,1.29493,5.418,2.038,2.75128,1.06326,5.6518,2.23487,7.35746,4.4988,1.02729,1.36354,1.54671,3.04152,2.75528,4.27108,3.82275,3.88913,11.60047,1.03715,15.948,4.421,1.246.96979,2.05214,2.35845,3.31623,3.30792,3.244,2.43659,8.15995,1.14734,11.63835-.99416s6.58047-5.08127,10.64927-5.9567a6.91806,6.91806,0,0,0,5.19572,1.5309,32.97063,32.97063,0,0,1,11.29126-9.547c2.88645-1.57984,9.50812-5.32715,10.18958-8.7032-.36759,1.82108,2.34531,3.38663,4.30067,2.93088s3.16785-2.08479,4.22911-3.61064c4.68134-6.73068,9.54312-14.45773,7.24338-22.69176-2.30176-8.24125-11.10456-14.05882-19.76348-17.48607a110.01712,110.01712,0,0,0-29.32443-6.67277c-14.37045-1.47312-28.90966-1.05081-42.3054,2.53174-6.89086,1.84289-13.70525,4.70258-17.8129,9.93444-4.03918,5.14465-6.93265,14.375-4.5773,21.06268a58.3889,58.3889,0,0,0,7.19694,13.93809A14.9262,14.9262,0,0,0,423.44351,160.43952Z"/><g class="b756540a-1ba0-4fe6-bae9-7ddf517d9822"><path class="b12ac34e-4340-4d8d-976c-54b932a79223" d="M408.46391,139.691s6.65379,25.0998,8.69229,26.37157,19.939,2.31015,19.939,2.31015l-5.03251-24.73386S413.91367,135.957,408.46391,139.691Z"/><polygon class="b12ac34e-4340-4d8d-976c-54b932a79223" points="453.085 174.583 444.294 138.083 458.483 146.047 456.525 184.122 453.085 174.583"/><path class="b12ac34e-4340-4d8d-976c-54b932a79223" d="M472.57777,180.29779c.12741-.5,6.62511-36.659,6.62511-36.659l1.40147,33.48819Z"/><polygon class="b12ac34e-4340-4d8d-976c-54b932a79223" points="485.446 176.491 494.237 140.881 507.487 144.188 506.85 158.686 485.446 176.491"/></g><path class="bcfea45c-4c19-4a2f-a2cd-b7468dc37c36" d="M520.89568,95.6281c-3.88233-2.0021-4.5158-3.71313-3.176-7.73063,1.47471-4.422-1.08258-5.25186-3.63453-8.45076a3.8497,3.8497,0,0,0-1.66274-1.41308c-1.08631-.356-2.431.26608-3.34533-.42011-.79375-.59572-.73371-1.8144-.38843-2.74483a7.29764,7.29764,0,0,0,.84674-2.82633c-.1244-2.20348-2.90095-3.03494-5.09342-3.28766a17.34713,17.34713,0,0,0-5.31634-.0636c-1.7892.3513-3.42234,1.257-5.184,1.72746-5.71113,1.52527-11.5255-1.669-17.39849-2.341-5.06536-.57959-9.94635,1.94572-14.46417-.60948-4.50651-2.5488-9.03677-4.76708-14.2915-5.20143a7.55545,7.55545,0,0,0-3.94859.4919c-1.59014.77258-2.61787,2.39312-3.74233,3.80571a21.01124,21.01124,0,0,1-18.526,7.82881c-1.85177-.21448-3.73674-.68471-5.55219-.245s-3.533,2.20563-3.17721,4.12942c.90174,4.87287,4.64915,3.59222,1.068,7.45143-1.22856,1.324-3.27975,1.03315-4.13837,3.09067-.30183.72329.12273,4.59652.35125,4.30478-2.2324,2.85-5.43647,4.73454-7.59568,7.64629s-2.81644,7.741.02443,9.91066c.8121.62023,1.81619.94171,2.56793,1.64068,2.0121,1.87086-1.22456,10.2617-1.67174,12.78759a6.50228,6.50228,0,0,0-.10884,2.4878,6.62521,6.62521,0,0,0,.761,1.76655c1.44179,2.61387,2.67059,4.54165,2.94134,7.45468.161,1.73222-.07708,5.29221,1.42336,6.58073,1.85971,1.597,4.58209.69851,6.97623.51007,7.92294-.62359,14.72172,7.43512,22.64151,6.76879,2.16545-.18219,4.23149-1.02,6.37518-1.39005,6.3696-1.09942,16.40854.98423,21.59949,5.04025,3.616,2.8256,7.5,7.30518,11.78134,8.92052,3.18694,1.202,7.37257.53518,10.56367-.39345,3.95614-1.15125,3.07192-1.13438,5.30419-4.5364,2.53183-3.85855,4.71968-4.36411,9.208-4.8842,3.6371-.42144,7.42-.92853,10.47731-3.04318,3.40066-2.35252,6.05309-6.43209,8.55039-9.67946,2.8766-3.7406,1.14573-7.3354-1.2865-11.07132a35.25875,35.25875,0,0,1,7.61923-8.89005,1.07423,1.07423,0,0,0,.41145-.52229,1.05518,1.05518,0,0,0-.07325-.56369c-1.52217-4.71483-3.3537-9.033-3.23947-13.92119C525.45944,102.033,524.48673,97.48,520.89568,95.6281Z"/><path class="b482427e-7d6d-4d4f-85cd-91026654157b" d="M420.05361,87.20567q-2.96339,1.86768-5.97681,3.63428l.43006-.90674c-.03119-.13086.09521.11963.18365.21778l.316.41552.679.87549a7.385,7.385,0,0,1,.6958,1.043,1.49178,1.49178,0,0,1,.09607.21533l.047.12793a1.55768,1.55768,0,0,1,.049.26221,1.5854,1.5854,0,0,1,.00055.34619c-.00409.07568-.01777.14844-.02814.22315a3.04868,3.04868,0,0,1-.26019.80712,10.58841,10.58841,0,0,1-1.50513,2.023c-.50653.57618-1.03577,1.13477-1.58991,1.66211-1.11132,1.0503-2.2716,1.99366-3.32568,2.937a31.84666,31.84666,0,0,0-2.92432,2.95118l.28485-.4375a10.21223,10.21223,0,0,0-.57653,2.03076,1.66863,1.66863,0,0,0-.017.61279c.02905.02246-.06049-.1792-.10913-.25049-.07019-.08105-.053-.061.01214-.03271a11.2485,11.2485,0,0,0,1.95533.56836,14.36775,14.36775,0,0,1,1.38433.396,4.61632,4.61632,0,0,1,1.7616,1.02881,5.73708,5.73708,0,0,1,1.65179,3.26563,9.03459,9.03459,0,0,1-.09954,3.12207,36.71564,36.71564,0,0,1-1.4925,5.04785c-.233.68848-.47735,1.55029-.66449,2.27637a13.07889,13.07889,0,0,0-.37286,2.13818,6.23021,6.23021,0,0,0,.17157,1.99853,20.26,20.26,0,0,0,.72565,2.207,26.55194,26.55194,0,0,1,.8753,2.52587,13.948,13.948,0,0,1,.41577,2.7295,27.522,27.522,0,0,1-.26764,5.248l-.66687-.97851c.74958.25781,1.36988.55566,2.009.75439a3.75292,3.75292,0,0,0,1.69171.24414c1.33386-.33886,2.77606-.73388,4.19977-1.02343a37.129,37.129,0,0,1,8.71484-.51661l.52393.02051.1109.53711a25.18544,25.18544,0,0,0,1.2987,4.08106c.26361.67187.56153,1.33154.87189,1.98047l.23718.48291.121.23925c.03277.07617.01458-.00439-.01093-.03857a.22483.22483,0,0,0-.04492-.04932l.01886.0083a5.21519,5.21519,0,0,0,.74969.36182,20.98558,20.98558,0,0,0,2.00605.66846l1.03515.28125.4975.11865c.00934,0,.137.03271.02167-.00342-.057-.02148-.18219-.00635-.11981-.0166l.16278-.03857a38.04308,38.04308,0,0,0,3.98352-1.38721l.21789-.09424.1507-.0791.52606-.26953a10.666,10.666,0,0,1,1.09241-.50928,9.00594,9.00594,0,0,1,2.5205-.70361,7.96731,7.96731,0,0,1,2.67579.19922,6.9731,6.9731,0,0,0,1.80456.19091,8.95649,8.95649,0,0,0,1.77637-.3042c.30316-.05908.62543-.1914.93719-.2832a3.3691,3.3691,0,0,1,1.00122-.21582c.31568-.00635.57221.0044.77222.02,1.64734.13135,3.06458.36182,4.56421.61035.74408.12744,1.47339.25586,2.24927.418l.30646.06738c.12915.03369.16552.03223.3916.10205l.58056.1919,1.04407.34424c1.41119.4707,2.80176.92041,4.27118,1.48584l.5849.2417c.09778.0415.2027.08691.34717.16162l.19836.10156a3.38508,3.38508,0,0,1,.45337.313l.892.82617,1.60767,1.46338c1.08007.97217,2.17846,1.92724,3.26825,2.86181a14.30626,14.30626,0,0,0,3.02758,2.25293c1.2984.61866,2.60413,1.17481,3.87091,1.66065a8.70329,8.70329,0,0,0,3.2948.77685,4.16132,4.16132,0,0,0,1.421-.42382c.6189-.27295,1.38031-.6211,2.1615-.90869l-1.0382.83593a29.80092,29.80092,0,0,1,2.19317-2.87451c.75952-.88818,1.43134-1.67041,2.05847-2.53223l.4657-.65039a4.12536,4.12536,0,0,1,.36029-.44384,3.40639,3.40639,0,0,1,.34015-.3003,5.73284,5.73284,0,0,1,.51331-.356,17.68416,17.68416,0,0,1,1.681-.89209l1.59167-.71729.75324-.3335.40478-.18945a3.14586,3.14586,0,0,1,.39935-.14844c.106-.02832.14533-.03076.22156-.04589a3.00881,3.00881,0,0,1,.36371-.04932,13.96545,13.96545,0,0,1,1.95276.02051l1.74213.14013c.55828.04346,1.16992.12647,1.56311.13184q.82443.01466,1.64044-.00684a21.29137,21.29137,0,0,0,6.308-1.00488l-.46277.36719c1.29743-1.59815,2.6297-3.1709,3.961-4.74463,1.32733-1.57617,2.65393-3.15283,4.02289-4.69873l.34363.25c-1.0517,1.77734-2.14582,3.52344-3.23914,5.27-1.08941,1.75-2.17785,3.5-3.30108,5.2251l-.13477.207-.32837.16015a21.70986,21.70986,0,0,1-6.94623,1.88379c-.588.07325-1.17523.13086-1.76043.17676-.74219.05176-1.264.01758-1.83942.01465l-1.66071-.0083a11.13253,11.13253,0,0,0-1.45019.085c-.05768.00635-.0567.01562-.0567.01562.00695-.00048-.02484.00538.01336-.00293a.78963.78963,0,0,0,.20044-.07275.54272.54272,0,0,0,.06568-.03906l-.067.03955-.13477.07861-.21612.12012-.77557.4165-1.46039.79493c-.46509.26269-.93933.53173-1.28687.77636a1.73768,1.73768,0,0,0-.17846.13965c.01367-.00683-.04474.0415.02246-.01807a.6818.6818,0,0,0,.0979-.11474.412.412,0,0,0,.027-.04444l-.02984.04737-.48486.76269c-.65491,1.01368-1.41236,1.999-2.082,2.87452-.67211.87548-1.24414,1.72363-1.81982,2.62646l-.35706.56006-.68145.27588c-.59339.24072-1.16388.51953-1.88123.86279a8.52192,8.52192,0,0,1-2.7785.85449,8.81379,8.81379,0,0,1-2.90228-.2041,19.678,19.678,0,0,1-2.39435-.69824c-1.488-.54883-2.88062-1.17529-4.2392-1.82178l-.51251-.24072a6.64619,6.64619,0,0,1-.76386-.45606c-.4021-.27441-.70221-.51611-1.02166-.76757-.62073-.49561-1.18842-.98829-1.76239-1.48487-1.12916-.999-2.20942-2.023-3.28925-3.05029l-1.60913-1.55957-.70123-.69971a1.06412,1.06412,0,0,0,.12988.10254c.03143.02393.12915.07471.09448.05713l-.04706-.02441a1.29377,1.29377,0,0,0-.15069-.07569l-.42951-.19336c-1.25988-.53613-2.64886-1.0581-4.01123-1.5708-.6723-.2334-1.46362-.58838-1.86932-.666-.65881-.16553-1.37354-.32178-2.07471-.47071-1.39325-.28662-2.87457-.58886-4.15515-.76025l-.32935-.03711c.5705-.10107.057-.02051-.07055.03369-.39881.09766-.76966.22412-1.19263.292a10.84356,10.84356,0,0,1-2.59289.24707,10.40954,10.40954,0,0,1-2.55066-.44775,5.53285,5.53285,0,0,0-1.687-.30176,6.004,6.004,0,0,0-1.75446.32471,8.2439,8.2439,0,0,0-.94556.33545l-.47784.189-.35553.14014-.29974.09668a39.84643,39.84643,0,0,1-4.48542,1.08887c-.09668.0166-.23993.03174-.38293.0415a1.86963,1.86963,0,0,1-.3949-.01416,1.07937,1.07937,0,0,1-.24756-.05762l-.56207-.18994-1.065-.398c-.70526-.27783-1.40186-.56787-2.11432-.91162a5.43167,5.43167,0,0,1-1.163-.72607,1.67237,1.67237,0,0,1-.37561-.50733l-.10925-.26269-.2113-.52539c-.27472-.70117-.52478-1.40821-.77375-2.11524a28.17514,28.17514,0,0,1-1.17736-4.38281l.63458.55762c-1.4151-.07959-2.82752-.1167-4.22815-.06494a22.58318,22.58318,0,0,0-4.14392.54834,37.76793,37.76793,0,0,0-4.09027,1.18994,5.08332,5.08332,0,0,1-2.53528-.124c-.7392-.1875-1.45-.42285-2.071-.57519l-.70208-.17236.035-.80664a22.21631,22.21631,0,0,0-.24023-4.81006,11.50838,11.50838,0,0,0-.5893-2.19873c-.24817-.64844-.64453-1.38623-1.024-2.13623a18.599,18.599,0,0,1-1.09954-2.48487,9.617,9.617,0,0,1-.52875-2.96875,13.05994,13.05994,0,0,1,.28558-2.84765c.185-.91114.35571-1.67774.60742-2.59668a45.57036,45.57036,0,0,0,1.2967-4.625,6.94058,6.94058,0,0,0,.10284-1.88965,1.95448,1.95448,0,0,0-.52521-1.18213c.053.01953-.11828-.10059-.40881-.20654-.28485-.1084-.63605-.21436-1.02954-.31934a12.25166,12.25166,0,0,1-2.82032-.98926,3.51117,3.51117,0,0,1-.967-.81006,2.91632,2.91632,0,0,1-.62347-1.37988,5.07329,5.07329,0,0,1,.08154-1.88965,13.37938,13.37938,0,0,1,.94623-2.76123l.11768-.2622.16736-.1753a26.96305,26.96305,0,0,1,3.46563-3.06689c1.21161-.9126,2.39917-1.72461,3.49488-2.60108.54266-.44287,1.08844-.87988,1.60217-1.35449a10.41177,10.41177,0,0,0,1.3056-1.33594,1.03653,1.03653,0,0,0,.11572-.2207c.00361-.01562.01325-.03223.0152-.04785.00592-.00684.0072-.07764.00629.07324a.52875.52875,0,0,0,.02722.12695l.00067-.001c.00513.00439.00641-.00488-.0086-.03809a7.62,7.62,0,0,0-.42493-.84424l-.5448-.94873-.2829-.50488a3.21775,3.21775,0,0,1-.32263-.75342l-.19238-.64892.62256-.2583q3.22586-1.33814,6.50878-2.562Z"/><g class="f21f71eb-9545-4b3e-8d7b-198163459feb"><polygon class="fd06f0bc-3ecc-4dcd-8c4a-2f52e3f28fda" points="475.866 146.939 491.089 161.483 506.768 152.783 475.866 146.939"/><polygon class="fd06f0bc-3ecc-4dcd-8c4a-2f52e3f28fda" points="418.239 70.602 447.82 78.608 439.07 60.849 418.239 70.602"/><polygon class="fd06f0bc-3ecc-4dcd-8c4a-2f52e3f28fda" points="431.043 151.759 439.701 141.782 414.799 148.725 431.043 151.759"/><polygon class="fd06f0bc-3ecc-4dcd-8c4a-2f52e3f28fda" points="516.347 84.262 502.9 102.926 519.145 91.407 516.347 84.262"/></g><path class="f92e756a-d66d-4404-ad4e-b33242a66e2f" d="M290.40623,160.43952c1.67895.6923,3.49519,1.29493,5.418,2.038,2.75128,1.06326,5.6518,2.23487,7.35746,4.4988,1.02729,1.36354,1.54671,3.04152,2.75528,4.27108,3.82275,3.88913,11.60047,1.03715,15.948,4.421,1.246.96979,2.05214,2.35845,3.31623,3.30792,3.244,2.43659,8.15995,1.14734,11.63835-.99416s6.58047-5.08127,10.64927-5.9567a6.91806,6.91806,0,0,0,5.19572,1.5309,32.97063,32.97063,0,0,1,11.29126-9.547c2.88645-1.57984,9.50812-5.32715,10.18958-8.7032-.36759,1.82108,2.34531,3.38663,4.30067,2.93088s3.16785-2.08479,4.22911-3.61064c4.68134-6.73068,9.54312-14.45773,7.24338-22.69176-2.30176-8.24125-11.10456-14.05882-19.76348-17.48607a110.01712,110.01712,0,0,0-29.32443-6.67277c-14.37045-1.47312-28.90966-1.05081-42.3054,2.53174-6.89086,1.84289-13.70525,4.70258-17.8129,9.93444-4.03919,5.14465-6.93265,14.375-4.5773,21.06268A58.3889,58.3889,0,0,0,283.352,155.2428,14.9262,14.9262,0,0,0,290.40623,160.43952Z"/><g class="b806c474-b684-473b-bcb9-71a16b06fd78"><path class="b12ac34e-4340-4d8d-976c-54b932a79223" d="M275.42663,139.691s6.65379,25.0998,8.69229,26.37157,19.939,2.31015,19.939,2.31015l-5.03251-24.73386S280.87639,135.957,275.42663,139.691Z"/><polygon class="b12ac34e-4340-4d8d-976c-54b932a79223" points="320.047 174.583 311.256 138.083 325.446 146.047 323.487 184.122 320.047 174.583"/><path class="b12ac34e-4340-4d8d-976c-54b932a79223" d="M339.54049,180.29779c.12741-.5,6.62511-36.659,6.62511-36.659l1.40147,33.48819Z"/><polygon class="b12ac34e-4340-4d8d-976c-54b932a79223" points="352.408 176.491 361.2 140.881 374.45 144.188 373.813 158.686 352.408 176.491"/></g><path class="bcfea45c-4c19-4a2f-a2cd-b7468dc37c36" d="M387.8584,95.6281c-3.88233-2.0021-4.5158-3.71313-3.176-7.73063,1.47471-4.422-1.08258-5.25186-3.63453-8.45076a3.8497,3.8497,0,0,0-1.66274-1.41308c-1.08631-.356-2.431.26608-3.34533-.42011-.79375-.59572-.73371-1.8144-.38843-2.74483a7.29764,7.29764,0,0,0,.84674-2.82633c-.1244-2.20348-2.90095-3.03494-5.09342-3.28766a17.34713,17.34713,0,0,0-5.31634-.0636c-1.7892.3513-3.42234,1.257-5.184,1.72746-5.71113,1.52527-11.5255-1.669-17.39849-2.341-5.06536-.57959-9.94635,1.94572-14.46417-.60948-4.50651-2.5488-9.03677-4.76708-14.2915-5.20143a7.55545,7.55545,0,0,0-3.94859.4919c-1.59014.77258-2.61787,2.39312-3.74233,3.80571a21.01124,21.01124,0,0,1-18.526,7.82881c-1.85177-.21448-3.73674-.68471-5.5522-.245s-3.533,2.20563-3.1772,4.12942c.90174,4.87287,4.64915,3.59222,1.068,7.45143-1.22856,1.324-3.27975,1.03315-4.13837,3.09067-.30183.72329.12273,4.59652.35125,4.30478-2.2324,2.85-5.43647,4.73454-7.59568,7.64629s-2.81644,7.741.02443,9.91066c.8121.62023,1.81619.94171,2.56793,1.64068,2.0121,1.87086-1.22456,10.2617-1.67174,12.78759a6.50228,6.50228,0,0,0-.10884,2.4878,6.62521,6.62521,0,0,0,.761,1.76655c1.44179,2.61387,2.67059,4.54165,2.94134,7.45468.161,1.73222-.07708,5.29221,1.42336,6.58073,1.85971,1.597,4.58209.69851,6.97623.51007,7.92294-.62359,14.72172,7.43512,22.64151,6.76879,2.16545-.18219,4.23149-1.02,6.37518-1.39005,6.3696-1.09942,16.40854.98423,21.59949,5.04025,3.616,2.8256,7.5,7.30518,11.78134,8.92052,3.18694,1.202,7.37257.53518,10.56367-.39345,3.95614-1.15125,3.07192-1.13438,5.30419-4.5364,2.53183-3.85855,4.71968-4.36411,9.208-4.8842,3.6371-.42144,7.42-.92853,10.47731-3.04318,3.40066-2.35252,6.05309-6.43209,8.55039-9.67946,2.8766-3.7406,1.14573-7.3354-1.2865-11.07132a35.25891,35.25891,0,0,1,7.61922-8.89005,1.07419,1.07419,0,0,0,.41146-.52229,1.05518,1.05518,0,0,0-.07325-.56369c-1.52217-4.71483-3.3537-9.033-3.23947-13.92119C392.42216,102.033,391.44945,97.48,387.8584,95.6281Z"/><path class="b482427e-7d6d-4d4f-85cd-91026654157b" d="M287.01633,87.20567q-2.96338,1.86768-5.97681,3.63428l.43006-.90674c-.03119-.13086.09521.11963.18365.21778l.316.41552.679.87549a7.385,7.385,0,0,1,.6958,1.043,1.49178,1.49178,0,0,1,.09607.21533l.047.12793a1.55869,1.55869,0,0,1,.049.26221,1.5854,1.5854,0,0,1,.00055.34619c-.00409.07568-.01777.14844-.02814.22315a3.04868,3.04868,0,0,1-.26019.80712,10.58841,10.58841,0,0,1-1.50513,2.023c-.50653.57618-1.03577,1.13477-1.58991,1.66211-1.11132,1.0503-2.2716,1.99366-3.32568,2.937a31.84666,31.84666,0,0,0-2.92432,2.95118l.28485-.4375a10.21156,10.21156,0,0,0-.57653,2.03076,1.66863,1.66863,0,0,0-.017.61279c.029.02246-.06049-.1792-.10913-.25049-.07019-.08105-.053-.061.01214-.03271a11.2486,11.2486,0,0,0,1.95532.56836,14.36707,14.36707,0,0,1,1.38434.396,4.61632,4.61632,0,0,1,1.7616,1.02881,5.73708,5.73708,0,0,1,1.65179,3.26563,9.03459,9.03459,0,0,1-.09954,3.12207,36.71564,36.71564,0,0,1-1.4925,5.04785c-.233.68848-.47735,1.55029-.66449,2.27637a13.07889,13.07889,0,0,0-.37286,2.13818,6.23021,6.23021,0,0,0,.17157,1.99853,20.26,20.26,0,0,0,.72565,2.207,26.55194,26.55194,0,0,1,.8753,2.52587,13.948,13.948,0,0,1,.41577,2.7295,27.522,27.522,0,0,1-.26764,5.248l-.66687-.97851c.74958.25781,1.36988.55566,2.009.75439a3.75292,3.75292,0,0,0,1.69171.24414c1.33386-.33886,2.77606-.73388,4.19977-1.02343a37.129,37.129,0,0,1,8.71484-.51661l.52393.02051.1109.53711a25.18544,25.18544,0,0,0,1.2987,4.08106c.26361.67187.56153,1.33154.87189,1.98047l.23718.48291.121.23925c.03277.07617.01458-.00439-.01093-.03857a.22483.22483,0,0,0-.04492-.04932l.01886.0083a5.21519,5.21519,0,0,0,.74969.36182,20.98558,20.98558,0,0,0,2.00605.66846l1.03515.28125.4975.11865c.00934,0,.137.03271.02167-.00342-.057-.02148-.18219-.00635-.11981-.0166l.16278-.03857a38.04308,38.04308,0,0,0,3.98352-1.38721l.21789-.09424.1507-.0791.52606-.26953a10.666,10.666,0,0,1,1.09241-.50928,9.00594,9.00594,0,0,1,2.5205-.70361,7.96731,7.96731,0,0,1,2.67579.19922,6.9731,6.9731,0,0,0,1.80456.19091,8.95649,8.95649,0,0,0,1.77637-.3042c.30316-.05908.62543-.1914.93719-.2832a3.3691,3.3691,0,0,1,1.00122-.21582c.31568-.00635.57221.0044.77222.02,1.64734.13135,3.06458.36182,4.56421.61035.74408.12744,1.47339.25586,2.24927.418l.30645.06738c.12916.03369.16553.03223.39161.10205l.58056.1919,1.04407.34424c1.41119.4707,2.80176.92041,4.27118,1.48584l.5849.2417c.09778.0415.2027.08691.34717.16162l.19836.10156a3.38508,3.38508,0,0,1,.45337.313l.892.82617,1.60767,1.46338c1.08007.97217,2.17846,1.92724,3.26825,2.86181a14.30626,14.30626,0,0,0,3.02758,2.25293c1.2984.61866,2.60413,1.17481,3.87091,1.66065a8.70329,8.70329,0,0,0,3.2948.77685,4.16132,4.16132,0,0,0,1.421-.42382c.6189-.27295,1.38031-.6211,2.1615-.90869l-1.0382.83593a29.80092,29.80092,0,0,1,2.19317-2.87451c.75952-.88818,1.43134-1.67041,2.05847-2.53223l.4657-.65039a4.12536,4.12536,0,0,1,.36029-.44384,3.40639,3.40639,0,0,1,.34015-.3003,5.73284,5.73284,0,0,1,.51331-.356,17.68416,17.68416,0,0,1,1.681-.89209l1.59167-.71729.75324-.3335.40478-.18945a3.14586,3.14586,0,0,1,.39935-.14844c.106-.02832.14533-.03076.22156-.04589a3.00881,3.00881,0,0,1,.36371-.04932,13.96545,13.96545,0,0,1,1.95276.02051l1.74213.14013c.55828.04346,1.16992.12647,1.56311.13184q.82443.01466,1.64044-.00684a21.29137,21.29137,0,0,0,6.308-1.00488l-.46277.36719c1.29743-1.59815,2.6297-3.1709,3.961-4.74463,1.32733-1.57617,2.65393-3.15283,4.02289-4.69873l.34363.25c-1.0517,1.77734-2.14582,3.52344-3.23914,5.27-1.08941,1.75-2.17785,3.5-3.30108,5.2251l-.13477.207-.32837.16015a21.70986,21.70986,0,0,1-6.94623,1.88379c-.588.07325-1.17523.13086-1.76043.17676-.74219.05176-1.264.01758-1.83942.01465l-1.66071-.0083a11.13253,11.13253,0,0,0-1.45019.085c-.05768.00635-.0567.01562-.0567.01562.007-.00048-.02484.00538.01336-.00293a.78963.78963,0,0,0,.20044-.07275.54272.54272,0,0,0,.06568-.03906l-.067.03955-.13477.07861-.21612.12012-.77557.4165-1.46039.79493c-.46509.26269-.93933.53173-1.28687.77636a1.73929,1.73929,0,0,0-.17847.13965c.01368-.00683-.04473.0415.02247-.01807a.6818.6818,0,0,0,.0979-.11474.412.412,0,0,0,.027-.04444l-.02984.04737-.48486.76269c-.65491,1.01368-1.41236,1.999-2.082,2.87452-.67212.87548-1.24414,1.72363-1.81982,2.62646l-.35706.56006-.68145.27588c-.59339.24072-1.16388.51953-1.88123.86279a8.52192,8.52192,0,0,1-2.7785.85449,8.81385,8.81385,0,0,1-2.90229-.2041,19.67837,19.67837,0,0,1-2.39434-.69824c-1.488-.54883-2.88062-1.17529-4.2392-1.82178l-.51251-.24072a6.64619,6.64619,0,0,1-.76386-.45606c-.4021-.27441-.70221-.51611-1.02166-.76757-.62073-.49561-1.18842-.98829-1.76239-1.48487-1.12916-.999-2.20942-2.023-3.28925-3.05029l-1.60913-1.55957-.70123-.69971a1.06412,1.06412,0,0,0,.12988.10254c.03143.02393.12915.07471.09448.05713l-.04706-.02441a1.29377,1.29377,0,0,0-.15069-.07569l-.42951-.19336c-1.25988-.53613-2.64886-1.0581-4.01123-1.5708-.6723-.2334-1.46362-.58838-1.86932-.666-.65881-.16553-1.37354-.32178-2.07471-.47071-1.39325-.28662-2.87457-.58886-4.15515-.76025l-.32935-.03711c.5705-.10107.057-.02051-.07055.03369-.39881.09766-.76966.22412-1.19263.292a10.84356,10.84356,0,0,1-2.59289.24707,10.40946,10.40946,0,0,1-2.55066-.44775,5.53285,5.53285,0,0,0-1.68695-.30176,6.004,6.004,0,0,0-1.75446.32471,8.2439,8.2439,0,0,0-.94556.33545l-.47784.189-.35553.14014-.29974.09668a39.84643,39.84643,0,0,1-4.48542,1.08887c-.09668.0166-.23993.03174-.38293.0415a1.86963,1.86963,0,0,1-.3949-.01416,1.07937,1.07937,0,0,1-.24756-.05762l-.56207-.18994-1.065-.398c-.70526-.27783-1.40186-.56787-2.11432-.91162a5.43167,5.43167,0,0,1-1.163-.72607,1.67237,1.67237,0,0,1-.37561-.50733l-.10925-.26269-.2113-.52539c-.27472-.70117-.52478-1.40821-.77375-2.11524a28.17514,28.17514,0,0,1-1.17736-4.38281l.63458.55762c-1.4151-.07959-2.82752-.1167-4.22815-.06494a22.58318,22.58318,0,0,0-4.14392.54834,37.76793,37.76793,0,0,0-4.09027,1.18994,5.08332,5.08332,0,0,1-2.53528-.124c-.7392-.1875-1.44995-.42285-2.071-.57519l-.70208-.17236.035-.80664a22.21567,22.21567,0,0,0-.24024-4.81006,11.50763,11.50763,0,0,0-.58929-2.19873c-.24817-.64844-.64453-1.38623-1.024-2.13623a18.599,18.599,0,0,1-1.09954-2.48487,9.617,9.617,0,0,1-.52875-2.96875,13.05994,13.05994,0,0,1,.28558-2.84765c.185-.91114.35571-1.67774.60742-2.59668a45.57036,45.57036,0,0,0,1.2967-4.625,6.94058,6.94058,0,0,0,.10284-1.88965,1.95448,1.95448,0,0,0-.52521-1.18213c.053.01953-.11828-.10059-.40881-.20654-.28485-.1084-.636-.21436-1.02954-.31934a12.25166,12.25166,0,0,1-2.82032-.98926,3.51117,3.51117,0,0,1-.967-.81006,2.91632,2.91632,0,0,1-.62347-1.37988,5.07329,5.07329,0,0,1,.08154-1.88965,13.37938,13.37938,0,0,1,.94623-2.76123l.11768-.2622.16736-.1753a26.96305,26.96305,0,0,1,3.46563-3.06689c1.21161-.9126,2.39917-1.72461,3.49488-2.60108.54266-.44287,1.08844-.87988,1.60217-1.35449a10.41177,10.41177,0,0,0,1.3056-1.33594,1.03653,1.03653,0,0,0,.11572-.2207c.00361-.01562.01325-.03223.0152-.04785.00592-.00684.0072-.07764.00629.07324a.52875.52875,0,0,0,.02722.12695l.00067-.001c.00513.00439.00641-.00488-.0086-.03809a7.62,7.62,0,0,0-.42493-.84424l-.5448-.94873-.2829-.50488a3.21775,3.21775,0,0,1-.32263-.75342l-.19238-.64892.62256-.2583q3.22586-1.33814,6.50878-2.562Z"/><g class="bb9a5d29-9a64-47a8-8cd9-b91228ea4d80"><polygon class="fd06f0bc-3ecc-4dcd-8c4a-2f52e3f28fda" points="342.828 146.939 358.052 161.483 373.731 152.783 342.828 146.939"/><polygon class="fd06f0bc-3ecc-4dcd-8c4a-2f52e3f28fda" points="285.202 70.602 314.782 78.608 306.033 60.849 285.202 70.602"/><polygon class="fd06f0bc-3ecc-4dcd-8c4a-2f52e3f28fda" points="298.006 151.759 306.664 141.782 281.762 148.725 298.006 151.759"/><polygon class="fd06f0bc-3ecc-4dcd-8c4a-2f52e3f28fda" points="383.31 84.262 369.863 102.926 386.107 91.407 383.31 84.262"/></g><path class="f92e756a-d66d-4404-ad4e-b33242a66e2f" d="M157.369,160.43952c1.67895.6923,3.49519,1.29493,5.418,2.038,2.75128,1.06326,5.6518,2.23487,7.35746,4.4988,1.02729,1.36354,1.54671,3.04152,2.75528,4.27108,3.82275,3.88913,11.60047,1.03715,15.948,4.421,1.246.96979,2.05214,2.35845,3.31623,3.30792,3.244,2.43659,8.16,1.14734,11.63835-.99416s6.58047-5.08127,10.64927-5.9567a6.91806,6.91806,0,0,0,5.19572,1.5309,32.97063,32.97063,0,0,1,11.29126-9.547c2.88645-1.57984,9.50811-5.32715,10.18958-8.7032-.36759,1.82108,2.34531,3.38663,4.30067,2.93088s3.16785-2.08479,4.22911-3.61064c4.68134-6.73068,9.54312-14.45773,7.24338-22.69176-2.30176-8.24125-11.10456-14.05882-19.76348-17.48607a110.01712,110.01712,0,0,0-29.32443-6.67277c-14.37045-1.47312-28.90966-1.05081-42.3054,2.53174-6.89086,1.84289-13.70525,4.70258-17.8129,9.93444-4.03919,5.14465-6.93265,14.375-4.5773,21.06268a58.3889,58.3889,0,0,0,7.19694,13.93809A14.9262,14.9262,0,0,0,157.369,160.43952Z"/><g class="a7f34975-951c-4189-b452-9cda9371ac11"><path class="b12ac34e-4340-4d8d-976c-54b932a79223" d="M142.38935,139.691s6.65379,25.0998,8.69229,26.37157,19.939,2.31015,19.939,2.31015l-5.03251-24.73386S147.83911,135.957,142.38935,139.691Z"/><polygon class="b12ac34e-4340-4d8d-976c-54b932a79223" points="187.01 174.583 178.219 138.083 192.408 146.047 190.45 184.122 187.01 174.583"/><path class="b12ac34e-4340-4d8d-976c-54b932a79223" d="M206.50321,180.29779c.12741-.5,6.62511-36.659,6.62511-36.659l1.40147,33.48819Z"/><polygon class="b12ac34e-4340-4d8d-976c-54b932a79223" points="219.371 176.491 228.162 140.881 241.412 144.188 240.775 158.686 219.371 176.491"/></g><path class="bcfea45c-4c19-4a2f-a2cd-b7468dc37c36" d="M254.82112,95.6281c-3.88233-2.0021-4.5158-3.71313-3.176-7.73063,1.47472-4.422-1.08257-5.25186-3.63452-8.45076a3.8497,3.8497,0,0,0-1.66274-1.41308c-1.08631-.356-2.431.26608-3.34533-.42011-.79375-.59572-.73371-1.8144-.38843-2.74483a7.29764,7.29764,0,0,0,.84674-2.82633c-.1244-2.20348-2.90095-3.03494-5.09342-3.28766a17.34713,17.34713,0,0,0-5.31634-.0636c-1.7892.3513-3.42234,1.257-5.184,1.72746-5.71113,1.52527-11.5255-1.669-17.39849-2.341-5.06536-.57959-9.94635,1.94572-14.46417-.60948-4.50651-2.5488-9.03677-4.76708-14.2915-5.20143a7.55545,7.55545,0,0,0-3.94859.4919c-1.59014.77258-2.61787,2.39312-3.74233,3.80571a21.01124,21.01124,0,0,1-18.526,7.82881c-1.85177-.21448-3.73674-.68471-5.5522-.245s-3.533,2.20563-3.1772,4.12942c.90174,4.87287,4.64915,3.59222,1.068,7.45143-1.22856,1.324-3.27976,1.03315-4.13837,3.09067-.30183.72329.12273,4.59652.35125,4.30478-2.2324,2.85-5.43647,4.73454-7.59568,7.64629s-2.81644,7.741.02443,9.91066c.8121.62023,1.81619.94171,2.56793,1.64068,2.0121,1.87086-1.22456,10.2617-1.67174,12.78759a6.50228,6.50228,0,0,0-.10884,2.4878,6.62521,6.62521,0,0,0,.761,1.76655c1.44179,2.61387,2.67059,4.54165,2.94134,7.45468.161,1.73222-.07708,5.29221,1.42336,6.58073,1.85971,1.597,4.58209.69851,6.97623.51007,7.92294-.62359,14.72172,7.43512,22.64151,6.76879,2.16545-.18219,4.23149-1.02,6.37518-1.39005,6.3696-1.09942,16.40854.98423,21.59949,5.04025,3.616,2.8256,7.5,7.30518,11.78134,8.92052,3.18694,1.202,7.37257.53518,10.56367-.39345,3.95614-1.15125,3.07192-1.13438,5.30419-4.5364,2.53183-3.85855,4.71968-4.36411,9.208-4.8842,3.6371-.42144,7.42-.92853,10.47731-3.04318,3.40066-2.35252,6.05309-6.43209,8.55039-9.67946,2.8766-3.7406,1.14573-7.3354-1.28651-11.07132a35.25916,35.25916,0,0,1,7.61923-8.89005,1.07419,1.07419,0,0,0,.41146-.52229,1.05518,1.05518,0,0,0-.07325-.56369c-1.52217-4.71483-3.3537-9.033-3.23947-13.92119C259.38488,102.033,258.41217,97.48,254.82112,95.6281Z"/><path class="b482427e-7d6d-4d4f-85cd-91026654157b" d="M153.97905,87.20567q-2.96339,1.86768-5.97681,3.63428l.43006-.90674c-.03119-.13086.09521.11963.18365.21778l.316.41552.679.87549a7.385,7.385,0,0,1,.6958,1.043,1.49178,1.49178,0,0,1,.09607.21533l.047.12793a1.55869,1.55869,0,0,1,.049.26221,1.5854,1.5854,0,0,1,.00055.34619c-.00409.07568-.01777.14844-.02814.22315a3.04832,3.04832,0,0,1-.2602.80712,10.588,10.588,0,0,1-1.50512,2.023c-.50653.57618-1.03577,1.13477-1.58991,1.66211-1.11132,1.0503-2.2716,1.99366-3.32568,2.937a31.84666,31.84666,0,0,0-2.92432,2.95118l.28485-.4375a10.21156,10.21156,0,0,0-.57653,2.03076,1.66863,1.66863,0,0,0-.017.61279c.02905.02246-.06049-.1792-.10913-.25049-.07019-.08105-.053-.061.01214-.03271a11.2486,11.2486,0,0,0,1.95532.56836,14.36707,14.36707,0,0,1,1.38434.396,4.61632,4.61632,0,0,1,1.7616,1.02881,5.73708,5.73708,0,0,1,1.65179,3.26563,9.03459,9.03459,0,0,1-.09954,3.12207,36.71564,36.71564,0,0,1-1.4925,5.04785c-.233.68848-.47735,1.55029-.66449,2.27637a13.07889,13.07889,0,0,0-.37286,2.13818,6.23021,6.23021,0,0,0,.17157,1.99853,20.26,20.26,0,0,0,.72565,2.207,26.55194,26.55194,0,0,1,.8753,2.52587,13.948,13.948,0,0,1,.41577,2.7295,27.522,27.522,0,0,1-.26764,5.248l-.66687-.97851c.74958.25781,1.36988.55566,2.009.75439a3.75292,3.75292,0,0,0,1.69171.24414c1.33386-.33886,2.77606-.73388,4.19977-1.02343a37.129,37.129,0,0,1,8.71484-.51661l.52393.02051.1109.53711a25.18544,25.18544,0,0,0,1.2987,4.08106c.26361.67187.56153,1.33154.87189,1.98047l.23718.48291.121.23925c.03277.07617.01458-.00439-.01093-.03857a.22483.22483,0,0,0-.04492-.04932l.01886.0083a5.21519,5.21519,0,0,0,.74969.36182,20.98558,20.98558,0,0,0,2.006.66846l1.03515.28125.4975.11865c.00934,0,.137.03271.02167-.00342-.057-.02148-.18219-.00635-.11982-.0166l.16279-.03857a38.04308,38.04308,0,0,0,3.98352-1.38721l.21789-.09424.1507-.0791.52606-.26953a10.666,10.666,0,0,1,1.09241-.50928,9.00584,9.00584,0,0,1,2.5205-.70361,7.96731,7.96731,0,0,1,2.67579.19922,6.9731,6.9731,0,0,0,1.80456.19091,8.95649,8.95649,0,0,0,1.77637-.3042c.30316-.05908.62543-.1914.93719-.2832a3.3691,3.3691,0,0,1,1.00122-.21582c.31568-.00635.57221.0044.77222.02,1.64734.13135,3.06458.36182,4.56421.61035.74408.12744,1.47339.25586,2.24927.418l.30645.06738c.12916.03369.16553.03223.39161.10205l.58056.1919,1.04407.34424c1.41119.4707,2.80176.92041,4.27118,1.48584l.5849.2417c.09778.0415.2027.08691.34717.16162l.19836.10156a3.38508,3.38508,0,0,1,.45337.313l.892.82617,1.60767,1.46338c1.08007.97217,2.17846,1.92724,3.26824,2.86181a14.30653,14.30653,0,0,0,3.02759,2.25293c1.2984.61866,2.60413,1.17481,3.87091,1.66065a8.70329,8.70329,0,0,0,3.2948.77685,4.16132,4.16132,0,0,0,1.421-.42382c.6189-.27295,1.38031-.6211,2.1615-.90869l-1.03821.83593a29.80262,29.80262,0,0,1,2.19318-2.87451c.75952-.88818,1.43134-1.67041,2.05847-2.53223l.4657-.65039a4.12536,4.12536,0,0,1,.36029-.44384,3.40639,3.40639,0,0,1,.34015-.3003,5.73284,5.73284,0,0,1,.51331-.356,17.68416,17.68416,0,0,1,1.681-.89209l1.59167-.71729.75324-.3335.40478-.18945a3.14586,3.14586,0,0,1,.39935-.14844c.106-.02832.14533-.03076.22156-.04589a3.00881,3.00881,0,0,1,.36371-.04932,13.96545,13.96545,0,0,1,1.95276.02051l1.74213.14013c.55828.04346,1.16992.12647,1.56311.13184q.82443.01466,1.64044-.00684a21.29137,21.29137,0,0,0,6.308-1.00488l-.46277.36719c1.29743-1.59815,2.6297-3.1709,3.961-4.74463,1.32733-1.57617,2.65393-3.15283,4.02289-4.69873l.34363.25c-1.0517,1.77734-2.14582,3.52344-3.23914,5.27-1.08941,1.75-2.17785,3.5-3.30108,5.2251l-.13477.207-.32837.16015a21.70986,21.70986,0,0,1-6.94623,1.88379c-.588.07325-1.17523.13086-1.76043.17676-.74219.05176-1.264.01758-1.83942.01465l-1.66071-.0083a11.13253,11.13253,0,0,0-1.45019.085c-.05768.00635-.0567.01562-.0567.01562.00695-.00048-.02484.00538.01336-.00293a.78963.78963,0,0,0,.20044-.07275.54272.54272,0,0,0,.06568-.03906l-.067.03955-.13477.07861-.21612.12012-.77558.4165-1.46038.79493c-.46509.26269-.93933.53173-1.28687.77636a1.73929,1.73929,0,0,0-.17847.13965c.01368-.00683-.04473.0415.02247-.01807a.6818.6818,0,0,0,.0979-.11474.412.412,0,0,0,.027-.04444l-.02984.04737-.48486.76269c-.65491,1.01368-1.41236,1.999-2.082,2.87452-.67212.87548-1.24414,1.72363-1.81982,2.62646l-.35706.56006-.68145.27588c-.59339.24072-1.16388.51953-1.88123.86279a8.52192,8.52192,0,0,1-2.7785.85449,8.81385,8.81385,0,0,1-2.90229-.2041,19.67837,19.67837,0,0,1-2.39434-.69824c-1.488-.54883-2.88062-1.17529-4.2392-1.82178l-.51251-.24072a6.64619,6.64619,0,0,1-.76386-.45606c-.4021-.27441-.70221-.51611-1.02166-.76757-.62073-.49561-1.18842-.98829-1.76239-1.48487-1.12916-.999-2.20942-2.023-3.28925-3.05029l-1.60913-1.55957-.70123-.69971a1.06412,1.06412,0,0,0,.12988.10254c.03143.02393.12915.07471.09448.05713l-.04706-.02441a1.29377,1.29377,0,0,0-.15069-.07569l-.42951-.19336c-1.25989-.53613-2.64886-1.0581-4.01123-1.5708-.6723-.2334-1.46362-.58838-1.86932-.666-.65882-.16553-1.37354-.32178-2.07471-.47071-1.39325-.28662-2.87457-.58886-4.15515-.76025l-.32935-.03711c.5705-.10107.057-.02051-.07055.03369-.39881.09766-.76966.22412-1.19263.292a10.84356,10.84356,0,0,1-2.59289.24707,10.40946,10.40946,0,0,1-2.55066-.44775,5.53285,5.53285,0,0,0-1.68695-.30176,6.004,6.004,0,0,0-1.75446.32471,8.2439,8.2439,0,0,0-.94556.33545l-.47784.189-.35553.14014-.29974.09668a39.84643,39.84643,0,0,1-4.48542,1.08887c-.09668.0166-.23993.03174-.38293.0415a1.86963,1.86963,0,0,1-.3949-.01416,1.07937,1.07937,0,0,1-.24756-.05762l-.56207-.18994-1.065-.398c-.70526-.27783-1.40186-.56787-2.11432-.91162a5.43167,5.43167,0,0,1-1.163-.72607,1.67237,1.67237,0,0,1-.37561-.50733l-.10925-.26269-.2113-.52539c-.27472-.70117-.52478-1.40821-.77375-2.11524a28.17514,28.17514,0,0,1-1.17736-4.38281l.63458.55762c-1.4151-.07959-2.82752-.1167-4.22815-.06494a22.58318,22.58318,0,0,0-4.14392.54834,37.76793,37.76793,0,0,0-4.09027,1.18994,5.08332,5.08332,0,0,1-2.53528-.124c-.7392-.1875-1.45-.42285-2.071-.57519l-.70208-.17236.035-.80664a22.21567,22.21567,0,0,0-.24024-4.81006,11.50763,11.50763,0,0,0-.58929-2.19873c-.24817-.64844-.64453-1.38623-1.024-2.13623a18.599,18.599,0,0,1-1.09954-2.48487,9.617,9.617,0,0,1-.52875-2.96875,13.05994,13.05994,0,0,1,.28558-2.84765c.185-.91114.35571-1.67774.60742-2.59668a45.56753,45.56753,0,0,0,1.29669-4.625,6.94023,6.94023,0,0,0,.10285-1.88965,1.95448,1.95448,0,0,0-.52521-1.18213c.053.01953-.11828-.10059-.40881-.20654-.28485-.1084-.63605-.21436-1.02954-.31934a12.25166,12.25166,0,0,1-2.82032-.98926,3.51117,3.51117,0,0,1-.967-.81006,2.91632,2.91632,0,0,1-.62347-1.37988,5.07329,5.07329,0,0,1,.08154-1.88965,13.37938,13.37938,0,0,1,.94623-2.76123l.11768-.2622.16736-.1753a26.96305,26.96305,0,0,1,3.46563-3.06689c1.21161-.9126,2.39917-1.72461,3.49488-2.60108.54266-.44287,1.08844-.87988,1.60217-1.35449a10.41177,10.41177,0,0,0,1.3056-1.33594,1.03653,1.03653,0,0,0,.11572-.2207c.00361-.01562.01325-.03223.0152-.04785.00592-.00684.0072-.07764.00629.07324a.52826.52826,0,0,0,.02722.12695l.00067-.001c.00513.00439.00641-.00488-.0086-.03809a7.62,7.62,0,0,0-.42493-.84424l-.5448-.94873-.2829-.50488a3.21775,3.21775,0,0,1-.32263-.75342l-.19238-.64892.62256-.2583q3.22586-1.33814,6.50878-2.562Z"/><g class="f8a9fce0-0da5-4af2-a9d3-d5adcadee061"><polygon class="fd06f0bc-3ecc-4dcd-8c4a-2f52e3f28fda" points="209.791 146.939 225.015 161.483 240.694 152.783 209.791 146.939"/><polygon class="fd06f0bc-3ecc-4dcd-8c4a-2f52e3f28fda" points="152.165 70.602 181.745 78.608 172.995 60.849 152.165 70.602"/><polygon class="fd06f0bc-3ecc-4dcd-8c4a-2f52e3f28fda" points="164.969 151.759 173.626 141.782 148.725 148.725 164.969 151.759"/><polygon class="fd06f0bc-3ecc-4dcd-8c4a-2f52e3f28fda" points="250.272 84.262 236.826 102.926 253.07 91.407 250.272 84.262"/></g><path class="f92e756a-d66d-4404-ad4e-b33242a66e2f" d="M24.33167,160.43952c1.679.6923,3.49519,1.29493,5.418,2.038,2.75128,1.06326,5.6518,2.23487,7.35746,4.4988,1.02729,1.36354,1.54671,3.04152,2.75528,4.27108,3.82275,3.88913,11.60047,1.03715,15.948,4.421,1.246.96979,2.05214,2.35845,3.31623,3.30792,3.244,2.43659,8.16,1.14734,11.63835-.99416s6.58047-5.08127,10.64927-5.9567a6.91806,6.91806,0,0,0,5.19572,1.5309,32.97053,32.97053,0,0,1,11.29126-9.547c2.88645-1.57984,9.50811-5.32715,10.18958-8.7032-.36759,1.82108,2.34531,3.38663,4.30067,2.93088s3.16785-2.08479,4.22911-3.61064c4.68134-6.73068,9.54312-14.45773,7.24338-22.69176-2.30176-8.24125-11.10456-14.05882-19.76348-17.48607a110.01712,110.01712,0,0,0-29.32443-6.67277c-14.37045-1.47312-28.90966-1.05081-42.3054,2.53174-6.89086,1.84289-13.70525,4.70258-17.8129,9.93444-4.03919,5.14465-6.93265,14.375-4.5773,21.06268a58.3889,58.3889,0,0,0,7.19694,13.93809A14.9262,14.9262,0,0,0,24.33167,160.43952Z"/><g class="e15fb1fa-3d29-42f0-b05c-1ef1691e76ea"><path class="b12ac34e-4340-4d8d-976c-54b932a79223" d="M9.35207,139.691s6.65379,25.0998,8.69229,26.37157,19.939,2.31015,19.939,2.31015l-5.03251-24.73386S14.80183,135.957,9.35207,139.691Z"/><polygon class="b12ac34e-4340-4d8d-976c-54b932a79223" points="53.973 174.583 45.182 138.083 59.371 146.047 57.413 184.122 53.973 174.583"/><path class="b12ac34e-4340-4d8d-976c-54b932a79223" d="M73.46593,180.29779c.12741-.5,6.62511-36.659,6.62511-36.659L81.49251,177.127Z"/><polygon class="b12ac34e-4340-4d8d-976c-54b932a79223" points="86.334 176.491 95.125 140.881 108.375 144.188 107.738 158.686 86.334 176.491"/></g><path class="bcfea45c-4c19-4a2f-a2cd-b7468dc37c36" d="M121.78384,95.6281c-3.88233-2.0021-4.5158-3.71313-3.176-7.73063,1.47472-4.422-1.08257-5.25186-3.63452-8.45076a3.8497,3.8497,0,0,0-1.66274-1.41308c-1.08631-.356-2.431.26608-3.34533-.42011-.79375-.59572-.73371-1.8144-.38843-2.74483a7.29764,7.29764,0,0,0,.84674-2.82633c-.1244-2.20348-2.90095-3.03494-5.09342-3.28766a17.34713,17.34713,0,0,0-5.31634-.0636c-1.7892.3513-3.42234,1.257-5.184,1.72746-5.71113,1.52527-11.5255-1.669-17.39849-2.341C72.366,67.498,67.485,70.02326,62.96717,67.46806c-4.50651-2.5488-9.03677-4.76708-14.2915-5.20143a7.55545,7.55545,0,0,0-3.94859.4919c-1.59014.77258-2.61787,2.39312-3.74233,3.80571a21.01124,21.01124,0,0,1-18.526,7.82881c-1.85177-.21448-3.73674-.68471-5.5522-.245s-3.533,2.20563-3.1772,4.12942c.90174,4.87287,4.64915,3.59222,1.068,7.45143-1.22856,1.324-3.27976,1.03315-4.13837,3.09067-.30183.72329.12273,4.59652.35125,4.30478-2.2324,2.85-5.43647,4.73454-7.59568,7.64629s-2.81644,7.741.02443,9.91066c.8121.62023,1.81619.94171,2.56793,1.64068,2.0121,1.87086-1.22456,10.2617-1.67174,12.78759a6.50228,6.50228,0,0,0-.10884,2.4878,6.62521,6.62521,0,0,0,.761,1.76655c1.44179,2.61387,2.67059,4.54165,2.94134,7.45468.161,1.73222-.07708,5.29221,1.42336,6.58073,1.85971,1.597,4.58209.69851,6.97623.51007,7.92294-.62359,14.72172,7.43512,22.64151,6.76879,2.16545-.18219,4.23149-1.02,6.37518-1.39005,6.3696-1.09942,16.40854.98423,21.59949,5.04025,3.616,2.8256,7.5,7.30518,11.78134,8.92052,3.18694,1.202,7.37257.53518,10.56367-.39345,3.95614-1.15125,3.07192-1.13438,5.30419-4.5364,2.53183-3.85855,4.71968-4.36411,9.208-4.8842,3.6371-.42144,7.42-.92853,10.47731-3.04318,3.40066-2.35252,6.05309-6.43209,8.55038-9.67946,2.87661-3.7406,1.14574-7.3354-1.2865-11.07132a35.25916,35.25916,0,0,1,7.61923-8.89005,1.07419,1.07419,0,0,0,.41146-.52229,1.05518,1.05518,0,0,0-.07325-.56369c-1.52218-4.71483-3.3537-9.033-3.23947-13.92119C126.3476,102.033,125.37489,97.48,121.78384,95.6281Z"/><path class="b482427e-7d6d-4d4f-85cd-91026654157b" d="M20.94177,87.20567Q17.97839,89.07335,14.965,90.84l.43006-.90674c-.03119-.13086.09521.11963.18365.21778l.316.41552.679.87549a7.385,7.385,0,0,1,.6958,1.043,1.49178,1.49178,0,0,1,.09607.21533l.047.12793a1.55869,1.55869,0,0,1,.049.26221,1.58438,1.58438,0,0,1,.00054.34619c-.00408.07568-.01776.14844-.02813.22315a3.04832,3.04832,0,0,1-.2602.80712,10.588,10.588,0,0,1-1.50512,2.023c-.50653.57618-1.03577,1.13477-1.58991,1.66211-1.11133,1.0503-2.2716,1.99366-3.32568,2.937a31.84666,31.84666,0,0,0-2.92432,2.95118l.28485-.4375a10.21156,10.21156,0,0,0-.57653,2.03076,1.66863,1.66863,0,0,0-.017.61279c.029.02246-.06049-.1792-.10913-.25049-.07019-.08105-.053-.061.01214-.03271a11.2486,11.2486,0,0,0,1.95532.56836,14.36707,14.36707,0,0,1,1.38434.396,4.61632,4.61632,0,0,1,1.7616,1.02881,5.73708,5.73708,0,0,1,1.65179,3.26563,9.03459,9.03459,0,0,1-.09954,3.12207,36.71564,36.71564,0,0,1-1.4925,5.04785c-.233.68848-.47735,1.55029-.66449,2.27637a13.07889,13.07889,0,0,0-.37286,2.13818,6.23021,6.23021,0,0,0,.17157,1.99853,20.26,20.26,0,0,0,.72565,2.207,26.55474,26.55474,0,0,1,.8753,2.52587,13.948,13.948,0,0,1,.41577,2.7295,27.522,27.522,0,0,1-.26764,5.248l-.66687-.97851c.74958.25781,1.36988.55566,2.009.75439a3.75292,3.75292,0,0,0,1.69171.24414c1.33386-.33886,2.77606-.73388,4.19977-1.02343a37.129,37.129,0,0,1,8.71484-.51661l.52393.02051.1109.53711a25.18544,25.18544,0,0,0,1.2987,4.08106c.26361.67187.56153,1.33154.87189,1.98047l.23718.48291.121.23925c.03277.07617.01458-.00439-.01093-.03857a.22483.22483,0,0,0-.04492-.04932l.01886.0083a5.21519,5.21519,0,0,0,.74969.36182,20.98558,20.98558,0,0,0,2.006.66846l1.03515.28125.4975.11865c.00934,0,.137.03271.02167-.00342-.057-.02148-.18219-.00635-.11982-.0166l.16279-.03857a38.04308,38.04308,0,0,0,3.98352-1.38721l.21789-.09424.1507-.0791.52606-.26953a10.666,10.666,0,0,1,1.09241-.50928,9.00584,9.00584,0,0,1,2.5205-.70361,7.96731,7.96731,0,0,1,2.67579.19922,6.9731,6.9731,0,0,0,1.80456.19091,8.95649,8.95649,0,0,0,1.77637-.3042c.30316-.05908.62543-.1914.93719-.2832a3.3691,3.3691,0,0,1,1.00122-.21582c.31568-.00635.57221.0044.77222.02,1.64734.13135,3.06458.36182,4.56421.61035.74408.12744,1.47339.25586,2.24927.418l.30645.06738c.12916.03369.16553.03223.39161.10205l.58056.1919,1.04407.34424c1.41119.4707,2.80176.92041,4.27118,1.48584l.5849.2417c.09778.0415.2027.08691.34717.16162l.19836.10156a3.38508,3.38508,0,0,1,.45337.313l.892.82617,1.60767,1.46338c1.08007.97217,2.17846,1.92724,3.26824,2.86181a14.30653,14.30653,0,0,0,3.02759,2.25293c1.2984.61866,2.60413,1.17481,3.87091,1.66065a8.70329,8.70329,0,0,0,3.2948.77685,4.16132,4.16132,0,0,0,1.421-.42382c.6189-.27295,1.38031-.6211,2.1615-.90869l-1.03821.83593a29.80262,29.80262,0,0,1,2.19318-2.87451c.75952-.88818,1.43134-1.67041,2.05847-2.53223l.4657-.65039a4.12536,4.12536,0,0,1,.36029-.44384,3.40639,3.40639,0,0,1,.34015-.3003,5.7314,5.7314,0,0,1,.51331-.356,17.68416,17.68416,0,0,1,1.681-.89209l1.59167-.71729.75324-.3335.40478-.18945a3.14586,3.14586,0,0,1,.39935-.14844c.106-.02832.14533-.03076.22156-.04589a3.00881,3.00881,0,0,1,.36371-.04932,13.96545,13.96545,0,0,1,1.95276.02051l1.74213.14013c.55828.04346,1.16992.12647,1.56311.13184q.82443.01466,1.64044-.00684a21.29137,21.29137,0,0,0,6.308-1.00488l-.46277.36719c1.29743-1.59815,2.6297-3.1709,3.961-4.74463,1.32733-1.57617,2.65393-3.15283,4.02289-4.69873l.34363.25c-1.0517,1.77734-2.14582,3.52344-3.23914,5.27-1.08942,1.75-2.17786,3.5-3.30108,5.2251l-.13477.207-.32837.16015a21.70986,21.70986,0,0,1-6.94623,1.88379c-.588.07325-1.17523.13086-1.76043.17676-.74219.05176-1.264.01758-1.83942.01465l-1.66071-.0083a11.13253,11.13253,0,0,0-1.45019.085c-.05768.00635-.0567.01562-.0567.01562.007-.00048-.02485.00538.01336-.00293a.78963.78963,0,0,0,.20044-.07275.54272.54272,0,0,0,.06568-.03906l-.067.03955-.13477.07861-.21612.12012-.77558.4165-1.46038.79493c-.46509.26269-.93933.53173-1.28687.77636a1.73929,1.73929,0,0,0-.17847.13965c.01368-.00683-.04473.0415.02247-.01807a.6818.6818,0,0,0,.0979-.11474.412.412,0,0,0,.027-.04444l-.02984.04737-.48487.76269c-.6549,1.01368-1.41235,1.999-2.082,2.87452-.67212.87548-1.24414,1.72363-1.81982,2.62646l-.35706.56006-.68145.27588c-.59339.24072-1.16388.51953-1.88123.86279a8.52192,8.52192,0,0,1-2.7785.85449,8.81385,8.81385,0,0,1-2.90229-.2041,19.67837,19.67837,0,0,1-2.39434-.69824c-1.488-.54883-2.88062-1.17529-4.2392-1.82178l-.51251-.24072a6.64619,6.64619,0,0,1-.76386-.45606c-.4021-.27441-.70221-.51611-1.02167-.76757-.62072-.49561-1.18841-.98829-1.76239-1.48487-1.12915-.999-2.20941-2.023-3.28924-3.05029l-1.60913-1.55957-.70123-.69971a1.06412,1.06412,0,0,0,.12988.10254c.03143.02393.12915.07471.09448.05713l-.04706-.02441a1.29377,1.29377,0,0,0-.15069-.07569l-.42951-.19336c-1.25989-.53613-2.64886-1.0581-4.01123-1.5708-.6723-.2334-1.46362-.58838-1.86932-.666-.65882-.16553-1.37354-.32178-2.07471-.47071-1.39325-.28662-2.87457-.58886-4.15515-.76025l-.32935-.03711c.5705-.10107.057-.02051-.07055.03369-.39881.09766-.76966.22412-1.19263.292a10.84359,10.84359,0,0,1-2.5929.24707,10.40946,10.40946,0,0,1-2.55065-.44775,5.53285,5.53285,0,0,0-1.687-.30176,6.004,6.004,0,0,0-1.75446.32471,8.2439,8.2439,0,0,0-.94556.33545l-.47784.189-.35553.14014-.29974.09668a39.84643,39.84643,0,0,1-4.48542,1.08887c-.09668.0166-.23993.03174-.38293.0415a1.86963,1.86963,0,0,1-.3949-.01416,1.07937,1.07937,0,0,1-.24756-.05762l-.56207-.18994-1.065-.398c-.70526-.27783-1.40186-.56787-2.11432-.91162a5.43167,5.43167,0,0,1-1.163-.72607,1.67237,1.67237,0,0,1-.37561-.50733l-.10925-.26269-.2113-.52539c-.27472-.70117-.52478-1.40821-.77375-2.11524a28.17514,28.17514,0,0,1-1.17736-4.38281l.63458.55762c-1.4151-.07959-2.82752-.1167-4.22815-.06494a22.58318,22.58318,0,0,0-4.14392.54834,37.76793,37.76793,0,0,0-4.09027,1.18994,5.08332,5.08332,0,0,1-2.53528-.124c-.7392-.1875-1.44995-.42285-2.071-.57519l-.70208-.17236.035-.80664a22.21567,22.21567,0,0,0-.24024-4.81006,11.50763,11.50763,0,0,0-.58929-2.19873c-.24817-.64844-.64453-1.38623-1.024-2.13623A18.60032,18.60032,0,0,1,8.662,126.71446a9.61726,9.61726,0,0,1-.52874-2.96875,13.05994,13.05994,0,0,1,.28558-2.84765c.185-.91114.35571-1.67774.60742-2.59668a45.56753,45.56753,0,0,0,1.29669-4.625,6.94023,6.94023,0,0,0,.10285-1.88965,1.95448,1.95448,0,0,0-.52521-1.18213c.053.01953-.11828-.10059-.40881-.20654-.28485-.1084-.63605-.21436-1.02954-.31934a12.25166,12.25166,0,0,1-2.82032-.98926,3.51117,3.51117,0,0,1-.967-.81006,2.91632,2.91632,0,0,1-.62347-1.37988,5.07308,5.07308,0,0,1,.08154-1.88965,13.37938,13.37938,0,0,1,.94623-2.76123l.11768-.2622.16736-.1753A26.96305,26.96305,0,0,1,8.83,98.74425c1.21161-.9126,2.39917-1.72461,3.49488-2.60108.54266-.44287,1.08844-.87988,1.60217-1.35449a10.41177,10.41177,0,0,0,1.3056-1.33594,1.03653,1.03653,0,0,0,.11572-.2207c.00361-.01562.01325-.03223.0152-.04785.00592-.00684.0072-.07764.00629.07324a.52826.52826,0,0,0,.02722.12695l.00067-.001c.00513.00439.00641-.00488-.0086-.03809a7.62,7.62,0,0,0-.42493-.84424l-.5448-.94873-.2829-.50488a3.21775,3.21775,0,0,1-.32263-.75342l-.19238-.64892.62256-.2583q3.22586-1.33814,6.50878-2.562Z"/><g class="aaa40258-41b7-4ed9-8ebc-4660383c8743"><polygon class="fd06f0bc-3ecc-4dcd-8c4a-2f52e3f28fda" points="76.754 146.939 91.977 161.483 107.656 152.783 76.754 146.939"/><polygon class="fd06f0bc-3ecc-4dcd-8c4a-2f52e3f28fda" points="19.127 70.602 48.708 78.608 39.958 60.849 19.127 70.602"/><polygon class="fd06f0bc-3ecc-4dcd-8c4a-2f52e3f28fda" points="31.932 151.759 40.589 141.782 15.687 148.725 31.932 151.759"/><polygon class="fd06f0bc-3ecc-4dcd-8c4a-2f52e3f28fda" points="117.235 84.262 103.789 102.926 120.033 91.407 117.235 84.262"/></g></g><rect class="b76afcd3-11f7-4d05-8fc3-3fc13a31d413" x="0.59763" width="530.04255" height="298.14894"/></svg>