<svg id="ea56771f-6ba8-4663-bafd-a15e0b1e9003" data-name="Layer 1" xmlns="http://www.w3.org/2000/svg" xmlns:xlink="http://www.w3.org/1999/xlink" viewBox="0 0 530.04255 298.14894"><defs><style>.a0e63de5-1c07-40f9-a845-d2945acfdad3,.b648c193-ae38-4306-b235-35e1b386e8d3{fill:none;}.a765718b-a47e-43ac-9a71-e33f30a38665{clip-path:url(#ba9067c2-7bce-45aa-9c9b-55f563949c74);}.a7245597-3a3e-43b0-8d68-574469364f7a{fill:#decda8;}.f5f88ebe-617d-4c02-a5e1-dd6c8e7f2b9a{fill:#6d6e71;}.b648c193-ae38-4306-b235-35e1b386e8d3{stroke:#bcbec0;stroke-miterlimit:10;stroke-width:8px;stroke-dasharray:25 8.076;}.e5829ec4-5437-4864-8d6f-118955c61be6{fill:#d5bdab;}.baba6417-6d25-453a-98a2-e5bddb169943{fill:#f6dac6;}.edb35432-8a95-484a-958c-25d7d30bb913{clip-path:url(#be2bc372-2988-419a-b622-c36d8d7fe62d);}.a8b93cce-ec0e-4fd0-879f-adcab99399ee{fill:#aa8b75;}.f3e7e8dc-5874-4d5a-97d2-86ec27ef6070{fill:#916f59;}.a73e720f-dde7-4bbf-8621-1bb60d0cfd28{fill:#c59f74;}.a002a566-f8f7-46c3-aed4-a3ecdf6dba85{fill:#ddc09b;}</style><clipPath id="ba9067c2-7bce-45aa-9c9b-55f563949c74"><rect class="a0e63de5-1c07-40f9-a845-d2945acfdad3" width="530.04255" height="298.14894"/></clipPath><clipPath id="be2bc372-2988-419a-b622-c36d8d7fe62d"><polygon class="a0e63de5-1c07-40f9-a845-d2945acfdad3" points="551.313 179.432 482.632 157.036 332.505 179.432 235.483 165.287 110.377 179.432 -22.468 179.432 -22.468 63.178 39.909 63.178 97.1 45.645 183.398 63.178 292.675 63.178 398.888 56.843 472.419 63.178 551.313 63.178 551.313 179.432"/></clipPath></defs><title>Artboard 71</title><g class="a765718b-a47e-43ac-9a71-e33f30a38665"><rect class="a7245597-3a3e-43b0-8d68-574469364f7a" x="115.94681" y="-115.94681" width="298.14894" height="530.04255" transform="translate(115.94681 414.09574) rotate(-90)"/><polygon class="f5f88ebe-617d-4c02-a5e1-dd6c8e7f2b9a" points="354.097 298.149 180.224 298.149 180.224 194.141 267.16 194.141 354.097 194.141 354.097 298.149"/><line class="b648c193-ae38-4306-b235-35e1b386e8d3" x1="267.16045" y1="298.14894" x2="267.16045" y2="194.14081"/><polygon class="f5f88ebe-617d-4c02-a5e1-dd6c8e7f2b9a" points="354.097 104.008 180.224 104.008 180.224 0 267.16 0 354.097 0 354.097 104.008"/><line class="b648c193-ae38-4306-b235-35e1b386e8d3" x1="267.16045" y1="104.00813" x2="267.16045"/><polygon class="e5829ec4-5437-4864-8d6f-118955c61be6" points="551.313 201.588 482.632 178.396 332.505 201.588 235.483 186.94 110.377 201.588 -22.468 201.588 -22.468 63.801 39.909 63.801 97.1 45.645 183.398 63.801 292.675 63.801 398.888 57.241 472.419 63.801 551.313 63.801 551.313 201.588"/><path class="baba6417-6d25-453a-98a2-e5bddb169943" d="M551.63943,202.04218c-11.27014-3.49829-22.71429-6.884-34.4057-10.30518-11.68914-3.39038-23.59106-7.0227-35.50109-10.677l1.32879.11475c-12.45978,2.26172-24.90863,4.59424-37.3797,6.783L408.282,194.61054c-12.4696,2.19824-24.92639,4.47974-37.4071,6.60571l-37.42823,6.469-.85241.14746-1.01087-.14429L234.442,193.83832l1.85241.03076-125.07824,14.8855-.27173.03223-.56763.0166-33.21118.97339c-5.53516.14648-11.07044.35913-16.60559.45166l-16.60559.29394-33.21118.58814-8.30286.144-8.30274.04883-16.60559.09741-9.79309.05762-.02038-9.87085-.14234-68.89307-.071-34.44653-.02429-34.44653-.00721-10.07471,10.05835.02368,62.37671.14649-2.99682.46435L94.14938,36.35l2.48035-.78052,2.47839.53223c14.37049,3.08594,28.76136,6.074,43.11487,9.24023l43.07923,9.40967-1.90394-.19824,53.7887.42871,26.89917.21509,26.90637.343c1.12207.04248,2.24109-.0127,3.35974-.0791l3.35706-.17017,6.71411-.34033L317.85251,54.27l26.86169-1.36108,53.73755-2.72144.62073-.03149.44324.0459,73.4375,7.61621-.53363-.02393,19.72332.50367c6.57447.14843,13.14893.377,19.72333.59033l39.44672,1.283,3.69647.12011-.066,3.51026c-.44086,23.45874-1.05475,46.82568-1.6477,69.91064l-.92542,34.36621Q551.93775,185.14594,551.63943,202.04218Zm-.65271-.90918-.31665-137.33154.64289.64306-78.89337.09131h-.03217l-.03332-.00293L398.81808,58.02l.11756.00171-53.83069,3.36279-26.91589,1.6814-13.458.84058-6.729.42041-3.36462.2102c-1.12122.0791-2.24268.14771-3.36719.12207l-107.872.0896h-.0979l-.09729-.02026L96.89084,46.64057l.51733-.02588L40.23154,64.81733l-.15674.05h-.166l-62.37671.04614,1.11194-1.11206-.07483,137.78613-1.03711-1.03735,132.84473.24536-.09192.00537,125.10779-14.634.10388-.01221.103.01562,97.01562,14.68384-.22387.00025,150.14636-23.07007.14972-.023.14282.04834C505.56039,185.49262,528.19656,193.28779,550.98672,201.133Z"/><g class="edb35432-8a95-484a-958c-25d7d30bb913"><polygon class="a8b93cce-ec0e-4fd0-879f-adcab99399ee" points="530.043 29.304 0 29.304 0 118 42.973 132.891 113.951 116.058 265.021 138.07 404.505 122.532 477.015 133.538 530.043 118 530.043 29.304"/></g><polygon class="f3e7e8dc-5874-4d5a-97d2-86ec27ef6070" points="97.1 46.645 113.951 117.058 265.021 139.07 183.398 64.178 97.1 46.645"/><path class="a73e720f-dde7-4bbf-8621-1bb60d0cfd28" d="M44.21267,267.57715a.83164.83164,0,0,1-.85607-.49423,6.55579,6.55579,0,0,1-.322-1.0131,7.80357,7.80357,0,0,0-1.20649-1.8954,2.57381,2.57381,0,0,1-.57568-2.10336c-.99565.03508-2.10236.72891-2.89206.12153a1.71555,1.71555,0,0,1-.37524-1.84644,6.32575,6.32575,0,0,0,.55006-1.72612,6.996,6.996,0,0,1-1.14849.48967c-.57541.07141-1.05874-.49218-1.56017-.38886a.83075.83075,0,0,0-.40229.27972l-.934.97885a.54117.54117,0,0,1-.23111.16831c-.31967.08824-.477-.39746-.38781-.71686s.24406-.71081.00549-.94117c-.27814-.26856-.722.01135-1.02118.25622s-.843.40517-.99139.04815l-1.31044.036a.36946.36946,0,0,0-.23794.06231.394.394,0,0,0-.0945.26382,3.114,3.114,0,0,1-1.53485,2.317.63418.63418,0,0,1-.66643.06413.66088.66088,0,0,1-.19476-.304c-.22081-.55949-.20041-1.96609-.53622-2.36772-.35836-.4286-1.61486-.59938-2.16547-.8473a5.69734,5.69734,0,0,0-.65909,3.48124c.0129,1.22914-.97526,2.76381-.9026,3.8036a3.71084,3.71084,0,0,0-2.131-3.0587,7.55994,7.55994,0,0,0,.71322,3.303,3.16633,3.16633,0,0,1-1.12582-1.70472,4.92623,4.92623,0,0,0-.37274,3.05259,1.56742,1.56742,0,0,1,.05355.6199.44408.44408,0,0,1-.4273.38031,2.49679,2.49679,0,0,1-1.51926,1.76024c.0302.4572.72881.36416,1.14031.16264,1.09223-.53488,2.56223-.73074,3.40146.14947a24.502,24.502,0,0,1,2.78925-2.30283l-.47767.26673c3.43843,1.82209,7.3073,3.46231,11.11644,2.6665a2.24156,2.24156,0,0,0-.84092-2.7961,3.45082,3.45082,0,0,0,4.27968.69551l-.28437-.48375c.10789-.62953,1.01266-.70239,1.59546-.44107A6.084,6.084,0,0,0,44.21267,267.57715Z"/><path class="a002a566-f8f7-46c3-aed4-a3ecdf6dba85" d="M30.88485,270.45133a12.68066,12.68066,0,0,0,1.12667-7.37435,10.42321,10.42321,0,0,0,.76841,2.28163,1.58636,1.58636,0,0,0,.60364.7669c.70641.38372,1.49044-.33212,1.976-.97282l.08762,2.64625a7.23367,7.23367,0,0,0,4.36348-1.20535,8.0508,8.0508,0,0,1-5.66137,5.17688.73061.73061,0,0,0-.08264-1.123,1.1419,1.1419,0,0,0-.55419-.14017,10.20541,10.20541,0,0,0-2.62818.49889,2.85288,2.85288,0,0,1-2.54865-.40815c-1.12493-1.03231-.4997-3.06107-1.45244-4.25416a3.01487,3.01487,0,0,0-2.306-.93572c-.85614-.02658-1.71475.11831-2.5674.03664.15125.607.9635.85859,1.12777,1.46219.19335.71049-.653,1.29082-1.38824,1.33033a8.24371,8.24371,0,0,0-2.19548.03873,6.44614,6.44614,0,0,0,3.33267,1.34286,2.95732,2.95732,0,0,1,1.4343.33435c.408.28379.55055.99238.12457,1.24844"/><path class="a73e720f-dde7-4bbf-8621-1bb60d0cfd28" d="M497.42292,198.07851l2.92007-.91029a.75486.75486,0,0,0,.61762.75895,1.97088,1.97088,0,0,0,1.05183-.12845,12.473,12.473,0,0,0,2.90732-1.39853c.33944.89247,1.61794.80136,2.5377.54487l3.78039-1.05422a3.77334,3.77334,0,0,0-.99879,3.59,13.4778,13.4778,0,0,0-7.12645,1.00937,2.75722,2.75722,0,0,0-1.50194,1.20934c-.57056,1.23279.62874,2.517,1.70233,3.34926a9.75039,9.75039,0,0,1-2.42931,1.2843,1.66263,1.66263,0,0,1-.98761.12225c-.81774-.22594-.876-1.45021-.36211-2.12521a12.98544,12.98544,0,0,1,1.97957-1.58447c-.76628-1.17073-2.44231-1.21739-3.83313-1.06325-1.76317.19541-3.53047,4.77778-5.20749,2.17427-1.17056-1.81725,1.48622-5.50308,2.68024-6.58961C495.40087,198.45079,496.47423,198.37425,497.42292,198.07851Z"/><path class="a002a566-f8f7-46c3-aed4-a3ecdf6dba85" d="M499.19948,203.70369c.223.06891.3185-.2658.3505-.497a2.82206,2.82206,0,0,1,1.50063-1.76917,31.18664,31.18664,0,0,1,3.85429-2.0921,8.52333,8.52333,0,0,0-4.12743,1.689c-.41757.32052-.8423.78022-.7474,1.298.05238.28581.2593.52784.29729.81592.07423.56291-.55992,1.01174-1.12632.97214a2.912,2.912,0,0,1-1.4997-.75068.52757.52757,0,0,1-.17919.7871.797.797,0,0,1-.86587-.16308,1.71111,1.71111,0,0,1-.44864-.80907,4.222,4.222,0,0,1,.05984-2.54709,4.95093,4.95093,0,0,1-1.60294,5.17.28285.28285,0,0,1,.25664-.32917,9.19426,9.19426,0,0,0-.52768-3.99244,5.535,5.535,0,0,0,1.64713,1.31556.48556.48556,0,0,0,.41346.06922c.15221-.07027.19251-.264.21371-.43029l.15861-1.24428,1.0848,1.07352a.26826.26826,0,0,0,.47644-.026l2.32672-2.6964c-.41248,1.78744-2.51266,3.04729-2.32692,4.87228,1.70182-1.90851,3.5012-3.8855,5.89584-4.7823a11.23776,11.23776,0,0,0-.35271,1.46453.87032.87032,0,0,0,.01214.47941.90753.90753,0,0,0,.4121.38381l1.56874.93534a10.55434,10.55434,0,0,0-2.45815-.18253.91189.91189,0,0,0-.62119.19176.7903.7903,0,0,0-.0709.83491,2.79966,2.79966,0,0,1,.28588.83485l-1.98035.20225a.84214.84214,0,0,0-.61314.24035c-.13669.18024-.00393.52621.21576.47225"/><path class="a002a566-f8f7-46c3-aed4-a3ecdf6dba85" d="M148.1375,274.64119a16.829,16.829,0,0,1,2.60324-5.72653,1.76689,1.76689,0,0,0,.82477,2.3187,1.5441,1.5441,0,0,0,2.06016-1.17c0,2.63344,1.97842,5.2084,1.14814,7.70753a9.84946,9.84946,0,0,0,4.18024-2.61835,9.59813,9.59813,0,0,0,.51005,1.87778"/><path class="a002a566-f8f7-46c3-aed4-a3ecdf6dba85" d="M144.43742,227.84294a5.38989,5.38989,0,0,1-3.84308-3.0198c.79576-.65735,1.97-.51636,2.93768-.87553s1.55459-1.95933.57767-2.29245a6.62237,6.62237,0,0,0,3.76166,1.26635,2.8581,2.8581,0,0,0,2.22909,3.83165"/></g></svg>