<svg preserveAspectRatio="none" id="b75520c6-9637-4dc5-bd74-43cc47baa008" data-name="Layer 1" xmlns="http://www.w3.org/2000/svg" xmlns:xlink="http://www.w3.org/1999/xlink" viewBox="0 0 530.82734 298.31926"><defs><style>.a1849a84-8e28-4f5b-b50e-bb1d15e39466,.a1dfe54e-2bc0-4ee2-b707-69b1aa8a2250,.a779067b-a2e6-4271-82e4-aebf5a33f7ac,.a7c7f062-4dbb-4d27-a482-990079eb8577,.a7dfcd4d-d427-434d-b162-1b1909303669,.a98152ee-1064-434c-ad6e-86b1072644d1,.bf09d359-f3c4-47c4-8d4c-c77ab1597057,.bff887be-5c52-4813-a54a-ac84f10a979b,.ec30912d-98d6-4f43-9acc-a6a9f45d74ca,.fc488045-f65e-4f79-864c-4f30d36bf005{fill:none;}.b6e72884-b115-4cef-8052-f9be04fc811c{clip-path:url(#a90123ae-150f-4fe0-a225-afe2afb1cb36);}.bba2e59a-c7d0-4c49-aa0b-ccc40c4a5514{fill:url(#bb299be0-cca9-4322-b3cf-6294fec12bdc);}.bff887be-5c52-4813-a54a-ac84f10a979b,.ec30912d-98d6-4f43-9acc-a6a9f45d74ca{stroke:#d1d3d4;}.a1849a84-8e28-4f5b-b50e-bb1d15e39466,.a1dfe54e-2bc0-4ee2-b707-69b1aa8a2250,.a7c7f062-4dbb-4d27-a482-990079eb8577,.bff887be-5c52-4813-a54a-ac84f10a979b,.ec30912d-98d6-4f43-9acc-a6a9f45d74ca{stroke-miterlimit:10;}.bff887be-5c52-4813-a54a-ac84f10a979b{stroke-width:3.09385px;stroke-dasharray:30.93851 15.46926;}.f2ecc5f6-7fae-4a9e-89db-bfc57ae7343b{fill:#ddc09b;}.a48b9774-5163-4fdf-9e66-a04481d17028{clip-path:url(#a1ac0a01-f953-40e9-a242-d27a147eb162);}.affdfc7b-b701-4911-bd98-3393a3efaf9e,.fe6b406a-c217-4576-bfa7-3a4bd44c67c3{fill:#c59f74;}.bd50196a-82a1-44c4-9bd4-9e4d50b5a419{fill:#fbd8b4;}.fe03d0ee-f341-4423-a102-9ab33353dce2{clip-path:url(#bea97b03-49ec-40e9-a9ce-b0ff24189fb9);}.ba921783-91ef-4049-8851-189f8819250b{fill:#6d6e71;}.fe6b406a-c217-4576-bfa7-3a4bd44c67c3{opacity:0.35;}.a1dfe54e-2bc0-4ee2-b707-69b1aa8a2250{stroke:#808285;}.a1849a84-8e28-4f5b-b50e-bb1d15e39466,.a1dfe54e-2bc0-4ee2-b707-69b1aa8a2250,.a779067b-a2e6-4271-82e4-aebf5a33f7ac,.a98152ee-1064-434c-ad6e-86b1072644d1,.bf09d359-f3c4-47c4-8d4c-c77ab1597057,.ec30912d-98d6-4f43-9acc-a6a9f45d74ca,.fc488045-f65e-4f79-864c-4f30d36bf005{stroke-linecap:round;}.a1dfe54e-2bc0-4ee2-b707-69b1aa8a2250,.ec30912d-98d6-4f43-9acc-a6a9f45d74ca{stroke-width:4.10729px;}.a32d6199-1e13-49e1-ba58-6dc25cd16862{fill:#18a371;}.fc488045-f65e-4f79-864c-4f30d36bf005{stroke:#fff;stroke-width:0.96654px;}.a779067b-a2e6-4271-82e4-aebf5a33f7ac,.a98152ee-1064-434c-ad6e-86b1072644d1,.bf09d359-f3c4-47c4-8d4c-c77ab1597057,.fc488045-f65e-4f79-864c-4f30d36bf005{stroke-linejoin:round;}.bbeced39-61b7-4fb5-a922-0568ca72da8a{fill:#fff;}.a98152ee-1064-434c-ad6e-86b1072644d1,.bf09d359-f3c4-47c4-8d4c-c77ab1597057{stroke:#537435;}.bf09d359-f3c4-47c4-8d4c-c77ab1597057{stroke-width:13.85344px;}.fe4304fa-4b42-4923-ad29-350b7c2cae4a{fill:#537435;}.a98152ee-1064-434c-ad6e-86b1072644d1{stroke-width:11.26646px;}.a1ac15ad-ebb1-4521-bb07-1f1d2c5b6d5a{fill:#678e3d;}.a779067b-a2e6-4271-82e4-aebf5a33f7ac{stroke:#678e3d;stroke-width:3.46336px;}.a7c7f062-4dbb-4d27-a482-990079eb8577{stroke:#bcbec0;stroke-width:2px;stroke-dasharray:8.076 8.07635;}.ad1d8539-c2a0-479d-ab52-8ed09f208491{fill:#e1d3ca;}.bef0ca69-aee1-4f9c-83e1-5f9d23f2f015{clip-path:url(#bba4bfef-fd61-4bb3-81da-8881a40f588d);}.b4a03a66-0932-4d52-b2bf-fe73d2a855ab{fill:#fff0e7;}.a1e667da-e3d3-4ee8-831f-552dba79e5a9{fill:#ef4136;}.a195f08f-6f0c-494e-b31e-a5bdd881cd91{fill:#f37371;}.af95c7a2-5d5d-4804-9d81-c610c70e1139{fill:#603913;}.f3bdb897-3079-4be5-b759-8f7c7df28971{fill:#bcbec0;}.a1849a84-8e28-4f5b-b50e-bb1d15e39466{stroke:#6d6e71;stroke-width:1.26105px;}.b937ea3a-9fcc-43a3-a174-987050d65cd0{fill:#415829;}.faafa79f-3c53-4627-b680-d2c0677c58a3{fill:#dc1f2b;}.a08de839-c510-456e-8ab2-b7ded19eb7a1{clip-path:url(#f6d67379-7dac-402d-8451-fb2e35360a45);}</style><clipPath id="a90123ae-150f-4fe0-a225-afe2afb1cb36"><rect class="a7dfcd4d-d427-434d-b162-1b1909303669" x="0.78478" width="530.04255" height="298.14894"/></clipPath><linearGradient id="bb299be0-cca9-4322-b3cf-6294fec12bdc" x1="265.80606" y1="298.14894" x2="265.80606" gradientTransform="translate(414.88053 -116.73159) rotate(90)" gradientUnits="userSpaceOnUse"><stop offset="0" stop-color="#ddcec8"/><stop offset="0.46324" stop-color="#fbd8b4"/><stop offset="0.70343" stop-color="#fff"/><stop offset="1" stop-color="#d9ecf5"/></linearGradient><clipPath id="a1ac0a01-f953-40e9-a242-d27a147eb162"><path class="a7dfcd4d-d427-434d-b162-1b1909303669" d="M634.76714,194.69725c0-38.49542-240.2542-77.87234-269.3617-77.87234-29.10638,0-187.40425,30.12766-271.40425,77.87234-33.46712,19.02234,121.05458,69.70212,270.383,69.70212S634.76714,233.19267,634.76714,194.69725Z"/></clipPath><clipPath id="bea97b03-49ec-40e9-a9ce-b0ff24189fb9"><path class="a7dfcd4d-d427-434d-b162-1b1909303669" d="M231.60877,220.7808c0-38.49542-143.50494-77.87234-160.891-77.87234-17.38538,0-111.93742,30.12766-162.111,77.87234-19.99007,19.02235,72.30646,69.70213,161.501,69.70213S231.60877,259.27623,231.60877,220.7808Z"/></clipPath><clipPath id="bba4bfef-fd61-4bb3-81da-8881a40f588d"><rect class="a7dfcd4d-d427-434d-b162-1b1909303669" x="-72.9962" y="186.99024" width="140.05738" height="76.5486" transform="translate(-1.56382 -0.01517) rotate(-0.39774)"/></clipPath><clipPath id="f6d67379-7dac-402d-8451-fb2e35360a45"><rect class="a7dfcd4d-d427-434d-b162-1b1909303669" x="1643.22671" y="99.25461" width="530.04255" height="298.14894"/></clipPath></defs><title>Artboard 24</title><g class="b6e72884-b115-4cef-8052-f9be04fc811c"><rect class="bba2e59a-c7d0-4c49-aa0b-ccc40c4a5514" x="116.73159" y="-115.94681" width="298.14894" height="530.04255" transform="translate(116.73159 414.88053) rotate(-90)"/><line class="bff887be-5c52-4813-a54a-ac84f10a979b" x1="-18.33924" y1="282.53346" x2="530.82734" y2="282.53346"/><path class="f2ecc5f6-7fae-4a9e-89db-bfc57ae7343b" d="M633.61821,194.69725c0-38.49542-240.2542-77.87234-269.3617-77.87234-29.10639,0-187.40426,30.12766-271.40426,77.87234-33.46712,19.02234,121.05458,69.70212,270.383,69.70212S633.61821,233.19267,633.61821,194.69725Z"/><g class="a48b9774-5163-4fdf-9e66-a04481d17028"><ellipse class="affdfc7b-b701-4911-bd98-3393a3efaf9e" cx="478.51183" cy="156.54754" rx="76.85106" ry="55.9354"/><path class="bd50196a-82a1-44c4-9bd4-9e4d50b5a419" d="M387.61821,150.71852c-5.3617-28.7234-23.74028-43.18939-177.95219-2.73291-40.12158,10.52563,115.47051-46.32645,156.24636-47.86884C400.065,98.82491,389.882,162.84584,387.61821,150.71852Z"/><path class="affdfc7b-b701-4911-bd98-3393a3efaf9e" d="M440.7244,146.55389c0-18.4635-18.99267-33.43115-42.42089-33.43115a51.40173,51.40173,0,0,0-20.05274,3.98316A20.55721,20.55721,0,0,1,388.448,134.856c.00034,9.16322-5.87892,16.06871-14.26917,19.098-5.02079,1.81274-10.57295,1.41649-15.81885,2.2269-9.14369,1.41257-18.16961,3.75709-25.94391,8.91472-12.51758,8.30425-21.52128,21.87915-21.5213,37.21575,0,26.20258,25.377,47.444,56.68067,47.444,31.3042,0,56.68115-21.24139,56.68115-47.444a41.75785,41.75785,0,0,0-8.68018-25.22046C430.39481,171.878,440.7244,160.16864,440.7244,146.55389Z"/><rect class="affdfc7b-b701-4911-bd98-3393a3efaf9e" x="400.09798" y="123.06922" width="230.55319" height="153.95745"/></g><path class="f2ecc5f6-7fae-4a9e-89db-bfc57ae7343b" d="M230.9225,220.7808c0-38.49542-143.50494-77.87234-160.891-77.87234-17.38538,0-111.93743,30.12766-162.111,77.87234-19.99006,19.02235,72.30646,69.70213,161.501,69.70213S230.9225,259.27623,230.9225,220.7808Z"/><g class="fe03d0ee-f341-4423-a102-9ab33353dce2"><path class="affdfc7b-b701-4911-bd98-3393a3efaf9e" d="M-1.74349,153.59086s68.65778-35.98307,88.46808-12.383C101.40544,158.69725,42.8271,193.086-4.29669,204.14406L-52.986,181.16533Z"/><path class="bd50196a-82a1-44c4-9bd4-9e4d50b5a419" d="M70.8948,140.56959c-2.29787-.383,24.12766,1.91489,9.57447,21.06383s30.6383,26.42553,52.85107,18,56.29787,21.06383,56.29787,21.06383,26.33637,14.17988,43.02127,15.68728c26.79844,2.42109,48.83574-7.4087,48.12766-7.64473-1.14893-.383-49.15837-60.51064-49.15837-60.51064Z"/></g><ellipse class="bd50196a-82a1-44c4-9bd4-9e4d50b5a419" cx="280.63948" cy="264.02986" rx="308.93617" ry="52.47512"/><rect class="ba921783-91ef-4049-8851-189f8819250b" x="-11.06264" y="267.21432" width="541.88998" height="30.93462"/><path class="fe6b406a-c217-4576-bfa7-3a4bd44c67c3" d="M513.58387,259.53363c-.03424,2.45295-18.60648,4.58042-41.1657,4.26557s-40.56271-2.95278-40.52847-5.40573,17.65618-5.0152,40.2154-4.70035S513.6181,257.08068,513.58387,259.53363Z"/><line class="a1dfe54e-2bc0-4ee2-b707-69b1aa8a2250" x1="442.16008" y1="221.98767" x2="441.67394" y2="256.81981"/><line class="ec30912d-98d6-4f43-9acc-a6a9f45d74ca" x1="441.13325" y1="221.98767" x2="440.64712" y2="256.81981"/><line class="a1dfe54e-2bc0-4ee2-b707-69b1aa8a2250" x1="507.17132" y1="222.895" x2="506.68519" y2="257.72714"/><line class="ec30912d-98d6-4f43-9acc-a6a9f45d74ca" x1="506.1445" y1="222.895" x2="505.65836" y2="257.72714"/><rect class="a32d6199-1e13-49e1-ba58-6dc25cd16862" x="431.27638" y="169.26581" width="86.77749" height="53.22003" rx="1.50746" transform="translate(2.77969 -6.60494) rotate(0.7996)"/><rect class="fc488045-f65e-4f79-864c-4f30d36bf005" x="433.37372" y="171.10099" width="82.58281" height="49.54968" rx="2.75276" transform="translate(2.77969 -6.60494) rotate(0.7996)"/><path class="bbeced39-61b7-4fb5-a922-0568ca72da8a" d="M442.3541,184.177l-.16992-1.92481,2.36523.03321.16992,1.9248-.15039,10.74316-2.36523-.0332Z"/><path class="bbeced39-61b7-4fb5-a922-0568ca72da8a" d="M446.608,184.23657l-.16992-1.92481,2.36524.03321.16992,1.9248-.10352,7.458-2.36523-.0332Z"/><path class="bbeced39-61b7-4fb5-a922-0568ca72da8a" d="M454.61,185.39965q.01758-1.1997-1.084-1.21484l-3.20312-.04492.02539-1.77344,3.84375.05371a2.84264,2.84264,0,0,1,2.06836.77637,3.14985,3.14985,0,0,1,.73047,2.35156l-.08789,6.292-2.38282-.03418Z"/><path class="bbeced39-61b7-4fb5-a922-0568ca72da8a" d="M466.3541,190.41918q-2.0127,1.689-6.18555,1.62989l-.50781-.00684-1.09961-9.56152,2.252.03125.41992,4.06445a1.70914,1.70914,0,0,0,.90039-.97363,6.167,6.167,0,0,0,.24024-1.96777l.01562-1.084,2.25.03125-.01367,1.03516a5.7755,5.7755,0,0,1-.76367,2.92187,4.34405,4.34405,0,0,1-2.45508,1.68262l.20313,1.89258a4.52076,4.52076,0,0,0,3.36914-1.3086,5.05208,5.05208,0,0,0,1.0332-3.3457l.00781-2.875,2.38086.0332-.02148,2.74317A6.27123,6.27123,0,0,1,466.3541,190.41918Z"/><path class="bbeced39-61b7-4fb5-a922-0568ca72da8a" d="M473.04746,187.57934l.34375-1.0957,2.05273.02832-.07812,5.585-2.38086-.0332Zm5.51367-1.8457q.01464-1.19825-1.08594-1.21387l-4.28711-.06055.02539-1.77343,4.92969.06836a2.84588,2.84588,0,0,1,2.06641.77636,3.15274,3.15274,0,0,1,.73046,2.35157l-.08789,6.292-2.38086-.03321Z"/><path class="bbeced39-61b7-4fb5-a922-0568ca72da8a" d="M482.274,190.41918l2.39844.03321.0664-4.74707a1.252,1.252,0,0,0-.209-.84082,1.09384,1.09384,0,0,0-.67774-.32227l-1.14843-.17969.32031-1.7373,2.05078.291a2.16329,2.16329,0,0,1,1.52148.876,3.079,3.079,0,0,1,.50977,1.87988l-.09375,6.5879-4.76367-.06641Z"/><path class="bbeced39-61b7-4fb5-a922-0568ca72da8a" d="M496.16074,183.79418a3.30968,3.30968,0,0,1,.73047,2.39258l-.08789,6.21-2.38086-.0332.08984-6.32422q.01758-1.28173-1.084-1.29687l-2.20118-.03125-.10742,7.60644-2.36523-.0332.11523-8.3125.01563-1.06738,5.209.07226A2.7601,2.7601,0,0,1,496.16074,183.79418Z"/><path class="bbeced39-61b7-4fb5-a922-0568ca72da8a" d="M506.50253,191.43969a3.61621,3.61621,0,0,1-2.998,1.26367,6.51276,6.51276,0,0,1-1.50977-.21777l.24024-1.77148a4.92694,4.92694,0,0,0,1.01562.1455,1.73927,1.73927,0,0,0,1.60352-.7246,4.13934,4.13934,0,0,0,.50781-2.20313,4.66722,4.66722,0,0,0-.418-2.36328,1.5193,1.5193,0,0,0-1.37891-.751,1.63065,1.63065,0,0,0-1.11523.37891,1.75326,1.75326,0,0,0-.58008,1.05957l-1.10742,6.19629-2.36523-.03321,1.22265-6.30859-1.27148-3.07422,2.46484.03418.63086,1.88184a2.9871,2.9871,0,0,1,1.05664-1.50488,2.61741,2.61741,0,0,1,1.584-.4795,3.15594,3.15594,0,0,1,2.6582,1.24512,5.9515,5.9515,0,0,1,.87109,3.65137A5.53335,5.53335,0,0,1,506.50253,191.43969Z"/><polygon class="bbeced39-61b7-4fb5-a922-0568ca72da8a" points="454.587 209.193 480.115 209.55 480.042 214.802 494.405 206.77 480.271 198.341 480.198 203.593 454.671 203.237 454.587 209.193"/><path class="bf09d359-f3c4-47c4-8d4c-c77ab1597057" d="M182.81567,192.83149h7.30677a13.385,13.385,0,0,0,13.385-13.385v-20.7564"/><path class="fe4304fa-4b42-4923-ad29-350b7c2cae4a" d="M181.48929,130.36346h0c4.2312,0,7.69141,3.86077,7.80022,8.7032L191.18713,223.51c.05446,2.42334-.05939,7.69846-.05939,7.69846-1.424,1.76574-14.1482,2.82964-19.43564-.19613,0,0,.04677-5.16239.09936-7.50233l1.8976-84.44335C173.79788,134.22423,177.25809,130.36346,181.48929,130.36346Z"/><path class="a98152ee-1064-434c-ad6e-86b1072644d1" d="M179.70792,178.81205h-5.94231a10.88547,10.88547,0,0,1-10.88547-10.88547V151.04621"/><path class="a1ac15ad-ebb1-4521-bb07-1f1d2c5b6d5a" d="M187.16684,138.90218l-2.64112,4.09631-.06591-2.88171,2.898,3.92065a2.547,2.547,0,0,1,.09619,2.88843l-.02881.04358-2.64112,4.097-.06835-2.98193,2.89794,3.92041a2.635,2.635,0,0,1,.09961,2.98718l-.02978.04505-2.64111,4.09765-.07032-3.08191,2.89746,3.92115a2.721,2.721,0,0,1,.103,3.08581l-.03076.04663-2.64111,4.09778-.07325-3.1825,2.89795,3.92a2.80824,2.80824,0,0,1,.10547,3.18628l-.03174.04809-2.64111,4.09327-.07471-3.28406,2.898,3.92029a2.896,2.896,0,0,1,.10889,3.28442l-.03272.04956-2.64062,4.0957-.07715-3.38342,2.898,3.922a2.98264,2.98264,0,0,1,.11231,3.38232l-.03418.05115L186.075,191.4045l-.07959-3.48353,2.898,3.92151a3.07011,3.07011,0,0,1,.11621,3.48023l-.03467.05261-2.64062,4.10083-.08252-3.58228,2.898,3.92322a3.15834,3.15834,0,0,1,.11963,3.57862l-.03614.05407-2.64062,4.10083-.085-3.68286,2.898,3.92212a3.24466,3.24466,0,0,1,.12256,3.678l-.03663.05566-2.64062,4.10022-.08691-3.783,2.89794,3.92371a3.33141,3.33141,0,0,1,.12745,3.7738l-.0376.05713-2.64063,4.10779-.08935-3.87878,2.89844,3.93017a3.46356,3.46356,0,0,1-5.5752,4.11121c-.00879-.01209-.02832-.03882-.03662-.0509l-2.82666-3.98206-.03613-.05054a3.3849,3.3849,0,0,1-.05323-3.82861l2.71436-4.0592.08984,3.83068L181.37,215.74959l-.03467-.0492a3.29619,3.29619,0,0,1-.05175-3.73413l2.71435-4.05176.08594,3.73328-2.82617-3.974-.03418-.04785a3.209,3.209,0,0,1-.05078-3.63525l2.71435-4.05237.0835,3.63232-2.82617-3.975-.03321-.04663a3.12211,3.12211,0,0,1-.04931-3.536l2.71435-4.05225.08155,3.53259L181.03158,191.52l-.03222-.04528a3.03449,3.03449,0,0,1-.04737-3.43848l2.71436-4.04846.07861,3.4331-2.82617-3.97375-.03125-.04395a2.94666,2.94666,0,0,1-.0459-3.33972l2.71436-4.04724.07617,3.33362-2.82617-3.97217-.03028-.04272a2.85914,2.85914,0,0,1-.04443-3.2417l2.71484-4.0448.07325,3.234-2.82618-3.972-.02929-.04126a2.77259,2.77259,0,0,1-.04395-3.1416l2.71485-4.0492.07177,3.13208-2.82617-3.973-.02881-.04a2.68458,2.68458,0,0,1-.042-3.04223l2.71436-4.0492.06982,3.032-2.82617-3.97216-.02783-.0387a2.59847,2.59847,0,0,1-.041-2.94348l2.71484-4.04859.06739,2.93164-2.82666-3.97253-.02637-.03735a2.50958,2.50958,0,0,1-.03955-2.84461l2.71484-4.04785a2.49167,2.49167,0,0,1,4.16358,2.73792Z"/><path class="a1ac15ad-ebb1-4521-bb07-1f1d2c5b6d5a" d="M209.12045,159.20454q-.78735,1.55073-1.52978,3.12049l-.01026-1.51416,1.311,3.215.03027.07349a1.74217,1.74217,0,0,1-.02051,1.35779l-1.40527,3.1698-.00928-1.39441,1.40869,3.17138a1.75163,1.75163,0,0,1,.00977,1.39551q-.68481,1.59449-1.32861,3.20655l-.00977-1.42469,1.4668,3.14685a1.75954,1.75954,0,0,1,.04834,1.37879l-.0376.09729-1.25586,3.24341-.00488-1.55457,1.52441,3.18481a1.98381,1.98381,0,0,1-.3706,2.24317l-.13379.13574-2.40039,2.44678.71191-1.35645c-.0918,1.09131-.2041,2.17981-.27441,3.27417a2.11982,2.11982,0,0,1-1.13038,1.74341l-.31445.16419-2.91015,1.5227,1.33886-1.29492c-.4126,1.015-.7959,2.04431-1.186,3.07007a2.49332,2.49332,0,0,1-1.897,1.56946l-.50732.08837c-1.08105.18921-2.16406.35413-3.24365.56324l1.99658-.918-2.10059,2.5404a2.88,2.88,0,0,1-2.60742,1.01941l-.79638-.10974c-1.09229-.1499-2.17969-.31665-3.2754-.45276l2.772-.29016c-.917.61279-1.8252,1.244-2.72754,1.88562a4.47085,4.47085,0,1,1-5.18018-7.28833,4.60084,4.60084,0,0,1,1.22168-.61218c1.0542-.33887,2.10352-.68811,3.14307-1.05591l.94531-.33423a2.56812,2.56812,0,0,1,1.82715.04407c1.022.418,2.05225.8053,3.07764,1.20935l-3.40284.90967,2.57032-2.06433.521-.4187a2.26943,2.26943,0,0,1,1.47559-.49939c1.09912.02624,2.19482.00842,3.292.01477l-2.40381,1.65759c.55518-.94653,1.11817-1.88953,1.65137-2.84668l.167-.29932a2.19287,2.19287,0,0,1,1.17188-.99585l3.08984-1.11377-1.44482,1.90735c.23486-1.07116.42675-2.14843.63964-3.22278l.04737-.23962a1.93363,1.93363,0,0,1,.665-1.11706l2.63867-2.18763-.50391,2.37854-1.28613-3.2882-.05078-.12916a1.82046,1.82046,0,0,1,.04541-1.42578l1.47021-3.1521.01075,1.47571-1.34766-3.2-.0293-.07043a1.69519,1.69519,0,0,1,.01953-1.35462q.7207-1.57927,1.39746-3.17712l.00977,1.39514-1.40576-3.173a1.74341,1.74341,0,0,1-.02-1.36866l.01074-.02612,1.32129-3.20581.00977,1.43091-1.50342-3.12964a1.75657,1.75657,0,0,1-.05908-1.38892l.04834-.12548q.62256-1.621,1.19677-3.26282a2.0824,2.0824,0,1,1,3.92969,1.37951A2.29864,2.29864,0,0,1,209.12045,159.20454Z"/><polyline class="a779067b-a2e6-4271-82e4-aebf5a33f7ac" points="166.707 148.889 165.302 151.254 166.668 153.642 165.263 156.003 166.629 158.389 165.224 160.755 166.59 163.145 165.185 165.512 166.55 167.906 165.146 170.305 166.871 171.132 166.173 172.82 167.985 173.03 167.78 174.846 169.565 174.478 170.012 176.245 171.533 175.236 172.597 176.717 173.701 175.256"/><path class="affdfc7b-b701-4911-bd98-3393a3efaf9e" d="M179.304,233.49819a.83165.83165,0,0,1-.85608-.49423,6.55575,6.55575,0,0,1-.322-1.0131,7.804,7.804,0,0,0-1.20649-1.8954,2.57379,2.57379,0,0,1-.57568-2.10336c-.99565.03508-2.10236.72891-2.89206.12152a1.71553,1.71553,0,0,1-.37524-1.84643,6.32607,6.32607,0,0,0,.55-1.72612,6.99585,6.99585,0,0,1-1.14848.48967c-.57542.07141-1.05875-.49218-1.56018-.38886a.83073.83073,0,0,0-.40228.27972l-.934.97885a.54123.54123,0,0,1-.23111.16831c-.31968.08824-.477-.39746-.38782-.71686s.24407-.71081.0055-.94117c-.27815-.26856-.722.01135-1.02119.25622s-.843.40517-.99139.04815l-1.31043.036a.36945.36945,0,0,0-.23794.06231.394.394,0,0,0-.09451.26382,3.114,3.114,0,0,1-1.53485,2.317.63416.63416,0,0,1-.66642.06413.66082.66082,0,0,1-.19477-.304c-.2208-.55949-.20041-1.96609-.53621-2.36772-.35836-.4286-1.61486-.59938-2.16548-.8473a5.69732,5.69732,0,0,0-.65908,3.48124c.0129,1.22914-.97527,2.76381-.90261,3.8036a3.71083,3.71083,0,0,0-2.131-3.0587,7.55994,7.55994,0,0,0,.71322,3.30295,3.16632,3.16632,0,0,1-1.12581-1.70472,4.92616,4.92616,0,0,0-.37275,3.05259,1.567,1.567,0,0,1,.05355.6199.44406.44406,0,0,1-.4273.3803,2.49679,2.49679,0,0,1-1.51926,1.76025c.03021.4572.72881.36416,1.14031.16264,1.09224-.53488,2.56224-.73074,3.40147.14947a24.50187,24.50187,0,0,1,2.78924-2.30283l-.47767.26673c3.43843,1.82209,7.30731,3.46231,11.11644,2.6665a2.24156,2.24156,0,0,0-.84091-2.7961,3.45081,3.45081,0,0,0,4.27967.69551l-.28436-.48375c.10789-.62953,1.01265-.70239,1.59546-.44107A6.084,6.084,0,0,0,179.304,233.49819Z"/><path class="affdfc7b-b701-4911-bd98-3393a3efaf9e" d="M195.79456,230.458l2.92007-.91029a.75485.75485,0,0,0,.61762.75894,1.97092,1.97092,0,0,0,1.05184-.12845,12.47273,12.47273,0,0,0,2.90731-1.39853c.33944.89248,1.61795.80137,2.5377.54488l3.78039-1.05423a3.77335,3.77335,0,0,0-.99879,3.59005,13.47779,13.47779,0,0,0-7.12645,1.00936,2.75727,2.75727,0,0,0-1.50194,1.20934c-.57056,1.23279.62874,2.517,1.70233,3.34927a9.75035,9.75035,0,0,1-2.42931,1.28429,1.66264,1.66264,0,0,1-.98761.12226c-.81774-.22595-.876-1.45022-.36211-2.12521a12.986,12.986,0,0,1,1.97957-1.58448c-.76628-1.17072-2.44231-1.21739-3.83313-1.06324-1.76317.19541-3.53047,4.77778-5.20749,2.17426-1.17056-1.81724,1.48622-5.50308,2.68024-6.5896C193.77251,230.83025,194.84587,230.75371,195.79456,230.458Z"/><path class="f2ecc5f6-7fae-4a9e-89db-bfc57ae7343b" d="M295.04621,227.51479c1.17065.16763,2.49739.561,2.95627,1.65095a.77941.77941,0,0,0,.75829,1.36066c-.12624.52806.4433.98082.97945,1.06641a14.23523,14.23523,0,0,1,1.62055.112c.52276.14665.98564.762.688,1.21609l1.83962-2.5106c.12682-.17307.284-.363.49847-.36927.24994-.00734.42634.23431.647.35194a1.40686,1.40686,0,0,0,.94892.02186c1.7414-.36912,3.51262-.68109,5.22667-1.1447-2.73254-.94-5.84149-2.60106-8.67581-3.11961-3.44082-.62952-6.99135.76495-10.61154.23572A5.19553,5.19553,0,0,0,295.04621,227.51479Z"/><path class="f2ecc5f6-7fae-4a9e-89db-bfc57ae7343b" d="M165.97622,236.37236a12.68061,12.68061,0,0,0,1.12666-7.37434,10.42321,10.42321,0,0,0,.76841,2.28163,1.58641,1.58641,0,0,0,.60364.7669c.70642.38372,1.49044-.33212,1.976-.97283l.08762,2.64626a7.23365,7.23365,0,0,0,4.36348-1.20535,8.0508,8.0508,0,0,1-5.66137,5.17688.73061.73061,0,0,0-.08263-1.123,1.142,1.142,0,0,0-.5542-.14017,10.20557,10.20557,0,0,0-2.62818.49889,2.85286,2.85286,0,0,1-2.54864-.40815c-1.12494-1.03232-.49971-3.06107-1.45244-4.25416a3.01488,3.01488,0,0,0-2.306-.93572c-.85613-.02658-1.71475.11831-2.56739.03664.15125.607.9635.85859,1.12776,1.46219.19335.71049-.653,1.29082-1.38824,1.33033a8.24363,8.24363,0,0,0-2.19547.03873,6.44616,6.44616,0,0,0,3.33266,1.34286,2.95726,2.95726,0,0,1,1.4343.33435c.408.28379.55055.99238.12457,1.24844"/><path class="f2ecc5f6-7fae-4a9e-89db-bfc57ae7343b" d="M197.57112,236.08316c.223.0689.3185-.26581.3505-.497a2.82208,2.82208,0,0,1,1.50063-1.76917,31.18729,31.18729,0,0,1,3.85429-2.09209,8.52331,8.52331,0,0,0-4.12743,1.689c-.41757.32053-.8423.78023-.7474,1.298.05238.28582.2593.52784.29729.81593.07423.5629-.55992,1.01173-1.12632.97214a2.91221,2.91221,0,0,1-1.4997-.75068.52755.52755,0,0,1-.17919.78709.797.797,0,0,1-.86587-.16308,1.71107,1.71107,0,0,1-.44864-.80907,4.222,4.222,0,0,1,.05984-2.54709,4.95093,4.95093,0,0,1-1.60294,5.17.28285.28285,0,0,1,.25664-.32917,9.19411,9.19411,0,0,0-.52768-3.99244,5.53512,5.53512,0,0,0,1.64713,1.31556.48559.48559,0,0,0,.41346.06921c.15221-.07027.19251-.264.21371-.43029l.15861-1.24428,1.0848,1.07353a.26827.26827,0,0,0,.47644-.026l2.32672-2.6964c-.41247,1.78744-2.51266,3.04728-2.32692,4.87227,1.70182-1.9085,3.5012-3.8855,5.89584-4.7823a11.23854,11.23854,0,0,0-.35271,1.46453.87036.87036,0,0,0,.01214.47942.90764.90764,0,0,0,.4121.38381l1.56874.93533a10.55488,10.55488,0,0,0-2.45815-.18253.91189.91189,0,0,0-.62119.19177.79028.79028,0,0,0-.0709.8349,2.79976,2.79976,0,0,1,.28588.83485l-1.98035.20226a.84212.84212,0,0,0-.61314.24035c-.13669.18024-.00392.5262.21576.47224"/><path class="f2ecc5f6-7fae-4a9e-89db-bfc57ae7343b" d="M218.65576,253.27242a16.82909,16.82909,0,0,1,2.60323-5.72653,1.7669,1.7669,0,0,0,.82477,2.31871,1.54411,1.54411,0,0,0,2.06016-1.17c0,2.63344,1.97842,5.2084,1.14815,7.70752a9.84934,9.84934,0,0,0,4.18024-2.61834,9.5976,9.5976,0,0,0,.51,1.87778"/><path class="f2ecc5f6-7fae-4a9e-89db-bfc57ae7343b" d="M96.08441,232.65123a5.38992,5.38992,0,0,1-3.84308-3.01979c.79576-.65735,1.97-.51637,2.93769-.87554s1.55458-1.95933.57767-2.29245a6.62242,6.62242,0,0,0,3.76165,1.26636,2.85811,2.85811,0,0,0,2.22909,3.83165"/><path class="f2ecc5f6-7fae-4a9e-89db-bfc57ae7343b" d="M422.69372,247.92028l3.77317-9.49006a8.01015,8.01015,0,0,0-1.14786,6.43935,1.79939,1.79939,0,0,1,1.13225-.46667l2.40461,7.08219"/><line class="a7c7f062-4dbb-4d27-a482-990079eb8577" x1="530.82734" y1="283.85046" x2="0.78478" y2="282.85046"/><rect class="ad1d8539-c2a0-479d-ab52-8ed09f208491" x="-72.9962" y="186.99024" width="140.05738" height="76.5486" transform="translate(-1.56382 -0.01517) rotate(-0.39774)"/><g class="bef0ca69-aee1-4f9c-83e1-5f9d23f2f015"><rect class="b4a03a66-0932-4d52-b2bf-fe73d2a855ab" x="-48.98942" y="182.21072" width="125.70217" height="99.5182" transform="translate(-1.60996 0.10181) rotate(-0.39774)"/><polygon class="ad1d8539-c2a0-479d-ab52-8ed09f208491" points="43.737 200.711 44.136 258.125 51.857 195.776 43.737 200.711"/><polygon class="ad1d8539-c2a0-479d-ab52-8ed09f208491" points="47.603 204.095 -49.421 212.507 -49.18 204.767 47.603 204.095"/></g><polygon class="a1e667da-e3d3-4ee8-831f-552dba79e5a9" points="43.291 140.303 -49.757 140.949 -72.938 187.475 67.116 186.503 43.291 140.303"/><polygon class="a195f08f-6f0c-494e-b31e-a5bdd881cd91" points="27.461 152.004 -34.249 152.433 -49.918 140.95 42.969 140.305 27.461 152.004"/><polygon class="a1e667da-e3d3-4ee8-831f-552dba79e5a9" points="43.761 204.122 -49.18 204.767 -72.777 187.474 67.116 186.503 43.761 204.122"/><path class="ad1d8539-c2a0-479d-ab52-8ed09f208491" d="M40.68751,280.69388l-83.99569.5831a9.91609,9.91609,0,0,1-8.57365-4.81714l-7.93181-13.23052a9.91609,9.91609,0,0,1,6.98238-14.89723h0a9.916,9.916,0,0,1,7.14978,1.63386l6.51072,4.48739a9.91569,9.91569,0,0,1,1.78483,1.57768l.92305,1.03868a9.916,9.916,0,0,0,6.77261,3.30845l.51118.033a9.91607,9.91607,0,0,1,3.6991.9789l2.06292,1.00379a9.916,9.916,0,0,0,4.47781.99856l37.364-.52431a9.9161,9.9161,0,0,0,5.34746-1.6552l15.174-10.07923a9.91609,9.91609,0,0,1,11.08928.0783l5.91093,4.04774a9.91609,9.91609,0,0,1,.36928,16.0977l-9.72508,7.33668A9.91607,9.91607,0,0,1,40.68751,280.69388Z"/><rect class="af95c7a2-5d5d-4804-9d81-c610c70e1139" x="-17.08683" y="229.5713" width="28.33345" height="51.42468" rx="1.32813" transform="translate(-1.7722 -0.01412) rotate(-0.39774)"/><path class="f3bdb897-3079-4be5-b759-8f7c7df28971" d="M9.74008,229.54585c-3.27539.059-6.55078.07935-9.82617.16992l-9.8252.2992c-1.63769.04761-3.2749.11243-4.9126.13159l-1.18359.02551a.81344.81344,0,0,0-.60889.39624.79451.79451,0,0,0-.10937.351l.00635.56555.022,1.22815c.06885,3.27539.02588,6.55139.04394,9.82715-.03369,6.55175-.19531,13.10449-.16748,19.65588-.01855,3.27588.02784,6.55139.07178,9.82678q.02418,2.45673.0835,4.91309l.0542,2.45654a1.35,1.35,0,0,0,.22754.971.99548.99548,0,0,0,.80175.376c6.55079-.12475,13.10108-.30615,19.65186-.3844l4.91309-.066,1.17236-.01965a.68983.68983,0,0,0,.51758-.33374.679.679,0,0,0,.09472-.29761l-.00439-.55456-.0166-1.22827-.061-9.82691c-.04736-6.55127-.03174-13.103.09863-19.65539l.17139-9.82862c.03809-1.63818.022-3.27588.03174-4.91394l.00635-2.45678a1.59541,1.59541,0,0,0-.25-1.12281A1.26243,1.26243,0,0,0,9.74008,229.54585Zm-.001-.1261a1.40056,1.40056,0,0,1,1.123.54017,1.755,1.755,0,0,1,.30371,1.21228l.04,2.45654c.03271,1.63769.03906,3.27551.1001,4.913l.3081,9.8252c.22119,6.55005.32764,13.101.37159,19.65222l.07519,9.82678.00049,1.22839c-.00391.23133.00879.35022-.0083.67371a1.97016,1.97016,0,0,1-1.77735,1.78162c-.521.01794-.84961.00525-1.28418.0094l-4.91357.00207c-6.55127.01282-13.10352-.07763-19.65527-.11145a1.66714,1.66714,0,0,1-1.3252-.66907,1.98239,1.98239,0,0,1-.32568-1.36389l.02-2.457q.02782-2.45691.01562-4.91382c-.00195-3.27575-.001-6.55151-.06494-9.8269-.063-6.551-.31592-13.101-.44043-19.65161-.02734-3.27564-.11572-6.55078-.09228-9.82666l.00488-1.22852c.00439-.22632-.00684-.36108.01074-.66272a1.84275,1.84275,0,0,1,.272-.80444,1.84218,1.84218,0,0,1,1.39844-.86133c.499-.01489.84375-.00134,1.27344-.00354,1.63769-.00354,3.27588.03845,4.91406.06335l9.82813.16272C3.18783,229.43135,6.46322,229.40633,9.7391,229.41975Z"/><circle class="ba921783-91ef-4049-8851-189f8819250b" cx="6.74453" cy="256.51503" r="1.69268"/><line class="a1849a84-8e28-4f5b-b50e-bb1d15e39466" x1="6.74453" y1="256.51503" x2="2.6395" y2="256.54353"/><path class="b937ea3a-9fcc-43a3-a174-987050d65cd0" d="M77.94054,271.116a12.85654,12.85654,0,0,1-.69962,5.145,1.64959,1.64959,0,0,0-.14508.99122,1.86089,1.86089,0,0,0,.36037.58282c1.54472,1.98018,2.33765,4.1559,1.57226,6.57285a8.34247,8.34247,0,0,1-9.83027,5.12354c-1.3213,1.81551-4.42433,2.78478-6.76827,2.83406a12.13275,12.13275,0,0,1-7.62575-2.46252c.21558.16887-3.23845,1.715-3.56862,1.81249a25.99655,25.99655,0,0,1-4.78379.8523c-3.053.304-6.28173.33554-9.03036-.86922a14.65228,14.65228,0,0,1-6.23016-5.947c-2.185.909-4.78421-.35359-6.32979-1.98635a8.27561,8.27561,0,0,1-2.41953-5.21656,6.03836,6.03836,0,0,1,2.4447-5.11042,3.06967,3.06967,0,0,1,1.49043-4.86865c-1.32961-1.72991-.86166-4.19075.58921-5.84759a12.55725,12.55725,0,0,1,5.92853-3.31211,6.46423,6.46423,0,0,1,1.82455-7.168,8.79076,8.79076,0,0,1,8.11874-1.65719c-.13136-.26689-.55112.06978-.61921.35475,1.951-2.18677,5.278-7.90077,14.65786-4.83074a8.01753,8.01753,0,0,1,4.95069,5.86482A8.12237,8.12237,0,0,1,72.121,260.53861c-.00428.70318-.17425,1.40026-.1863,2.09671-.015.86813-.09172.61788.69962.898a8.4207,8.4207,0,0,1,5.14128,6.24174A12.64071,12.64071,0,0,1,77.94054,271.116Z"/><path class="fe4304fa-4b42-4923-ad29-350b7c2cae4a" d="M77.94054,271.116a12.85654,12.85654,0,0,1-.69962,5.145,1.64959,1.64959,0,0,0-.14508.99122,1.86089,1.86089,0,0,0,.36037.58282c1.54472,1.98018,2.33765,4.1559,1.57226,6.57285a8.34247,8.34247,0,0,1-9.83027,5.12354c-1.3213,1.81551-4.42433,2.78478-6.76827,2.83406a12.13275,12.13275,0,0,1-7.62575-2.46252c.21558.16887-3.23845,1.715-3.56862,1.81249a25.99655,25.99655,0,0,1-4.78379.8523c-3.053.304-6.28173.33554-9.03036-.86922a14.65228,14.65228,0,0,1-6.23016-5.947c-2.185.909-4.78421-.35359-6.32979-1.98635a8.27561,8.27561,0,0,1-2.41953-5.21656,6.03836,6.03836,0,0,1,2.4447-5.11042,3.06967,3.06967,0,0,1,1.49043-4.86865c-1.32961-1.72991-.86166-4.19075.58921-5.84759a12.55725,12.55725,0,0,1,5.92853-3.31211,6.46423,6.46423,0,0,1,1.82455-7.168,8.79076,8.79076,0,0,1,8.11874-1.65719c-.13136-.26689-.55112.06978-.61921.35475,1.951-2.18677,5.278-7.90077,14.65786-4.83074a8.01753,8.01753,0,0,1,4.95069,5.86482A8.12237,8.12237,0,0,1,72.121,260.53861c-.00428.70318-.17425,1.40026-.1863,2.09671-.015.86813-.09172.61788.69962.898a8.4207,8.4207,0,0,1,5.14128,6.24174A12.64071,12.64071,0,0,1,77.94054,271.116Z"/><path class="a1ac15ad-ebb1-4521-bb07-1f1d2c5b6d5a" d="M76.948,271.828a7.58792,7.58792,0,0,1-2.32468,4.8026,11.21948,11.21948,0,0,1-3.38091,2.34506,11.854,11.854,0,0,1-5.79.70948,15.63944,15.63944,0,0,1-5.42937-1.81768,8.23876,8.23876,0,0,1-4.09436-5.66778c-.87943,1.90427-3.42471,2.81964-5.75547,2.84562a9.76436,9.76436,0,0,1-5.46793-1.48421,6.82423,6.82423,0,0,1-1.3958-10.29607,11.71648,11.71648,0,0,1,3.451-2.2075,14.71554,14.71554,0,0,1-3.2369-2.271c-2.40556-2.63352-1.09754-6.508,1.21013-8.83066,2.5935-2.61035,7.83107-3.82356,11.42166-2.19481a7.74036,7.74036,0,0,1,4.15454,5.97051,8.33148,8.33148,0,0,1,7.82828,1.237,6.576,6.576,0,0,1,2.46539,5.1605,7.35293,7.35293,0,0,1-.91826,4.26558,5.51678,5.51678,0,0,1,3.33818.376A6.7842,6.7842,0,0,1,76.948,271.828Z"/><path class="fe4304fa-4b42-4923-ad29-350b7c2cae4a" d="M15.40722,279.2657a5.02767,5.02767,0,0,0-2.898-1.40409c-2.0797-.452-4.345-.66557-6.25707.26894s-3.21023,3.38016-2.24,5.27442a4.9428,4.9428,0,0,0,3.212,2.22549,11.28838,11.28838,0,0,0,7.92238-.73585c1.59278-.78264,3.15323-2.42056,2.62029-4.11332-.42342-1.34489-1.93188-1.96829-3.26684-2.422-.31234-.10617-.82969-.04667-.75766.27526"/><path class="fe4304fa-4b42-4923-ad29-350b7c2cae4a" d="M20.50958,278.19969c.85828.15651,1.80437-.24377,2.587.14183a1.91086,1.91086,0,0,1,.28337,2.88161,4.5105,4.5105,0,0,1-3.03767,1.20712c-3.84436.35986-12.59818-1.60246-8.54172-7.07133C16.004,269.69183,17.275,277.60987,20.50958,278.19969Z"/><polygon class="faafa79f-3c53-4627-b680-d2c0677c58a3" points="27.461 152.004 43.761 204.122 67.116 186.503 42.969 140.305 27.461 152.004"/></g></svg>