<svg preserveAspectRatio="none" id="e4ff12d3-5ddc-47f3-9f39-6c13d6c163f6" data-name="Layer 1" xmlns="http://www.w3.org/2000/svg" xmlns:xlink="http://www.w3.org/1999/xlink" viewBox="0 0 530.04255 298.14894"><defs><style>.a1e72aca-1a54-4297-8fd6-9a400b99421d,.a5d5af2d-e4c3-467a-a066-36163be7e3e3,.aa0d38f3-5280-400b-addf-53902884eece,.b7dfc4d5-e720-438c-ad37-1079eed462e1,.b92f8c3e-8e9f-417a-9574-366a206b241f,.bc656d78-c477-422c-976c-df08e1e83693,.bf8cae39-fe15-4474-a634-d208d5b6dcef,.e6616dc5-07f7-4b48-a77b-7e31df7ece7a{fill:none;}.adf22ba8-4a87-4b90-b38a-02ae224b0a9b{clip-path:url(#bfc4b87e-b49e-4ef7-9d35-c17ca3049390);}.f7782ffd-2c23-484a-a931-ceb588801afa{fill:#decda8;}.a4956f52-e472-40b0-a13b-96ece0d96cfe{fill:#c59f74;}.ff3a9877-e00e-4a24-8f64-9bb73d0ffa36{fill:#ddc09b;}.a621ccf8-dbdd-48f7-b815-f021615774c0,.ae920a0d-7ec7-4d05-8b51-04f8328bf1d2{fill:#6d6e71;}.b7dfc4d5-e720-438c-ad37-1079eed462e1{stroke:#bcbec0;stroke-width:7.44593px;stroke-dasharray:23.00651 7.43202;}.b7dfc4d5-e720-438c-ad37-1079eed462e1,.bf8cae39-fe15-4474-a634-d208d5b6dcef{stroke-linejoin:round;}.eefe4ce9-e462-4de2-9945-06b4125b2435{fill:#d5bdab;}.ab4c2395-b6d5-42b1-b406-cf8cf245b6e6{fill:#e6e7e8;}.b837947f-973a-4c02-9ccf-2c99447d3640{fill:#d1d3d4;}.e6b8b97a-7db2-4060-851f-763d38ecf884{fill:#fff;}.aa3d46fd-0dd5-4f36-b095-a8f768709700{fill:#414042;}.a621ccf8-dbdd-48f7-b815-f021615774c0,.bdc40957-1b53-4e85-8d45-0116fb3532d7{opacity:0.5;}.bc1cba10-b636-4415-94a7-9b9efdab11b0{fill:#db9651;}.bc656d78-c477-422c-976c-df08e1e83693{stroke:#db9651;}.a1e72aca-1a54-4297-8fd6-9a400b99421d,.a5d5af2d-e4c3-467a-a066-36163be7e3e3,.aa0d38f3-5280-400b-addf-53902884eece,.bc656d78-c477-422c-976c-df08e1e83693,.e6616dc5-07f7-4b48-a77b-7e31df7ece7a{stroke-miterlimit:10;}.bc656d78-c477-422c-976c-df08e1e83693,.e6616dc5-07f7-4b48-a77b-7e31df7ece7a{stroke-width:5.03646px;}.bda65538-4912-4282-802c-a7b02e9a9a3f{fill:#fee046;}.e6616dc5-07f7-4b48-a77b-7e31df7ece7a{stroke:#fee88e;}.a5d5af2d-e4c3-467a-a066-36163be7e3e3{stroke:#fff;stroke-width:2.23893px;}.b557e0d5-aeb8-413f-b880-69e1f841bbc9{clip-path:url(#e6ca2da2-9bc4-4fe2-bbe6-fbacbf34fbd6);}.addf6028-8a48-40d2-9b9f-e27324b4859c{fill:#58595b;}.a1e72aca-1a54-4297-8fd6-9a400b99421d,.aa0d38f3-5280-400b-addf-53902884eece{stroke:#6d6e71;}.a1e72aca-1a54-4297-8fd6-9a400b99421d{stroke-width:5.89782px;}.aa0d38f3-5280-400b-addf-53902884eece{stroke-width:3.37018px;}.bf8cae39-fe15-4474-a634-d208d5b6dcef{stroke:#231f20;stroke-width:0.6358px;stroke-dasharray:0.84773 0.84773 0;}.fcb31c4e-fbe8-42a6-bcc5-0d43d5b14384{clip-path:url(#a6022d4d-d063-4102-a894-60384cbe7eba);}.e73c9d48-b7e4-438b-98f8-aef664ecb906{fill:#2a2a2b;}.bdc40957-1b53-4e85-8d45-0116fb3532d7{fill:#808285;}</style><clipPath id="bfc4b87e-b49e-4ef7-9d35-c17ca3049390"><rect class="b92f8c3e-8e9f-417a-9574-366a206b241f" y="0.45938" width="530.04255" height="298.14894"/></clipPath><clipPath id="e6ca2da2-9bc4-4fe2-bbe6-fbacbf34fbd6"><rect class="b92f8c3e-8e9f-417a-9574-366a206b241f" x="356.20452" y="159.43383" width="31.19211" height="27.69644" rx="1.21004"/></clipPath><clipPath id="a6022d4d-d063-4102-a894-60384cbe7eba"><rect class="b92f8c3e-8e9f-417a-9574-366a206b241f" x="403.38706" y="159.43383" width="31.19211" height="27.69644" rx="1.21004"/></clipPath></defs><title>Artboard 199</title><g class="adf22ba8-4a87-4b90-b38a-02ae224b0a9b"><rect class="f7782ffd-2c23-484a-a931-ceb588801afa" x="115.94681" y="-115.48743" width="298.14894" height="530.04255" transform="translate(115.48743 414.55513) rotate(-90)"/><path class="a4956f52-e472-40b0-a13b-96ece0d96cfe" d="M85.45618,162.66642a.81232.81232,0,0,1-.83618-.48274,6.40415,6.40415,0,0,1-.31457-.98957,7.62225,7.62225,0,0,0-1.17846-1.85137,2.514,2.514,0,0,1-.5623-2.05448c-.97252.03426-2.05352.712-2.82487.1187a1.67568,1.67568,0,0,1-.36653-1.80354,6.17841,6.17841,0,0,0,.53728-1.686,6.83276,6.83276,0,0,1-1.1218.47829c-.562.06975-1.03415-.48075-1.52393-.37983a.81154.81154,0,0,0-.39294.27323l-.91232.95611a.52875.52875,0,0,1-.22574.1644c-.31225.08619-.46595-.38823-.3788-.70021s.23839-.6943.00536-.9193c-.27168-.26232-.7052.01109-.99746.25027s-.8234.39575-.96836.047l-1.28.0352a.3609.3609,0,0,0-.23241.06086.38487.38487,0,0,0-.09231.2577,3.04162,3.04162,0,0,1-1.49919,2.26319.61943.61943,0,0,1-.65094.06264.64558.64558,0,0,1-.19025-.297c-.21567-.5465-.19575-1.92042-.52375-2.31271-.35-.41865-1.57735-.58546-2.11516-.82762a5.565,5.565,0,0,0-.64378,3.40036c.0126,1.20059-.95261,2.6996-.88163,3.71524a3.62464,3.62464,0,0,0-2.08146-2.98764,7.38443,7.38443,0,0,0,.69665,3.22621,3.09274,3.09274,0,0,1-1.09966-1.66512,4.81178,4.81178,0,0,0-.36408,2.98168,1.53078,1.53078,0,0,1,.0523.60549.43374.43374,0,0,1-.41737.37147,2.43879,2.43879,0,0,1-1.484,1.71936c.0295.44657.71188.35569,1.11381.15886,1.06686-.52245,2.50271-.71377,3.32244.146a23.93382,23.93382,0,0,1,2.72445-2.24933l-.46658.26054c3.35855,1.77976,7.13755,3.38187,10.85819,2.60454a2.18948,2.18948,0,0,0-.82138-2.73113,3.37064,3.37064,0,0,0,4.18025.67935L81.221,163.093c.10538-.61491.98913-.68607,1.55839-.43082A5.94261,5.94261,0,0,0,85.45618,162.66642Z"/><path class="ff3a9877-e00e-4a24-8f64-9bb73d0ffa36" d="M72.42411,165.76267a12.68062,12.68062,0,0,0,1.12667-7.37434,10.42339,10.42339,0,0,0,.76841,2.28163,1.58636,1.58636,0,0,0,.60364.7669c.70641.38372,1.49044-.33212,1.976-.97283l.08762,2.64625a7.23366,7.23366,0,0,0,4.36348-1.20534,8.0508,8.0508,0,0,1-5.66137,5.17688.73061.73061,0,0,0-.08264-1.123,1.1419,1.1419,0,0,0-.55419-.14017,10.20541,10.20541,0,0,0-2.62818.49889,2.85291,2.85291,0,0,1-2.54865-.40815c-1.12493-1.03232-.4997-3.06108-1.45244-4.25416a3.01487,3.01487,0,0,0-2.306-.93572c-.85614-.02658-1.71475.11831-2.5674.03664.15125.607.9635.85858,1.12777,1.46219.19335.71049-.653,1.29082-1.38824,1.33032a8.24454,8.24454,0,0,0-2.19548.03873,6.44615,6.44615,0,0,0,3.33267,1.34287,2.95732,2.95732,0,0,1,1.4343.33435c.408.28379.55055.99238.12457,1.24844"/><path class="a4956f52-e472-40b0-a13b-96ece0d96cfe" d="M474.73942,217.13534a.33344.33344,0,0,1-.34324-.19816,2.62857,2.62857,0,0,1-.12912-.40619,3.12885,3.12885,0,0,0-.48373-.76,1.03194,1.03194,0,0,1-.23082-.84332c-.3992.01406-.84292.29225-1.15955.04872a.68784.68784,0,0,1-.15045-.74031,2.53606,2.53606,0,0,0,.22054-.69208,2.80379,2.80379,0,0,1-.46047.19633c-.23071.02863-.4245-.19733-.62554-.15591a.33306.33306,0,0,0-.16129.11215l-.37449.39247a.217.217,0,0,1-.09266.06748c-.12817.03538-.19127-.15936-.15549-.28742s.09785-.285.0022-.37735c-.11152-.10768-.28947.00455-.40944.10273s-.338.16244-.39749.0193l-.52541.01445a.14814.14814,0,0,0-.0954.025.158.158,0,0,0-.03789.10578,1.24852,1.24852,0,0,1-.61538.929.25427.25427,0,0,1-.2672.02571.265.265,0,0,1-.07809-.1219c-.08853-.22433-.08035-.78829-.215-.94932-.14368-.17185-.64747-.24032-.86823-.33972a2.28433,2.28433,0,0,0-.26426,1.39577c.00518.49282-.391,1.10813-.36189,1.525a1.48784,1.48784,0,0,0-.85439-1.22636,3.03115,3.03115,0,0,0,.286,1.32429,1.26956,1.26956,0,0,1-.45139-.6835,1.9752,1.9752,0,0,0-.14945,1.22392.62824.62824,0,0,1,.02148.24854.17806.17806,0,0,1-.17133.15248,1.00108,1.00108,0,0,1-.60913.70576c.01211.18331.29221.146.4572.06521a1.19288,1.19288,0,0,1,1.36379.05992,9.825,9.825,0,0,1,1.11832-.9233l-.19152.10694a6.83172,6.83172,0,0,0,4.457,1.06912.89874.89874,0,0,0-.33716-1.12108,1.38357,1.38357,0,0,0,1.7159.27886l-.114-.194c.04326-.25241.406-.28162.63969-.17685A2.43925,2.43925,0,0,0,474.73942,217.13534Z"/><path class="ff3a9877-e00e-4a24-8f64-9bb73d0ffa36" d="M469.39,218.40628a5.20508,5.20508,0,0,0,.46247-3.027,4.279,4.279,0,0,0,.31542.93656.65121.65121,0,0,0,.24778.3148c.29.15751.61179-.13633.8111-.39932l.036,1.08622a2.96927,2.96927,0,0,0,1.79111-.49476,3.30467,3.30467,0,0,1-2.32387,2.125.2999.2999,0,0,0-.03392-.461.46879.46879,0,0,0-.22748-.05753,4.18946,4.18946,0,0,0-1.07881.20478,1.171,1.171,0,0,1-1.04617-.16753c-.46176-.42375-.20511-1.25651-.59619-1.74624a1.23754,1.23754,0,0,0-.94658-.3841c-.35142-.01091-.70387.04857-1.05386.015.06209.24916.3955.35243.46292.6002.07937.29164-.268.52985-.56984.54607a3.38411,3.38411,0,0,0-.90119.0159,2.646,2.646,0,0,0,1.368.55121,1.214,1.214,0,0,1,.58875.13725c.16749.11649.226.40735.05114.51245"/><path class="a4956f52-e472-40b0-a13b-96ece0d96cfe" d="M420.652,78.88945l2.92007-.91028a.75485.75485,0,0,0,.61762.75894,1.97092,1.97092,0,0,0,1.05184-.12845,12.47253,12.47253,0,0,0,2.90731-1.39853c.33944.89248,1.618.80137,2.5377.54488l3.78039-1.05423a3.7734,3.7734,0,0,0-.99879,3.59005,13.47779,13.47779,0,0,0-7.12645,1.00936,2.75722,2.75722,0,0,0-1.50194,1.20934c-.57056,1.23279.62874,2.517,1.70233,3.34926a9.74988,9.74988,0,0,1-2.42931,1.2843,1.66261,1.66261,0,0,1-.9876.12226c-.81775-.22595-.87605-1.45022-.36211-2.12521a12.98541,12.98541,0,0,1,1.97956-1.58448c-.76628-1.17072-2.4423-1.21739-3.83313-1.06324-1.76316.19541-3.53047,4.77778-5.20749,2.17426-1.17056-1.81725,1.48623-5.50308,2.68024-6.5896C418.63,79.26173,419.70334,79.18519,420.652,78.88945Z"/><path class="ff3a9877-e00e-4a24-8f64-9bb73d0ffa36" d="M422.42859,84.51464c.223.0689.3185-.26581.3505-.497a2.82209,2.82209,0,0,1,1.50063-1.76917A31.188,31.188,0,0,1,428.134,80.1564a8.52324,8.52324,0,0,0-4.12742,1.689c-.41758.32053-.84231.78023-.74741,1.298.05238.28582.2593.52784.29729.81593.07424.5629-.55992,1.01173-1.12632.97214a2.91208,2.91208,0,0,1-1.49969-.75069.52756.52756,0,0,1-.1792.7871.797.797,0,0,1-.86587-.16308,1.71107,1.71107,0,0,1-.44864-.80907,4.222,4.222,0,0,1,.05984-2.54709,4.95093,4.95093,0,0,1-1.60294,5.17.28284.28284,0,0,1,.25664-.32917,9.19411,9.19411,0,0,0-.52768-3.99244,5.53513,5.53513,0,0,0,1.64714,1.31555.48554.48554,0,0,0,.41345.06922c.15221-.07027.19251-.264.21371-.43029l.15862-1.24428,1.0848,1.07353a.26826.26826,0,0,0,.47643-.026l2.32672-2.6964c-.41247,1.78744-2.51266,3.04728-2.32691,4.87227,1.70181-1.9085,3.50119-3.8855,5.89583-4.7823a11.24016,11.24016,0,0,0-.35271,1.46453.87045.87045,0,0,0,.01214.47942.90769.90769,0,0,0,.4121.38381l1.56874.93533a10.55488,10.55488,0,0,0-2.45815-.18253.91189.91189,0,0,0-.62119.19177.7903.7903,0,0,0-.0709.8349,2.80006,2.80006,0,0,1,.28589.83485l-1.98036.20226a.84208.84208,0,0,0-.61314.24035c-.13669.18024-.00392.5262.21576.47224"/><path class="ff3a9877-e00e-4a24-8f64-9bb73d0ffa36" d="M299.86383,93.02792a16.829,16.829,0,0,1,2.60324-5.72653,1.76687,1.76687,0,0,0,.82476,2.3187,1.54412,1.54412,0,0,0,2.06017-1.17c0,2.63344,1.97841,5.2084,1.14814,7.70753a9.84946,9.84946,0,0,0,4.18024-2.61835,9.59811,9.59811,0,0,0,.51,1.87778"/><path class="ff3a9877-e00e-4a24-8f64-9bb73d0ffa36" d="M156.28251,269.60639a5.38993,5.38993,0,0,1-3.84309-3.0198c.79576-.65735,1.97-.51636,2.93769-.87553s1.55459-1.95933.57767-2.29245a6.62237,6.62237,0,0,0,3.76166,1.26635,2.85809,2.85809,0,0,0,2.22908,3.83165"/><polygon class="ae920a0d-7ec7-4d05-8b51-04f8328bf1d2" points="0 298.607 0 227.969 530.043 227.969 530.043 263.288 530.043 298.607 0 298.607"/><polygon class="ae920a0d-7ec7-4d05-8b51-04f8328bf1d2" points="0 71.097 0 0.459 530.043 0.459 530.043 35.778 530.043 71.097 0 71.097"/><polygon class="ae920a0d-7ec7-4d05-8b51-04f8328bf1d2" points="70.637 298.608 0 298.608 0 0.459 35.319 0.459 70.637 0.459 70.637 298.608"/><polygon class="ae920a0d-7ec7-4d05-8b51-04f8328bf1d2" points="530.043 298.608 459.405 298.608 459.405 0.459 494.724 0.459 530.043 0.459 530.043 298.608"/><path class="b7dfc4d5-e720-438c-ad37-1079eed462e1" d="M35.43914,263.28817H494.60407V35.77838H35.43914Z"/><ellipse class="eefe4ce9-e462-4de2-9945-06b4125b2435" cx="263.07283" cy="158.7742" rx="38.92901" ry="12.32205" transform="translate(-6.17259 10.70846) rotate(-2.30489)"/><path class="ab4c2395-b6d5-42b1-b406-cf8cf245b6e6" d="M259.09965,117.10562s-6.91075.13911-10.11744,6.03528c-3.01754,5.54838,7.34435-.7241,7.34435-.7241Z"/><rect class="ab4c2395-b6d5-42b1-b406-cf8cf245b6e6" x="252.08546" y="117.08317" width="37.65273" height="37.65273" rx="7.52857"/><path class="b837947f-973a-4c02-9ccf-2c99447d3640" d="M286.36578,154.6482l-1.01769.64878c-1.91967,1.22378-10.19516,2.84479-10.19516,1.04866l9.63533-32.43533,3.99953-2.62112a3.605,3.605,0,0,1,.917,2.62417l.13689,25.26682C289.84163,150.9763,288.28544,153.42442,286.36578,154.6482Z"/><rect class="e6b8b97a-7db2-4060-851f-763d38ecf884" x="247.9478" y="119.77265" width="37.65273" height="37.65273" rx="7.52857"/><circle class="aa3d46fd-0dd5-4f36-b095-a8f768709700" cx="256.11968" cy="130.38181" r="2.68948"/><circle class="aa3d46fd-0dd5-4f36-b095-a8f768709700" cx="275.77358" cy="130.38181" r="2.68948"/><circle class="aa3d46fd-0dd5-4f36-b095-a8f768709700" cx="275.77358" cy="148.89785" r="2.68948"/><circle class="aa3d46fd-0dd5-4f36-b095-a8f768709700" cx="255.68379" cy="148.89785" r="2.68948"/><circle class="aa3d46fd-0dd5-4f36-b095-a8f768709700" cx="265.71763" cy="138.86401" r="2.68948"/><path class="a621ccf8-dbdd-48f7-b815-f021615774c0" d="M248.48,124.531s1.43315-2.52792,5.36393-2.321c1.987.10458,6.14145.10343,9.76433.07672a6.529,6.529,0,0,1,6.57944,6.52886v28.668h-7.83944Z"/><path class="ab4c2395-b6d5-42b1-b406-cf8cf245b6e6" d="M235.84741,124.55341s-6.91075.13911-10.11743,6.03528c-3.01755,5.54839,7.34435-.72409,7.34435-.72409Z"/><rect class="ab4c2395-b6d5-42b1-b406-cf8cf245b6e6" x="228.83322" y="124.53096" width="37.65273" height="37.65273" rx="7.52857"/><path class="b837947f-973a-4c02-9ccf-2c99447d3640" d="M263.11354,162.096l-1.01769.64877c-1.91966,1.22378-10.19516,2.84479-10.19516,1.04867l9.63533-32.43533,3.99954-2.62112a3.605,3.605,0,0,1,.91694,2.62416l.1369,25.26682C266.5894,158.4241,265.0332,160.87222,263.11354,162.096Z"/><rect class="e6b8b97a-7db2-4060-851f-763d38ecf884" x="224.69556" y="127.22044" width="37.65273" height="37.65273" rx="7.52857"/><circle class="aa3d46fd-0dd5-4f36-b095-a8f768709700" cx="232.86744" cy="137.8296" r="2.68948"/><circle class="aa3d46fd-0dd5-4f36-b095-a8f768709700" cx="252.52134" cy="137.8296" r="2.68948"/><circle class="aa3d46fd-0dd5-4f36-b095-a8f768709700" cx="252.52134" cy="156.34564" r="2.68948"/><circle class="aa3d46fd-0dd5-4f36-b095-a8f768709700" cx="232.43156" cy="156.34564" r="2.68948"/><circle class="aa3d46fd-0dd5-4f36-b095-a8f768709700" cx="242.46539" cy="146.31181" r="2.68948"/><circle class="bc1cba10-b636-4415-94a7-9b9efdab11b0" cx="128.59777" cy="171.90009" r="17.19899"/><circle class="bc656d78-c477-422c-976c-df08e1e83693" cx="128.59777" cy="171.90009" r="17.19899"/><circle class="bda65538-4912-4282-802c-a7b02e9a9a3f" cx="127.73075" cy="171.03307" r="17.19899"/><circle class="e6616dc5-07f7-4b48-a77b-7e31df7ece7a" cx="127.73075" cy="171.03307" r="17.19899"/><circle class="bc1cba10-b636-4415-94a7-9b9efdab11b0" cx="117.26295" cy="164.33771" r="17.19899"/><circle class="bc656d78-c477-422c-976c-df08e1e83693" cx="117.26295" cy="164.33771" r="17.19899"/><circle class="bda65538-4912-4282-802c-a7b02e9a9a3f" cx="116.39593" cy="163.47069" r="17.19899"/><circle class="e6616dc5-07f7-4b48-a77b-7e31df7ece7a" cx="116.39593" cy="163.47069" r="17.19899"/><polyline class="a5d5af2d-e4c3-467a-a066-36163be7e3e3" points="114.362 161.196 114.373 169.68 122.71 169.68 122.691 155.908"/><polyline class="a5d5af2d-e4c3-467a-a066-36163be7e3e3" points="118.43 165.869 118.419 157.261 110.082 157.261 110.101 171.033"/><rect class="aa3d46fd-0dd5-4f36-b095-a8f768709700" x="352.11728" y="155.61549" width="86.58499" height="35.06423" rx="2.98618"/><g class="b557e0d5-aeb8-413f-b880-69e1f841bbc9"><rect class="addf6028-8a48-40d2-9b9f-e27324b4859c" x="353.30043" y="158.30446" width="35.60202" height="30.43919"/><line class="a1e72aca-1a54-4297-8fd6-9a400b99421d" x1="357.60279" y1="191.64775" x2="376.64073" y2="153.14163"/><line class="aa0d38f3-5280-400b-addf-53902884eece" x1="366.95136" y1="191.64775" x2="385.9893" y2="153.14163"/></g><rect class="bf8cae39-fe15-4474-a634-d208d5b6dcef" x="354.1609" y="157.44399" width="35.27935" height="31.40722" rx="1.62331"/><g class="fcb31c4e-fbe8-42a6-bcc5-0d43d5b14384"><rect class="addf6028-8a48-40d2-9b9f-e27324b4859c" x="400.48297" y="158.30446" width="35.60202" height="30.43919"/><line class="a1e72aca-1a54-4297-8fd6-9a400b99421d" x1="404.78533" y1="191.64775" x2="423.82327" y2="153.14163"/><line class="aa0d38f3-5280-400b-addf-53902884eece" x1="414.13391" y1="191.64775" x2="433.17185" y2="153.14163"/></g><rect class="bf8cae39-fe15-4474-a634-d208d5b6dcef" x="401.34344" y="157.44399" width="35.27935" height="31.40722" rx="1.62331"/><rect class="e73c9d48-b7e4-438b-98f8-aef664ecb906" x="392.02166" y="159.16494" width="6.45354" height="28.0729" rx="1.07559"/><line class="bf8cae39-fe15-4474-a634-d208d5b6dcef" x1="388.2571" y1="188.95877" x2="403.85315" y2="188.95877"/><line class="bf8cae39-fe15-4474-a634-d208d5b6dcef" x1="388.2571" y1="157.55155" x2="403.85315" y2="157.55155"/><path class="e6b8b97a-7db2-4060-851f-763d38ecf884" d="M409.211,176.57128a.19343.19343,0,0,1-.05859-.14746v-5.45117a.19055.19055,0,0,1,.05859-.14746.19982.19982,0,0,1,.14356-.05469h.67383a.18854.18854,0,0,1,.20215.20215v5.45117a.18854.18854,0,0,1-.20215.20215h-.67383A.204.204,0,0,1,409.211,176.57128Z"/><path class="e6b8b97a-7db2-4060-851f-763d38ecf884" d="M411.45223,175.52245a.19543.19543,0,0,1-.05958-.14355v-4.40625a.18787.18787,0,0,1,.05958-.14746.19978.19978,0,0,1,.14355-.05469h.707a.18854.18854,0,0,1,.20215.20215v4.40625a.203.203,0,0,1-.05469.14355.192.192,0,0,1-.14746.0586h-.707A.19518.19518,0,0,1,411.45223,175.52245Z"/><path class="e6b8b97a-7db2-4060-851f-763d38ecf884" d="M416.1368,175.52245a.19542.19542,0,0,1-.05957-.14355v-2.51074a1.06072,1.06072,0,0,0-1.20411-1.19629h-1.17968a.20454.20454,0,0,1-.15235-.05957.1946.1946,0,0,1-.05859-.14258v-.49707a.19521.19521,0,0,1,.05859-.14355.20762.20762,0,0,1,.15235-.0586h1.22949a2.43693,2.43693,0,0,1,1.67676.501,1.99086,1.99086,0,0,1,.55664,1.55469v2.55273a.20737.20737,0,0,1-.05469.14355.19342.19342,0,0,1-.14746.0586h-.67481A.19454.19454,0,0,1,416.1368,175.52245Z"/><path class="e6b8b97a-7db2-4060-851f-763d38ecf884" d="M421.28816,175.52245a.21937.21937,0,0,1-.15527.0586h-.708a.18919.18919,0,0,1-.13867-.05469.22847.22847,0,0,1-.06348-.14746l-.16015-.792a2.14752,2.14752,0,0,1-.59766.57324,3.96907,3.96907,0,0,1-.59473.31543,2.9474,2.9474,0,0,1-.57714.17285l-.0586.00879q-.14355,0-.14355-.13477v-.65722c0-.09571.05957-.166.17675-.21094.02833-.01172.14747-.05078.3584-.11816a2.77877,2.77877,0,0,0,.53516-.22754,1.69048,1.69048,0,0,0,.3916-.29883,2.21825,2.21825,0,0,0,.31641-.3916l-.16016-.792a2.49785,2.49785,0,0,0-.31152-.88868.67746.67746,0,0,0-.59864-.26562H418.504a.20229.20229,0,0,1-.15136-.05957.19175.19175,0,0,1-.05957-.14258v-.53125a.19542.19542,0,0,1,.05957-.14355.20531.20531,0,0,1,.15136-.0586h.31153a2.10063,2.10063,0,0,1,1.01562.21485,1.5209,1.5209,0,0,1,.61914.65332,4.61273,4.61273,0,0,1,.37891,1.17089l.50586,2.60352A.14644.14644,0,0,1,421.28816,175.52245Z"/><path class="e6b8b97a-7db2-4060-851f-763d38ecf884" d="M422.24519,175.52245a.19542.19542,0,0,1-.05957-.14355v-4.40625a.18786.18786,0,0,1,.05957-.14746.1991.1991,0,0,1,.14258-.05469h.708a.19672.19672,0,0,1,.14746.05469.199.199,0,0,1,.05469.14746v4.40625a.20737.20737,0,0,1-.05469.14355.192.192,0,0,1-.14746.0586h-.708A.19458.19458,0,0,1,422.24519,175.52245Z"/><path class="e6b8b97a-7db2-4060-851f-763d38ecf884" d="M424.51961,175.52245a.19837.19837,0,0,1-.0586-.14355v-4.40625a.19056.19056,0,0,1,.0586-.14746.19978.19978,0,0,1,.14355-.05469h1.80274a2.43482,2.43482,0,0,1,1.68945.50488,2.04955,2.04955,0,0,1,.55176,1.584v2.51953a.20737.20737,0,0,1-.05469.14355.19342.19342,0,0,1-.14746.0586h-.67383a.19518.19518,0,0,1-.14355-.0586.19833.19833,0,0,1-.0586-.14355v-2.51074a1.06141,1.06141,0,0,0-1.20508-1.19629h-.88476v3.707a.20737.20737,0,0,1-.05469.14355.19342.19342,0,0,1-.14746.0586h-.67383A.19518.19518,0,0,1,424.51961,175.52245Z"/></g><rect class="bdc40957-1b53-4e85-8d45-0116fb3532d7" width="530.04255" height="298.14894"/></svg>