<svg preserveAspectRatio="none" id="a497c17f-1d59-4af8-ba11-332c8cc0f1fd" data-name="Layer 1" xmlns="http://www.w3.org/2000/svg" viewBox="0 0 59.74463 56.68066"><defs><style>.e9ac353b-71ac-4ad0-8bba-eee0543b33ee{fill:#86c66b;}.ac19cdb5-2498-462e-80b8-c346ee755413{fill:#d5bdab;}.b85bf38c-6958-467d-b749-c81f0e6a763d,.b9cab008-6382-4cd9-a7b8-4b48231c9236,.bcc0faf5-f129-4f4b-8e1a-e17b50922fbf{fill:none;}.b85bf38c-6958-467d-b749-c81f0e6a763d{stroke:#716d6d;stroke-width:0.4789px;}.b85bf38c-6958-467d-b749-c81f0e6a763d,.b9cab008-6382-4cd9-a7b8-4b48231c9236{stroke-linecap:round;stroke-linejoin:round;}.b32b46db-1a77-4095-ae34-a470a367816e{fill:#edb8ca;}.bb48a398-9359-481b-8e65-e283786b4fe4{fill:#e0a1b8;}.ec6ccea2-d914-4bbd-8044-1b02485e2262{fill:#c4839e;}.ab171f9c-268d-447e-b1dc-936992b234b3{fill:#d290ac;}.bf136b43-1fac-4d67-8422-73f7fe6317f8{fill:#582728;}.b9cab008-6382-4cd9-a7b8-4b48231c9236{stroke:#858080;stroke-width:0.5px;}.bcc0faf5-f129-4f4b-8e1a-e17b50922fbf{stroke:#fff;stroke-miterlimit:10;stroke-width:1.36549px;}</style></defs><title>Artboard 222</title><path class="e9ac353b-71ac-4ad0-8bba-eee0543b33ee" d="M5.043,1.5H54.70313a3.542,3.542,0,0,1,3.542,3.542V51.6377a3.543,3.543,0,0,1-3.543,3.543H5.043A3.543,3.543,0,0,1,1.5,51.6377V5.043A3.543,3.543,0,0,1,5.043,1.5Z"/><path class="ac19cdb5-2498-462e-80b8-c346ee755413" d="M54.70215,3a2.04449,2.04449,0,0,1,2.04248,2.04248v46.5957a2.04449,2.04449,0,0,1-2.04248,2.04248H5.04248A2.04449,2.04449,0,0,1,3,51.63818V5.04248A2.04449,2.04449,0,0,1,5.04248,3H54.70215m0-3H5.04248A5.04244,5.04244,0,0,0,0,5.04248v46.5957a5.04244,5.04244,0,0,0,5.04248,5.04248H54.70215a5.04213,5.04213,0,0,0,5.04248-5.04248V5.04248A5.04213,5.04213,0,0,0,54.70215,0Z"/><path class="b85bf38c-6958-467d-b749-c81f0e6a763d" d="M27.95055,16.40567l.34274-3.84162a3.54343,3.54343,0,0,1,3.4398-3.31287h0A3.50091,3.50091,0,0,1,35.116,13.07475l-.208,3.33092"/><polygon class="b32b46db-1a77-4095-ae34-a470a367816e" points="34.993 44.106 12.141 44.106 15.397 14.872 38.248 14.872 34.993 44.106"/><polygon class="bb48a398-9359-481b-8e65-e283786b4fe4" points="45.907 44.106 35.056 44.106 37.991 14.872 42.973 14.872 45.907 44.106"/><polygon class="ec6ccea2-d914-4bbd-8044-1b02485e2262" points="35.056 44.106 40.29 41.425 40.29 14.872 37.991 14.872 35.056 44.106"/><polygon class="ab171f9c-268d-447e-b1dc-936992b234b3" points="35.056 44.106 40.29 41.425 45.907 44.106 35.056 44.106"/><circle class="bf136b43-1fac-4d67-8422-73f7fe6317f8" cx="30.58827" cy="17.04244" r="0.6383"/><circle class="bf136b43-1fac-4d67-8422-73f7fe6317f8" cx="23.63082" cy="17.04244" r="0.6383"/><path class="b9cab008-6382-4cd9-a7b8-4b48231c9236" d="M23.63082,17.04244l.30846-3.633a3.42252,3.42252,0,0,1,3.41024-3.133h0a3.42251,3.42251,0,0,1,3.417,3.61593l-.1783,3.15"/><polyline class="bcc0faf5-f129-4f4b-8e1a-e17b50922fbf" points="23.902 26.578 22.971 31.753 28.056 31.753 29.567 23.353"/><polyline class="bcc0faf5-f129-4f4b-8e1a-e17b50922fbf" points="25.867 29.428 26.812 24.178 21.727 24.178 20.216 32.577"/></svg>