<svg preserveAspectRatio="none" id="faf1a92b-6631-4991-bc95-1a3e6d2967fb" data-name="Layer 1" xmlns="http://www.w3.org/2000/svg" xmlns:xlink="http://www.w3.org/1999/xlink" viewBox="0 0 59.78112 56.68066"><defs><style>.b0a2da6c-7374-4ae0-8c35-35087947607a,.b7ab02d0-3acb-4fe7-9689-91dc62aa2bff,.fb205137-1cca-4c6e-81d9-3021fecbf3f4,.fd3e1c3a-27fa-4450-9cb6-f307b9213425{fill:none;}.e607a54c-6bcb-4b22-a174-7120d9ab7b56{fill:#86c66b;}.b24d104c-5f50-4282-b416-5bed50806827{fill:#d5bdab;}.acf1f4e3-1d8f-4f90-9fbb-d85c87da0512,.f29b2e3f-bc77-473f-8b8a-a2aea85b2729{fill:#414042;}.f29b2e3f-bc77-473f-8b8a-a2aea85b2729{opacity:0.48;}.b4570366-a2b9-49f4-a4fb-c476732c5031{fill:#1b75bc;}.ac6df9d9-10e7-4da0-9742-cd8b152b4e17{fill:#b9deee;}.adbd062e-53d6-4364-90c9-745e77942270{clip-path:url(#a14a91af-3823-48e5-8d6e-982f7650a3e8);}.b0a2da6c-7374-4ae0-8c35-35087947607a,.b7ab02d0-3acb-4fe7-9689-91dc62aa2bff,.fb205137-1cca-4c6e-81d9-3021fecbf3f4{stroke:#fff;stroke-miterlimit:10;}.fb205137-1cca-4c6e-81d9-3021fecbf3f4{stroke-width:0.92927px;}.b0a2da6c-7374-4ae0-8c35-35087947607a{stroke-width:0.46464px;}.bd68e612-3b3e-4d7b-822f-85cce9b5f436,.e4465ca2-0f0a-49e5-b677-48f8018e9886{fill:#2b3990;}.e63338ad-ab90-4088-ab84-4c4f1ffe6fdf{clip-path:url(#eb43b16c-2840-48a2-ad95-d0aaed6a05c7);}.b7ab02d0-3acb-4fe7-9689-91dc62aa2bff{stroke-width:1.39391px;}.b60d5f2b-d316-45ee-b8d7-46862ceffbd3{clip-path:url(#e55154c8-5f60-4c3d-9509-15a301e526e5);}.a404af94-831b-40bf-97af-0e5462aaac14{clip-path:url(#b383e2f8-9f2f-4031-802f-52b27e179b81);}.efc57003-57cf-48a9-ad6b-bd347f4a1768{clip-path:url(#bd85932c-48a9-450a-ad17-75644cc4d457);}.b1f04af8-33e6-4ea3-a5cf-332f56dede2e{fill:#27aae1;}.e4465ca2-0f0a-49e5-b677-48f8018e9886{opacity:0.31;}.b32cd6bd-2bd7-42b1-8720-edc47f2c05f5{fill:#6d6e71;}</style><clipPath id="a14a91af-3823-48e5-8d6e-982f7650a3e8"><rect class="fd3e1c3a-27fa-4450-9cb6-f307b9213425" x="21.68761" y="15.54453" width="8.06058" height="7.05895" rx="0.69921"/></clipPath><clipPath id="eb43b16c-2840-48a2-ad95-d0aaed6a05c7"><path class="fd3e1c3a-27fa-4450-9cb6-f307b9213425" d="M19.67482,22.66093H18.00375a12.1836,12.1836,0,0,0-6.54589,2.9389,3.8414,3.8414,0,0,1-2.56947,1.0964,1.08487,1.08487,0,0,1-1.12453-1.03615C7.76781,20.07058,8.87,15.54453,13.13121,15.54453c.61592,0,4.30932.0016,6.16878.00535a1.02724,1.02724,0,0,1,1.07327.9677c.00818,1.46211-.01364,4.20546,0,5.4716A.66878.66878,0,0,1,19.67482,22.66093Z"/></clipPath><clipPath id="e55154c8-5f60-4c3d-9509-15a301e526e5"><rect class="fd3e1c3a-27fa-4450-9cb6-f307b9213425" x="31.00009" y="15.54453" width="8.06058" height="7.05895" rx="0.69921"/></clipPath><clipPath id="b383e2f8-9f2f-4031-802f-52b27e179b81"><path class="fd3e1c3a-27fa-4450-9cb6-f307b9213425" d="M41.01177,15.54453h5.157a2.20432,2.20432,0,0,1,2.20432,2.20432v4.15543a.69921.69921,0,0,1-.69921.69921H41.01177a.69921.69921,0,0,1-.69921-.69921V16.24374A.69921.69921,0,0,1,41.01177,15.54453Z"/></clipPath><clipPath id="bd85932c-48a9-450a-ad17-75644cc4d457"><path class="fd3e1c3a-27fa-4450-9cb6-f307b9213425" d="M48.59153,36.48322H7.6641a2.01672,2.01672,0,0,1-2.01672-2.01671v0c0-11.23627-.02594-20.34506,7.711-20.34506H46.45619a4.03343,4.03343,0,0,1,4.03343,4.03343V34.58514A1.89809,1.89809,0,0,1,48.59153,36.48322Z"/></clipPath></defs><title>Artboard 227</title><path class="e607a54c-6bcb-4b22-a174-7120d9ab7b56" d="M5.043,1.5H54.70215a3.542,3.542,0,0,1,3.542,3.542V51.63867a3.542,3.542,0,0,1-3.542,3.542H5.043A3.543,3.543,0,0,1,1.5,51.6377V5.043A3.543,3.543,0,0,1,5.043,1.5Z"/><path class="b24d104c-5f50-4282-b416-5bed50806827" d="M54.70215,3a2.04449,2.04449,0,0,1,2.04248,2.04248v46.5957a2.04449,2.04449,0,0,1-2.04248,2.04248H5.04248A2.04449,2.04449,0,0,1,3,51.63818V5.04248A2.04449,2.04449,0,0,1,5.04248,3H54.70215m0-3H5.04248A5.04213,5.04213,0,0,0,0,5.04248v46.5957a5.04213,5.04213,0,0,0,5.04248,5.04248H54.70215a5.04244,5.04244,0,0,0,5.04248-5.04248V5.04248A5.04244,5.04244,0,0,0,54.70215,0Z"/><ellipse class="f29b2e3f-bc77-473f-8b8a-a2aea85b2729" cx="31.05262" cy="38.90031" rx="24.90217" ry="2.23915"/><path class="b4570366-a2b9-49f4-a4fb-c476732c5031" d="M48.59153,36.48322H7.6641a2.01672,2.01672,0,0,1-2.01672-2.01671v0c0-11.23627-.02594-20.34506,7.711-20.34506H46.45619a4.03343,4.03343,0,0,1,4.03343,4.03343V34.58514A1.89809,1.89809,0,0,1,48.59153,36.48322Z"/><path class="ac6df9d9-10e7-4da0-9742-cd8b152b4e17" d="M19.67482,22.66093H18.00375a12.1836,12.1836,0,0,0-6.54589,2.9389,3.8414,3.8414,0,0,1-2.56947,1.0964,1.08487,1.08487,0,0,1-1.12453-1.03615C7.76781,20.07058,8.87,15.54453,13.13121,15.54453c.61592,0,4.30932.0016,6.16878.00535a1.02724,1.02724,0,0,1,1.07327.9677c.00818,1.46211-.01364,4.20546,0,5.4716A.66878.66878,0,0,1,19.67482,22.66093Z"/><rect class="ac6df9d9-10e7-4da0-9742-cd8b152b4e17" x="21.68761" y="15.54453" width="8.06058" height="7.05895" rx="0.69921"/><g class="adbd062e-53d6-4364-90c9-745e77942270"><path class="fb205137-1cca-4c6e-81d9-3021fecbf3f4" d="M21.72449,25.54663c2.20455-4.36723,5.46683-8.20127,7.12149-12.805"/><path class="b0a2da6c-7374-4ae0-8c35-35087947607a" d="M23.8786,25.54663c2.20454-4.36723,5.46682-8.20127,7.12149-12.805"/></g><rect class="ac6df9d9-10e7-4da0-9742-cd8b152b4e17" x="31.00009" y="15.54453" width="8.06058" height="7.05895" rx="0.69921"/><path class="ac6df9d9-10e7-4da0-9742-cd8b152b4e17" d="M41.01177,15.54453h4.9791a2.38226,2.38226,0,0,1,2.38226,2.38226v3.97748a.69921.69921,0,0,1-.69921.69921H41.01177a.69921.69921,0,0,1-.69921-.69921V16.24374a.69921.69921,0,0,1,.69921-.69921Z"/><rect class="bd68e612-3b3e-4d7b-822f-85cce9b5f436" x="20.8024" y="27.31903" width="20.93373" height="7.8296" rx="1.70142"/><path class="bd68e612-3b3e-4d7b-822f-85cce9b5f436" d="M7.0011,20.10617a.49686.49686,0,0,0-.664-.05891,1.29347,1.29347,0,0,0-.41236.59945A8.1041,8.1041,0,0,0,5.29984,23.789a.60132.60132,0,0,0,.0588.30954.4355.4355,0,0,0,.66586-.008,1.30373,1.30373,0,0,0,.24849-.71991,23.47571,23.47571,0,0,1,.63775-3.06284"/><g class="e63338ad-ab90-4088-ab84-4c4f1ffe6fdf"><path class="b7ab02d0-3acb-4fe7-9689-91dc62aa2bff" d="M15.84923,14.47731C13.6033,17.24084,12.75247,24.298,10.86711,27.319c-1.12386,2.74985,1.12382-2.24,1.12289-2.40044"/><path class="fb205137-1cca-4c6e-81d9-3021fecbf3f4" d="M14.67147,26.63352a2.86766,2.86766,0,0,1,.0626-1.73171A47.67221,47.67221,0,0,1,18.34829,15.222"/></g><g class="b60d5f2b-d316-45ee-b8d7-46862ceffbd3"><path class="fb205137-1cca-4c6e-81d9-3021fecbf3f4" d="M31.037,25.54663c2.20454-4.36723,5.46682-8.20127,7.12149-12.805"/><path class="b0a2da6c-7374-4ae0-8c35-35087947607a" d="M33.19107,25.54663c2.20455-4.36723,5.46683-8.20127,7.12149-12.805"/></g><g class="a404af94-831b-40bf-97af-0e5462aaac14"><path class="fb205137-1cca-4c6e-81d9-3021fecbf3f4" d="M40.34944,25.54663c2.20455-4.36723,5.46683-8.20127,7.12149-12.805"/><path class="b0a2da6c-7374-4ae0-8c35-35087947607a" d="M42.50354,25.54663c2.20455-4.36723,5.46683-8.20127,7.12149-12.805"/></g><g class="efc57003-57cf-48a9-ad6b-bd347f4a1768"><path class="b1f04af8-33e6-4ea3-a5cf-332f56dede2e" d="M4.61328,28.8667a4.89613,4.89613,0,0,1,1.9419.15283,6.11088,6.11088,0,0,0,1.2998.18652,8.05933,8.05933,0,0,0,2.71875-.40869,42.1816,42.1816,0,0,0,5.30469-2.38965,17.65332,17.65332,0,0,1,5.581-1.72656,37.74431,37.74431,0,0,1,5.84668-.2622c1.95166.03271,3.89551.07763,5.83838.05175,1.94336-.0205,3.88721-.1084,5.8335-.16943,1.9458-.08106,3.89551-.12842,5.84717-.12939,1.95068-.00684,3.90478.03173,5.84765.209l-.00244.04639q-2.92309-.03-5.83838.08056l-5.83545.27246a97.08985,97.08985,0,0,1-11.69775-.10742,33.44005,33.44005,0,0,0-5.82129.14209,14.66528,14.66528,0,0,0-5.50147,1.78272c-1.6914.9624-3.25683,2.10351-4.99707,3.12451a14.46489,14.46489,0,0,1-2.855,1.2832c-.9917.34766-2.44091.39258-2.56787.7749Z"/><path class="e4465ca2-0f0a-49e5-b677-48f8018e9886" d="M9.3993,42.77311A89.79213,89.79213,0,0,1,37.08442,12.65824a24.11,24.11,0,0,0,5.06035-4.04631,9.74211,9.74211,0,0,0,4.21846,1.84652,60.87063,60.87063,0,0,1,11.337,4.33612c.87488.4392,1.83,1.0135,2.03952,1.96974.22518,1.02755-.51138,1.993-1.19342,2.79389-5.45267,6.40269-10.51649,13.34119-13.24049,21.2977a10.16023,10.16023,0,0,1-2.06868,4.12547c-1.797,1.77428-4.64662,1.73209-7.16861,1.60253-6.69086-.34373-13.44167-.47958-20.04729.63913-2.81275.47636-6.06155,1.06925-8.22327-.79231-.092-.07919-.18925-.19582-.14292-.308s.27534-.01119.18486.0697"/></g><circle class="b32cd6bd-2bd7-42b1-8720-edc47f2c05f5" cx="41.2959" cy="35.69824" r="2.99902"/><path class="acf1f4e3-1d8f-4f90-9fbb-d85c87da0512" d="M41.2959,33.62793a2.07031,2.07031,0,1,1-2.07031,2.07031,2.07262,2.07262,0,0,1,2.07031-2.07031m0-1.8584a3.92871,3.92871,0,1,0,3.92871,3.92871,3.92851,3.92851,0,0,0-3.92871-3.92871Z"/><circle class="b32cd6bd-2bd7-42b1-8720-edc47f2c05f5" cx="15.38867" cy="35.69824" r="2.99902"/><path class="acf1f4e3-1d8f-4f90-9fbb-d85c87da0512" d="M15.38916,33.62793a2.07031,2.07031,0,1,1-2.07031,2.07031,2.07262,2.07262,0,0,1,2.07031-2.07031m0-1.8584a3.92871,3.92871,0,1,0,3.92871,3.92871,3.92851,3.92851,0,0,0-3.92871-3.92871Z"/></svg>