<svg id="bc94261a-2d3f-4559-b36d-3614935db5ac" data-name="Layer 1" xmlns="http://www.w3.org/2000/svg" viewBox="0 0 40.21169 26.2817"><defs><style>.a79d5e43-c1f9-41e1-be60-6e4f0dcca276{fill:none;stroke:#f37371;stroke-miterlimit:10;stroke-width:1.2792px;}.b5038331-5a87-4b81-a8ae-ec0b0aae0511{fill:#b9deee;}.bbc423c6-d346-4837-8fe6-fe74d3aa0e99{fill:#f37371;}</style></defs><title>Artboard 169 copy</title><rect class="a79d5e43-c1f9-41e1-be60-6e4f0dcca276" x="2.80613" y="0.6396" width="36.76596" height="22.21277" rx="1.46972"/><path class="b5038331-5a87-4b81-a8ae-ec0b0aae0511" d="M10.582,2.89219c-1.54638,2.009-3.13916,3.978-4.71435,5.96241-1.56616,1.99194-3.19556,3.92993-4.79151,5.89648l-.88-.83227A71.05191,71.05191,0,0,1,8.49134,6.733,74.6877,74.6877,0,0,1,17.782.85582a.89651.89651,0,0,1,1.07911,1.40283l-.00721.00732C16.30835,4.96641,13.7533,7.64,11.28064,10.3773a85.64555,85.64555,0,0,0-6.95129,8.58252l-.74414-.739c1.976-1.26294,3.96863-2.501,5.93091-3.78418,1.97192-1.2688,3.9281-2.561,5.87963-3.86035C17.35291,9.2855,19.27649,7.94444,21.21851,6.631c1.93774-1.32006,3.88025-2.63256,5.79431-3.98779a.42543.42543,0,0,1,.58252.60718l-.01282.01636L18.91211,14.465l-4.36865,5.57226c-1.41858,1.88623-3.09546,3.63477-3.69251,5.58716L9.447,24.569l13.62989-9.19678q6.83275-4.5714,13.73523-9.03808l.01977-.01294A1.00315,1.00315,0,0,1,38.178,7.76866l-6.26721,8.25146L28.77442,20.1439A20.42416,20.42416,0,0,0,27.337,22.16148a2.54482,2.54482,0,0,0-.39075,1.94678l-.92834-.36377c3.37256-1.71094,6.72973-3.4502,10.12378-5.12158l.01281-.00635a.3311.3311,0,0,1,.46448.38794l-1.67261,5.84839-.00183.00659a.09995.09995,0,0,1-.194-.04761l1.22986-5.9873.4773.38159c-3.2533,1.93115-6.54346,3.79394-9.81824,5.6853a.63754.63754,0,0,1-.87073-.23315.65786.65786,0,0,1-.04639-.09864l-.01147-.03222a3.87266,3.87266,0,0,1,.35413-3.033,17.11553,17.11553,0,0,1,1.46814-2.26465l3.00647-4.21924L36.55811,6.576l1.36572,1.43433q-6.81281,4.60216-13.6709,9.13525L10.47681,26.12217l-.01367.00879a.92853.92853,0,0,1-1.39026-1.06421,11.256,11.256,0,0,1,1.87927-3.343c.75928-.96631,1.51868-1.83911,2.27368-2.75366L17.768,13.53843,26.91883,2.72911l.56958.62353c-1.98035,1.25611-3.9325,2.55445-5.88941,3.84571-1.95251,1.29785-3.92358,2.56787-5.861,3.88818-1.94312,1.312-3.88147,2.63086-5.8042,3.97314-1.93225,1.32789-3.83423,2.70118-5.75293,4.04957a.53246.53246,0,0,1-.75781-.71753L3.43677,18.37a85.572,85.572,0,0,1,6.62561-9.0481c2.389-2.873,4.93372-5.59643,7.48694-8.2893l1.0719,1.41015A82.17988,82.17988,0,0,0,9.44153,8.0482a87.26014,87.26014,0,0,0-8.40564,6.74536l-.02356.02149a.60524.60524,0,0,1-.85644-.85352c1.70068-1.87671,3.368-3.782,5.09863-5.63281,1.72156-1.85889,3.42541-3.73267,5.17578-5.5669a.10017.10017,0,0,1,.15173.13037Z"/><path class="bbc423c6-d346-4837-8fe6-fe74d3aa0e99" d="M13.28938,15.56142a.24739.24739,0,0,1-.07715-.19336V8.25282a.24739.24739,0,0,1,.07715-.19336.26943.26943,0,0,1,.1875-.07226h.87988a.26478.26478,0,0,1,.19239.07226.258.258,0,0,1,.07129.19336v7.11524a.258.258,0,0,1-.07129.19336.26478.26478,0,0,1-.19239.07226h-.87988A.26943.26943,0,0,1,13.28938,15.56142Z"/><path class="bbc423c6-d346-4837-8fe6-fe74d3aa0e99" d="M16.21516,14.19228a.252.252,0,0,1-.07715-.1875v-5.752a.24739.24739,0,0,1,.07715-.19336.26943.26943,0,0,1,.1875-.07226h.92383a.26474.26474,0,0,1,.19238.07226.258.258,0,0,1,.07129.19336v5.752a.26271.26271,0,0,1-.07129.1875.25226.25226,0,0,1-.19238.07617h-.92383A.25639.25639,0,0,1,16.21516,14.19228Z"/><path class="bbc423c6-d346-4837-8fe6-fe74d3aa0e99" d="M19.15169,14.19228a.25567.25567,0,0,1-.07715-.1875v-.69336a.24928.24928,0,0,1,.07715-.19141.26252.26252,0,0,1,.1875-.07227h1.584a1.58253,1.58253,0,0,0,1.18262-.40039,1.72641,1.72641,0,0,0,.42285-1.17187c.00781-.0957.01172-.21289.01172-.35352q0-.208-.01172-.33984a1.4341,1.4341,0,0,0-1.60547-1.57227h-1.584a.25974.25974,0,0,1-.1875-.07812.25564.25564,0,0,1-.07715-.1875V8.25282a.25073.25073,0,0,1,.07715-.19336.27113.27113,0,0,1,.1875-.07226h1.63867a2.924,2.924,0,0,1,2.167.71484,2.99844,2.99844,0,0,1,.75879,2.0586c.00781.09375.01172.21484.01172.36132q0,.23145-.01172.375a2.98953,2.98953,0,0,1-.75879,2.05664,2.924,2.924,0,0,1-2.167.71485H19.33919A.258.258,0,0,1,19.15169,14.19228Z"/><path class="bbc423c6-d346-4837-8fe6-fe74d3aa0e99" d="M28.47,14.19228a.27176.27176,0,0,1-.19824.07617H25.03743a.26174.26174,0,0,1-.26367-.26367v-.64844a.26174.26174,0,0,1,.26367-.26367h1.99121L26.8968,10.6161a5.48545,5.48545,0,0,0-.10449-.85742.87032.87032,0,0,0-.26953-.47851.89187.89187,0,0,0-.59375-.16993h-.50684a.26507.26507,0,0,1-.26367-.26367V8.2079a.25818.25818,0,0,1,.07715-.1875.25418.25418,0,0,1,.18652-.07617h.52832a2.77922,2.77922,0,0,1,1.3916.29687,1.70971,1.70971,0,0,1,.74219.875,4.66161,4.66161,0,0,1,.27539,1.49024l.17578,3.39844A.22029.22029,0,0,1,28.47,14.19228Z"/></svg>