<svg id="b8fa3914-7323-4737-9464-17a1b679a18a" data-name="Layer 1" xmlns="http://www.w3.org/2000/svg" viewBox="0 0 40.21 26.28"><defs><style>.f3c77081-3ceb-4eed-8fc5-8bc903551f03{fill:none;stroke:#5bbf90;stroke-miterlimit:10;stroke-width:1.2792px;}.aea93835-1e78-409c-b08f-81054f56d43a{fill:#5bbf90;}</style></defs><title>Artboard 163</title><rect class="f3c77081-3ceb-4eed-8fc5-8bc903551f03" x="2.80444" y="0.6396" width="36.76596" height="22.21277" rx="1.46972"/><path class="aea93835-1e78-409c-b08f-81054f56d43a" d="M13.28805,15.5617a.25019.25019,0,0,1-.07715-.19336V8.25213a.25022.25022,0,0,1,.07715-.19336.2686.2686,0,0,1,.1875-.07129h.87988a.26415.26415,0,0,1,.19238.07129.261.261,0,0,1,.07129.19336v7.11621a.261.261,0,0,1-.07129.19336.26411.26411,0,0,1-.19238.07129h-.87988A.26856.26856,0,0,1,13.28805,15.5617Z"/><path class="aea93835-1e78-409c-b08f-81054f56d43a" d="M16.21383,14.19159a.25134.25134,0,0,1-.07715-.18653V8.25213a.25022.25022,0,0,1,.07715-.19336.26862.26862,0,0,1,.1875-.07129h.92383a.26417.26417,0,0,1,.19238.07129.261.261,0,0,1,.07129.19336v5.75293a.262.262,0,0,1-.07129.18653.24951.24951,0,0,1-.19238.07714h-.92383A.25351.25351,0,0,1,16.21383,14.19159Z"/><path class="aea93835-1e78-409c-b08f-81054f56d43a" d="M19.15035,14.19159a.2551.2551,0,0,1-.07715-.18653V13.3117a.25148.25148,0,0,1,.07715-.19238.266.266,0,0,1,.1875-.07129h1.584a1.58278,1.58278,0,0,0,1.18261-.40137,1.72631,1.72631,0,0,0,.42285-1.17187c.00782-.0957.01172-.21289.01172-.35254,0-.13867-.0039-.25293-.01172-.34082a1.43452,1.43452,0,0,0-1.60546-1.57227h-1.584a.2634.2634,0,0,1-.26465-.26464V8.25213a.25368.25368,0,0,1,.07715-.19336.27033.27033,0,0,1,.1875-.07129h1.63867a2.924,2.924,0,0,1,2.167.71485A2.994,2.994,0,0,1,23.9023,10.76c.00782.09472.01172.21582.01172.3623,0,.1543-.0039.2793-.01172.374a2.99033,2.99033,0,0,1-.75878,2.05762,2.924,2.924,0,0,1-2.167.71484H19.33785A.25506.25506,0,0,1,19.15035,14.19159Z"/><path class="aea93835-1e78-409c-b08f-81054f56d43a" d="M28.46871,14.19159a.26864.26864,0,0,1-.19824.07714H25.03609a.26339.26339,0,0,1-.26367-.26367v-.64941a.26341.26341,0,0,1,.26367-.26367H27.0273l-.13183-2.47559A5.46968,5.46968,0,0,0,26.791,9.759a.87041.87041,0,0,0-.26953-.47852.88658.88658,0,0,0-.59375-.1709h-.50684a.26339.26339,0,0,1-.26367-.26367V8.20819a.26341.26341,0,0,1,.26367-.26465h.52832a2.77924,2.77924,0,0,1,1.3916.29687,1.71365,1.71365,0,0,1,.74219.875,4.66733,4.66733,0,0,1,.27539,1.49024l.17578,3.39941A.21942.21942,0,0,1,28.46871,14.19159Z"/></svg>