<svg id="bbb4a811-3538-4b69-bb9c-aa555d7a00ae" data-name="Layer 1" xmlns="http://www.w3.org/2000/svg" viewBox="0 0 40.21 26.28"><defs><style>.a3a9cd17-bebf-4f1a-a15c-0d4e35657605{fill:none;stroke:#5289c7;stroke-miterlimit:10;stroke-width:1.2792px;}.a60fb66b-1121-4ea9-8086-acb45d468c2a{fill:#5289c7;}</style></defs><title>Artboard 157</title><rect class="a3a9cd17-bebf-4f1a-a15c-0d4e35657605" x="2.80444" y="0.6396" width="36.76596" height="22.21277" rx="1.46972"/><path class="a60fb66b-1121-4ea9-8086-acb45d468c2a" d="M13.288,15.56149a.24738.24738,0,0,1-.07714-.19335V8.2529a.24742.24742,0,0,1,.07714-.19336.26943.26943,0,0,1,.1875-.07226h.87989a.26476.26476,0,0,1,.19238.07226.258.258,0,0,1,.07129.19336v7.11524a.258.258,0,0,1-.07129.19335.26472.26472,0,0,1-.19238.07227h-.87989A.2694.2694,0,0,1,13.288,15.56149Z"/><path class="a60fb66b-1121-4ea9-8086-acb45d468c2a" d="M16.21374,14.19235a.252.252,0,0,1-.07714-.1875V8.2529a.24742.24742,0,0,1,.07714-.19336.26945.26945,0,0,1,.1875-.07226h.92383a.26478.26478,0,0,1,.19239.07226.258.258,0,0,1,.07128.19336v5.75195a.26266.26266,0,0,1-.07128.1875.25227.25227,0,0,1-.19239.07618h-.92383A.25638.25638,0,0,1,16.21374,14.19235Z"/><path class="a60fb66b-1121-4ea9-8086-acb45d468c2a" d="M19.15027,14.19235a.25568.25568,0,0,1-.07715-.1875v-.69336a.2493.2493,0,0,1,.07715-.1914.26256.26256,0,0,1,.1875-.07227h1.584a1.5825,1.5825,0,0,0,1.18262-.40039,1.72633,1.72633,0,0,0,.42285-1.17187c.00781-.09571.01172-.21289.01172-.35352q0-.208-.01172-.33984a1.4341,1.4341,0,0,0-1.60547-1.57227h-1.584a.25978.25978,0,0,1-.1875-.07812.25568.25568,0,0,1-.07715-.1875V8.2529a.25076.25076,0,0,1,.07715-.19336.27117.27117,0,0,1,.1875-.07226h1.63867a2.924,2.924,0,0,1,2.167.71484,2.99844,2.99844,0,0,1,.75879,2.05859c.00781.09375.01172.21485.01172.36133q0,.23145-.01172.375a2.98953,2.98953,0,0,1-.75879,2.05664,2.924,2.924,0,0,1-2.167.71485H19.33777A.258.258,0,0,1,19.15027,14.19235Z"/><path class="a60fb66b-1121-4ea9-8086-acb45d468c2a" d="M28.46863,14.19235a.27176.27176,0,0,1-.19824.07618H25.036a.26177.26177,0,0,1-.26367-.26368v-.64843a.26177.26177,0,0,1,.26367-.26368h1.99121l-.13183-2.47656a5.48647,5.48647,0,0,0-.1045-.85742.87033.87033,0,0,0-.26953-.47852.89185.89185,0,0,0-.59375-.16992h-.50683a.26507.26507,0,0,1-.26368-.26367V8.208a.25814.25814,0,0,1,.07715-.1875.25419.25419,0,0,1,.18653-.07617h.52832a2.77924,2.77924,0,0,1,1.3916.29687,1.70976,1.70976,0,0,1,.74219.875,4.66216,4.66216,0,0,1,.27539,1.49024l.17578,3.39843A.22032.22032,0,0,1,28.46863,14.19235Z"/></svg>