<svg id="a5ae17ff-7faa-4782-8807-9bfdbf4dfc2d" data-name="Layer 1" xmlns="http://www.w3.org/2000/svg" xmlns:xlink="http://www.w3.org/1999/xlink" viewBox="0 0 45.05171 69.4456"><defs><style>.b2773d62-a87a-49c7-a7b6-54ff38b2593f{fill:none;}.e0338ea8-39ca-4973-a870-79cacb3c7b8c{clip-path:url(#ee58d62d-aea6-4e31-87cb-45c6666a4a72);}.a5cc1326-7a89-4a21-8181-cfb8437e2cce{fill:#414042;opacity:0.48;}.ac73bd40-05bc-45d2-b404-6dfbba5bbbb3{fill:#f6d2ba;}.a3dde6bc-5d8a-40fc-8541-d2b949732781{fill:#566345;}.b659a42d-c27e-4de9-9bc0-751797663aa2{clip-path:url(#aa38fcb6-c0c8-4e87-b9b0-1050a2aaa81e);}.eceaf989-6b81-417a-9850-b7b711e7c349{fill:#4c5939;}.ed09cd3d-3187-4476-8a6f-879618cba5a6{fill:#1a242d;}.fcfb667a-d25b-4d6c-a52f-1e58afe87fc6{clip-path:url(#a610a540-d949-4476-bb49-357d4455e054);}.a4d0a18c-8860-4ea7-b5b5-1822ca1377cc{fill:#e0bba6;}.a93b660b-9932-4779-8f2a-852066ff0e15{fill:#fff;}.ed862556-b52a-4130-a842-800579c136ea{fill:#63774e;}.b5804023-8b48-47d5-955f-9862706cdb1e{clip-path:url(#ef5da303-af8c-4bfb-954a-c361498f44f3);}.e1cd2c80-d57d-4984-8968-8b8b51889d12{fill:#6f825a;}.b27a7f2e-75d3-4f0e-a11b-0762d2a8469e{fill:#938c6c;}.fc465149-81f7-42f2-92d7-2307d3e2ee5a{clip-path:url(#b099b92b-7f6b-4a2d-aa3b-2a206cb3bc44);}.a83180ed-2f2a-4057-b037-f93fc94bf71b{fill:#3c2415;}.a6f0fe96-739e-436a-91a0-684d7f4cb8cd{clip-path:url(#f7ea0dfe-a619-4c9a-8335-3edab5fe9ca4);}.f90e0ae3-ba06-45a1-b4a1-e0ca4ba935d0{fill:#281910;}.ad08b3d1-1345-4549-9709-ad0907f8ec9a{fill:#754c29;}.fce6ebcb-6a53-4d12-99b1-031ef264a0c8{fill:#603913;}.ebd76c8f-44b3-48db-befd-2c0f7e45fdfb{fill:#231f20;}.f4aa3e58-ba1a-4f00-885b-db3f7dd73779{clip-path:url(#a0042ce2-b3c9-49da-bfb9-512ff464c35b);}.a7a12f6a-8cbd-4c89-8938-f348d639bcf1{clip-path:url(#b1ea96f2-8617-4b83-be7d-8f1c57517e6c);}</style><clipPath id="ee58d62d-aea6-4e31-87cb-45c6666a4a72"><rect class="b2773d62-a87a-49c7-a7b6-54ff38b2593f" x="993.41091" y="272.83671" width="530.04255" height="298.14894"/></clipPath><clipPath id="aa38fcb6-c0c8-4e87-b9b0-1050a2aaa81e"><path class="b2773d62-a87a-49c7-a7b6-54ff38b2593f" d="M15.16052,17.7932a14.67138,14.67138,0,0,1-3.22179-1.67093c-.82171-.652-1.44893-1.79922-.3754-2.52566a3.56939,3.56939,0,0,1,2.84725-.12947,15.12029,15.12029,0,0,1,3.3608,1.07941,27.44718,27.44718,0,0,1,3.13238,1.82239c.97635.68442,2.50493,1.25939,2.81519,2.53905a5.7248,5.7248,0,0,1-.585,3.5398c-.44674,1.05045-1.21105,1.87754-1.67253,2.9131a17.20118,17.20118,0,0,1-2.02365,2.70669c-.276.40808-.3377.93652-.57766,1.344.24192-.46116-2.51251-2.20952-2.869-2.38347.627-.61351,1.25521-.84162,1.72059-1.66274.727-1.28277,1.27143-2.71243,1.89754-4.04809.32136-.68555.59885-.79994.07651-1.34275a6.26471,6.26471,0,0,0-1.459-.65819C17.20175,18.81408,16.20788,18.24957,15.16052,17.7932Z"/></clipPath><clipPath id="a610a540-d949-4476-bb49-357d4455e054"><path class="b2773d62-a87a-49c7-a7b6-54ff38b2593f" d="M13.00968,14.30912c-.601.00618-.93632-.51426-1.08291-1.02013a7.80362,7.80362,0,0,1-.26377-1.53552c-.05921-.72207.62127-.89165.83525-1.51279.10963-.31823.25912-.62166.36731-.94039a10.11111,10.11111,0,0,0,.25827-2.63059,4.18677,4.18677,0,0,0-.642-2.13215,4.36776,4.36776,0,0,0-1.65448-1.8779,4.36762,4.36762,0,0,0-1.88384-.49116,5.54085,5.54085,0,0,0-3.39078.79314C3.6334,4.22757,3.45825,6.02224,3.70909,7.95435c.05695.43867.13586.88443.2213,1.3327a8.34511,8.34511,0,0,0,.93852,2.92366,2.92117,2.92117,0,0,0,1.559,1.26249,4.11884,4.11884,0,0,0,2.00274-.09042c.18768-.02649.37462-.02937.56525-.06181.012.26582.11816.51533.11805.77758-.00011.25747-.01823.51882-.0396.77582a10.66162,10.66162,0,0,0-.10577,1.11995,3.52033,3.52033,0,0,0,.4738,1.414c.31308.61134.99661.78781,1.40491,1.29012a11.727,11.727,0,0,0,1.12232,1.38923.41083.41083,0,0,0,.2308.13154.3787.3787,0,0,0,.23137-.08406,3.01679,3.01679,0,0,0,.91933-1.1207,5.22365,5.22365,0,0,0,.81257-2.79592c-.069-.53238-.4265-.71413-.63493-1.131-.10194-.20388-.06408-.69969-.32764-.77434A.67567.67567,0,0,0,13.00968,14.30912Z"/></clipPath><clipPath id="ef5da303-af8c-4bfb-954a-c361498f44f3"><path class="b2773d62-a87a-49c7-a7b6-54ff38b2593f" d="M6.58891,19.25139a4.883,4.883,0,0,0-.49264,3.3623,4.45857,4.45857,0,0,0,.452,1.29517c.19685.31664.4879.56336.67835.902a13.661,13.661,0,0,1,.98488,3.41176c.34214,1.29443.67084,2.59256.96669,3.89843.275,1.21368.6951,2.3854,1.04946,3.57834-.07825-.26341,1.05973-.38385,1.19207-.4039a17.48544,17.48544,0,0,1,2.238-.01325c1.24313-.02726,1.51667-.60656,2.40138-1.21714,0-.39993,2.32386-.82648,2.6374-.91224.51721-.14146.60546-.172.71342-.68038.11685-.55024.18626-1.11527.27891-1.67018a1.58479,1.58479,0,0,0-.26433-1.42084c-.68047-1.124-1.322-2.24926-1.98287-3.37133a4.859,4.859,0,0,1-.60971-1.64884A6.58029,6.58029,0,0,1,16.727,22.65q.15384-1.45071.446-2.88225c.097-.47517.24058-.94574.326-1.42221a7.20832,7.20832,0,0,0,.05676-1.23783c.03014-1.30748-.02505-2.74163-.9174-3.57785-.71417-.66925-2.02835-.43925-2.95935-.53693-1.697-.17807-1.79654,1.62959-2.55633,2.80309-.18913.29211-.39134.57551-.59347.85879-.23322.32686-1.46644,1.63071-1.31631,2.08565a7.59715,7.59715,0,0,1-.496-2.2488,6.9744,6.9744,0,0,1,.45671-2.467c.01835-.05229-.43969.02558-.47577.04106a2.14149,2.14149,0,0,0-.31.19063,1.99964,1.99964,0,0,0-.49873.48521,4.06038,4.06038,0,0,0-.59927,1.42755A18.38956,18.38956,0,0,1,6.58891,19.25139Z"/></clipPath><clipPath id="b099b92b-7f6b-4a2d-aa3b-2a206cb3bc44"><path class="b2773d62-a87a-49c7-a7b6-54ff38b2593f" d="M17.11244,31.639c-.40192.48826,4.18748,3.39552,4.5058,3.98206.74662,1.37573.74169,3.65354.92422,5.17831A25.318,25.318,0,0,1,22.551,48.1823c2.35316,1.46026,4.91842,2.47124,7.13979,4.18692,2.465,1.90383,4.54,4.28037,7.16386,5.985.27985.1818-1.04353,2.66568-1.32128,2.79169-1.79424.814-4.87079-2.47133-6.452-3.14823a50.97961,50.97961,0,0,1-8.20557-4.202,14.28451,14.28451,0,0,1-1.62112-1.21309c-3.04216-2.72765-3.17311-7.037-4.50614-10.6339a16.35331,16.35331,0,0,0-1.09161-2.411c-.348-.612-1.41568-1.38271-1.61906-1.89061-.57988-1.4482,1.07944-1.99219,2.07373-2.71267A17.65288,17.65288,0,0,0,17.11244,31.639Z"/></clipPath><clipPath id="f7ea0dfe-a619-4c9a-8335-3edab5fe9ca4"><path class="b2773d62-a87a-49c7-a7b6-54ff38b2593f" d="M15.02607.05061A2.62837,2.62837,0,0,1,17.718,1.19942a19.54265,19.54265,0,0,1,1.98785,3.46891,14.6256,14.6256,0,0,0,1.07406,1.97775,4.39633,4.39633,0,0,0,.739.83c.19238.16325,1.03971.44186.79643.8073-.26233.39377-1.01735.481-1.44436.506a8.13756,8.13756,0,0,1-.91989.00181c-.23152-.01264-.64619-.14933-.8622-.06279-.40391.1618-.201.75875-.79876.68044a4.36223,4.36223,0,0,1-3.63623-3.08627,1.8155,1.8155,0,0,0-.4783-.85745c-.26966-.21827-.63411-.26528-.91539-.46762.21763-.16867-.43332-.98079-.55394-1.22264a2.32331,2.32331,0,0,1-.29-1.515A3.24933,3.24933,0,0,1,15.02607.05061Z"/></clipPath><clipPath id="a0042ce2-b3c9-49da-bfb9-512ff464c35b"><path class="b2773d62-a87a-49c7-a7b6-54ff38b2593f" d="M10.49573,11.57631a3.11914,3.11914,0,0,1-1.31538-1.01175,1.63785,1.63785,0,0,1-.09481-1.72964,1.66964,1.66964,0,0,0,.447-1.15548.61263.61263,0,0,0-.52736-.59378c-.4437-.00977-.58421.45485-.82156.72621-.54786.62637-1.04489-.08954-1.51418-.34108a1.94386,1.94386,0,0,0-.5291-.16415c-.4406-.09177-.89026-.14562-1.335-.21319a3.17053,3.17053,0,0,0-.65174-.11052.439.439,0,0,0-.26457.13872c-.03789.03894-.14061.2974-.165.30341-.22629.05588-.4644-.8955-.50372-1.06516a3.70183,3.70183,0,0,1-.0817-1.21177A2.783,2.783,0,0,1,4.30829,3.10906c.5088-.34733,1.9585-.42414,2.461-.79583A4.649,4.649,0,0,1,10.82539,2.157a5.71943,5.71943,0,0,1,2.98375,4.34372,6.11822,6.11822,0,0,1,.05434,2.44607,3.91423,3.91423,0,0,1-1.46516,1.95209c-.22552.15579-.47532.2772-.68483.454a1.8731,1.8731,0,0,1-.41171.31978.80385.80385,0,0,1-.62068-.01689C10.62,11.631,10.55805,11.60453,10.49573,11.57631Z"/></clipPath><clipPath id="b1ea96f2-8617-4b83-be7d-8f1c57517e6c"><path class="b2773d62-a87a-49c7-a7b6-54ff38b2593f" d="M21.79486,32.85225a9.59545,9.59545,0,0,0-.71527-1.54677,5.864,5.864,0,0,0-.7481-1.053,5.07736,5.07736,0,0,0-.61185-.53922.23728.23728,0,0,0-.2578-.047,3.78925,3.78925,0,0,1-.37024.10459c-.12506.01839-.2566.02094-.38356.04078a5.66412,5.66412,0,0,0-1.54569.56179c-1.57039.80811-2.85387,1.99186-4.34886,2.88458-2.36472,1.41208-4.16444,3.5604-6.05434,5.51456L4.95773,40.63521c-1.89,1.95429-2.61691,4.24568-1.20291,6.67161a15.67113,15.67113,0,0,0,3.94,5.0912l4.00561,2.91635,2.00281,1.45817c.33278.24228.66365.48748.99856.7268.03618.02586.66323.41651.52436.4691a2.92893,2.92893,0,0,0,.902-.63915c.44991-.41367,1.57478-1.11128,1.11324-1.80516a48.19335,48.19335,0,0,0-8.61869-9.772,10.118,10.118,0,0,1,2.80567-1.32948,28.07773,28.07773,0,0,0,2.99877-1.55252,30.79864,30.79864,0,0,0,5.37568-4.07065C21.45354,37.24082,22.67631,35.14294,21.79486,32.85225Z"/></clipPath></defs><title>Artboard 20</title><ellipse class="a5cc1326-7a89-4a21-8181-cfb8437e2cce" cx="22.52585" cy="65.36011" rx="22.52585" ry="4.08548"/><path class="ac73bd40-05bc-45d2-b404-6dfbba5bbbb3" d="M17.50373,26.90843c-.93727.00264-1.47815.664-2.32436,1.17547-.67123.4056-1.26182.98884-.09727,1.00592-.01333-.0002-.45951.66462-.541.745-.251.24785-.58.41492-.70437.76589a.99463.99463,0,0,0,.27476,1.04646,1.36411,1.36411,0,0,0,1.5949.19429c.83729-.48765,4.24114-3.66129,2.81578-4.6763a1.21613,1.21613,0,0,0-.40292-.17284A2.40344,2.40344,0,0,0,17.50373,26.90843Z"/><path class="a3dde6bc-5d8a-40fc-8541-d2b949732781" d="M15.16052,17.8431a14.67138,14.67138,0,0,1-3.22179-1.67093c-.82171-.652-1.44893-1.79922-.3754-2.52566a3.56939,3.56939,0,0,1,2.84725-.12947,15.12029,15.12029,0,0,1,3.3608,1.07941,27.44718,27.44718,0,0,1,3.13238,1.82239c.97635.68442,2.50493,1.25939,2.81519,2.539a5.7248,5.7248,0,0,1-.585,3.5398c-.44674,1.05045-1.21105,1.87754-1.67253,2.9131a17.20118,17.20118,0,0,1-2.02365,2.70669c-.276.40808-.3377.93652-.57766,1.344.24192-.46116-2.51251-2.20952-2.869-2.38347.627-.61351,1.25521-.84162,1.72059-1.66274.727-1.28277,1.27143-2.71243,1.89754-4.04809.32136-.68555.59885-.79994.07651-1.34275a6.26471,6.26471,0,0,0-1.459-.65819C17.20175,18.864,16.20788,18.29947,15.16052,17.8431Z"/><g class="b659a42d-c27e-4de9-9bc0-751797663aa2"><path class="eceaf989-6b81-417a-9850-b7b711e7c349" d="M19.16705,21.14367a1.44388,1.44388,0,0,1-.58092.04939,3.88125,3.88125,0,0,1-1.99031-.4675A5.4938,5.4938,0,0,1,15.18491,18.578a4.05949,4.05949,0,0,1-.6407-2.626,2.72782,2.72782,0,0,1,.43358-.9529,2.58315,2.58315,0,0,1,1.43014-1.0492c.72347-.177,1.08615.3432,1.51937.85A8.57991,8.57991,0,0,1,19.05852,16.501C19.55971,17.49183,20.86074,20.51129,19.16705,21.14367Z"/></g><path class="ed09cd3d-3187-4476-8a6f-879618cba5a6" d="M35.65115,60.02428a2.45817,2.45817,0,0,1,.99379-1.11,1.94878,1.94878,0,0,1,1.796.23264,1.18928,1.18928,0,0,1,.54023.48544,1.528,1.528,0,0,1,.1155.6923,6.88551,6.88551,0,0,1-.88291,3.28511A3.75,3.75,0,0,1,36.6849,65.209a1.4924,1.4924,0,0,1-1.8662-.31336,2.90263,2.90263,0,0,1-.04266-2.30544,3.29882,3.29882,0,0,0,.21546-1.18595,1.18936,1.18936,0,0,1-.01827-.27658c.02019-.17413.22579-.32811.31765-.47856C35.41607,60.4441,35.52629,60.22976,35.65115,60.02428Z"/><path class="ed09cd3d-3187-4476-8a6f-879618cba5a6" d="M16.18763,56.73845a2.57706,2.57706,0,0,1,1.30978-.78516A1.92637,1.92637,0,0,1,19.154,56.703a1.16414,1.16414,0,0,1,.36645.62794,1.55856,1.55856,0,0,1-.10842.70433,7.20384,7.20384,0,0,1-1.89321,2.92444,3.92742,3.92742,0,0,1-1.98061,1.10287,1.47517,1.47517,0,0,1-1.69861-.84833,2.9884,2.9884,0,0,1,.69053-2.24567,3.43977,3.43977,0,0,0,.58395-1.08589,1.2227,1.2227,0,0,1,.07017-.27325c.07472-.16278.32168-.25191.45792-.37083C15.82791,57.07648,16.00212,56.901,16.18763,56.73845Z"/><path class="a3dde6bc-5d8a-40fc-8541-d2b949732781" d="M17.11244,31.639c-.40192.48826,4.18748,3.39552,4.5058,3.98206.74662,1.37573.74169,3.65354.92422,5.17831A25.318,25.318,0,0,1,22.551,48.1823c2.35316,1.46026,4.91842,2.47124,7.13979,4.18692,2.465,1.90383,4.54,4.28037,7.16386,5.985.27985.1818-1.04353,2.66568-1.32128,2.79169-1.79424.814-4.87079-2.47133-6.452-3.14823a50.97961,50.97961,0,0,1-8.20557-4.202,14.28451,14.28451,0,0,1-1.62112-1.21309c-3.04216-2.72765-3.17311-7.037-4.50614-10.6339a16.35331,16.35331,0,0,0-1.09161-2.411c-.348-.612-1.41568-1.38271-1.61906-1.89061-.57988-1.4482,1.07944-1.99219,2.07373-2.71267A17.65288,17.65288,0,0,0,17.11244,31.639Z"/><path class="ac73bd40-05bc-45d2-b404-6dfbba5bbbb3" d="M13.00968,14.30912c-.601.00618-.93632-.51426-1.08291-1.02013a7.80362,7.80362,0,0,1-.26377-1.53552c-.05921-.72207.62127-.89165.83525-1.51279.10963-.31823.25912-.62166.36731-.94039a10.11111,10.11111,0,0,0,.25827-2.63059,4.18677,4.18677,0,0,0-.642-2.13215,4.36776,4.36776,0,0,0-1.65448-1.8779,4.36762,4.36762,0,0,0-1.88384-.49116,5.54085,5.54085,0,0,0-3.39078.79314C3.6334,4.22757,3.45825,6.02224,3.70909,7.95435c.05695.43867.13586.88443.2213,1.3327a8.34511,8.34511,0,0,0,.93852,2.92366,2.92117,2.92117,0,0,0,1.559,1.26249,4.11884,4.11884,0,0,0,2.00274-.09042c.18768-.02649.37462-.02937.56525-.06181.012.26582.11816.51533.11805.77758-.00011.25747-.01823.51882-.0396.77582a10.66162,10.66162,0,0,0-.10577,1.11995,3.52033,3.52033,0,0,0,.4738,1.414c.31308.61134.99661.78781,1.40491,1.29012a11.727,11.727,0,0,0,1.12232,1.38923.41083.41083,0,0,0,.2308.13154.3787.3787,0,0,0,.23137-.08406,3.01679,3.01679,0,0,0,.91933-1.1207,5.22365,5.22365,0,0,0,.81257-2.79592c-.069-.53238-.4265-.71413-.63493-1.131-.10194-.20388-.06408-.69969-.32764-.77434A.67567.67567,0,0,0,13.00968,14.30912Z"/><g class="fcfb667a-d25b-4d6c-a52f-1e58afe87fc6"><path class="a4d0a18c-8860-4ea7-b5b5-1822ca1377cc" d="M10.922,11.53189a4.1826,4.1826,0,0,1-.72089,2.16753,6.12969,6.12969,0,0,1-.63392.69326c-.09987.097-.445.30326-.44513.45888a4.24558,4.24558,0,0,0-.01453-.47368c-.03867-.05941-.20643.12519-.27711.115a.99368.99368,0,0,1-.4865-.28132c-.11768-.1025-.4596-.34626-.40227-.53889.05927-.19888.84742-.45651,1.04026-.57A8.40513,8.40513,0,0,0,10.922,11.53189Z"/><path class="a4d0a18c-8860-4ea7-b5b5-1822ca1377cc" d="M5.48,7.212c.07866-.02412.17534-.0733.16425-.15483a.16315.16315,0,0,0-.06991-.09691,1.85562,1.85562,0,0,0-.98447-.32118.998.998,0,0,0-.90786.23271.94883.94883,0,0,0-.15818.52306,1.33,1.33,0,0,0,.177.96669,2.005,2.005,0,0,1,.7236-.72555A5.37035,5.37035,0,0,1,5.48,7.212Z"/></g><path class="a93b660b-9932-4779-8f2a-852066ff0e15" d="M8.31418,15.79937a2.93116,2.93116,0,0,1,.33385-.98718,2.13676,2.13676,0,0,0,.16143-.29851c.02625-.06427.23044-.34257.22788-.37662a1.9494,1.9494,0,0,0,.2844.96738c.09327.15733.21144.42338.37849.5092.38.19522.887-.13809,1.16246-.36915.511-.42854.97187-1.19146,1.51662-1.53305.35535-.22283.29307-.32323.57084.1191a6.25579,6.25579,0,0,1,.40173,2.1463q.18351,1.09259.34948,2.188.32942,2.16828.60368,4.34445c.18554,1.451.35778,2.90372.52547,4.35691.04449.38556.6244,4.28872.49411,4.33272a17.33246,17.33246,0,0,1-5.84067.9063q-.30935-1.9055-.546-3.82185-.62272-5.04181-.74012-10.129A12.06755,12.06755,0,0,1,8.31418,15.79937Z"/><path class="ed862556-b52a-4130-a842-800579c136ea" d="M8.99623,14.57423c.04306-.14792.216-.55068-.00149-.59826-.17525-.03833-.47637.193-.607.28042a1.99964,1.99964,0,0,0-.49873.48521,4.06038,4.06038,0,0,0-.59927,1.42755,18.38956,18.38956,0,0,1-.7008,3.08224,4.883,4.883,0,0,0-.49264,3.3623,4.45857,4.45857,0,0,0,.452,1.29517c.19685.31664.4879.56336.67835.902.35574.63265.56387,1.33754.87219,1.99414a13.145,13.145,0,0,1,.86679,2.07159,7.48778,7.48778,0,0,1,.17323,1.9876,16.82982,16.82982,0,0,0,1.08882,4.8352c-.07825-.26341,1.05973-.38385,1.19207-.4039a17.48544,17.48544,0,0,1,2.238-.01325c1.24313-.02726,1.51667-.60656,2.40138-1.21714,0-.39993,2.32386-.82648,2.6374-.91224.51721-.14146.60546-.172.71342-.68038.11685-.55024.18626-1.11527.27891-1.67018a1.58479,1.58479,0,0,0-.26433-1.42084c-.68047-1.124-1.322-2.24926-1.98287-3.37133a4.859,4.859,0,0,1-.60971-1.64884A6.58029,6.58029,0,0,1,16.727,22.65q.15384-1.45071.446-2.88225c.097-.47517.24058-.94574.326-1.42221a7.20832,7.20832,0,0,0,.05676-1.23783c.03014-1.30748-.02505-2.74163-.9174-3.57785-.71417-.66925-2.02835-.43925-2.95935-.53693-1.697-.17807-1.79654,1.62959-2.55633,2.80309-.18913.29211-.39134.57551-.59347.85879-.23322.32686-1.46644,1.63071-1.31631,2.08565a7.59715,7.59715,0,0,1-.496-2.2488,6.08111,6.08111,0,0,1,.11652-1.2543,7.31024,7.31024,0,0,0,.23032-1.21217"/><g class="b5804023-8b48-47d5-955f-9862706cdb1e"><path class="a3dde6bc-5d8a-40fc-8541-d2b949732781" d="M16.38544,17.20884a11.92184,11.92184,0,0,1-1.44669,1.82327,8.12269,8.12269,0,0,0-.83073,1.22816c-.81868,1.38889-1.36583,2.90789-2.21708,4.27961a1.66383,1.66383,0,0,1-.64556.67588,3.97,3.97,0,0,1-2.11279-.09309c-.5302-.08036-.71912-.06542-.28757.3258a7.51278,7.51278,0,0,0,3.83182,2.14964,4.704,4.704,0,0,0,2.628-.50323,3.325,3.325,0,0,0,1.15234-.9505,3.02547,3.02547,0,0,1,.81563-.63268c.488-.31479.46229-.36062.32335-.91176A3.11272,3.11272,0,0,1,17.692,22.282c.42792-.73949,1.084-1.28969,1.15055-2.19979.05781-.79121-.124-1.53563-.13021-2.31315-.00667-.83848.58326-2.2026-.15973-2.91549-.42289-.40577-.79649.31632-.95955.59882C17.23857,16.06653,16.74305,16.59394,16.38544,17.20884Z"/></g><path class="e1cd2c80-d57d-4984-8968-8b8b51889d12" d="M10.57025,31.10533c.1226.82019.36265,1.66237.42165,2.48535a.20684.20684,0,0,1-.01415.11427.213.213,0,0,1-.1096.08235,1.30236,1.30236,0,0,1-.53765.10573.15815.15815,0,0,1-.11448-.03473.149.149,0,0,1-.0285-.10131,41.46552,41.46552,0,0,0-.45437-4.80432c-.215-1.50443-.83024-2.90487-1.16045-4.39186a10.23576,10.23576,0,0,1-.29032-2.23316,18.72531,18.72531,0,0,1,.12547-2.41443c.07377-.56041.5965-1.89054.21708-2.356a1.52948,1.52948,0,0,1,.43095,1.35793,2.028,2.028,0,0,1,.51875-.65941c.05428-.04526.13142-.08911.19072-.05066.06918.04485.04307.15031.01089.22622a9.57484,9.57484,0,0,0-.49154,4.9445c.151,1.16816.43421,2.39243.68845,3.55489C10.27033,28.28953,10.36436,29.72785,10.57025,31.10533Z"/><path class="b27a7f2e-75d3-4f0e-a11b-0762d2a8469e" d="M19.51055,29.32142q.02373.04875.04659.09791a1.53725,1.53725,0,0,1,.172.58854,1.17826,1.17826,0,0,1-.2899.76014,5.538,5.538,0,0,1-2.12472,1.35887q-.97429.44279-1.99444.79407a22.96159,22.96159,0,0,1-4.09044,1c-.45521.06771-1.0885.30936-1.4612-.00668-.33633-.28521-.43645-1.64109-.50541-2.07144a4.855,4.855,0,0,0,1.14944.16472,10.7942,10.7942,0,0,0,1.61116-.20084,15.08961,15.08961,0,0,0,3.58934-1.19318c.56109-.26582,1.10753-.56167,1.64287-.87592a7.83767,7.83767,0,0,0,1.40468-1.2399c.06587-.06335.14953-.13182.238-.10889a.26665.26665,0,0,1,.13713.12115A6.14723,6.14723,0,0,1,19.51055,29.32142Z"/><g class="fc465149-81f7-42f2-92d7-2307d3e2ee5a"><path class="eceaf989-6b81-417a-9850-b7b711e7c349" d="M15.37169,40.9368a2.33586,2.33586,0,0,0-.80555,1.11394,2.54225,2.54225,0,0,0,.10056,1.2182q.4279,1.69735.90946,3.38059c.0776.27128.21094.59176.49086.62719.23321.02952.42986-.16214.58384-.33975A25.30954,25.30954,0,0,0,20.928,39.98059c.21772-.53043,1.50553-3.23086,1.06219-3.67215-.43124-.42925-2.41273,1.59647-2.86641,1.91669A41.84849,41.84849,0,0,0,15.37169,40.9368Z"/></g><path class="ed862556-b52a-4130-a842-800579c136ea" d="M21.79486,32.85225a9.59545,9.59545,0,0,0-.71527-1.54677,5.864,5.864,0,0,0-.7481-1.053,5.07736,5.07736,0,0,0-.61185-.53922.23728.23728,0,0,0-.2578-.047,3.78925,3.78925,0,0,1-.37024.10459c-.12506.01839-.2566.02094-.38356.04078a5.66412,5.66412,0,0,0-1.54569.56179c-1.57039.80811-2.85387,1.99186-4.34886,2.88458-2.36472,1.41208-4.16444,3.5604-6.05434,5.51456L4.95773,40.63521c-1.89,1.95429-2.61691,4.24568-1.20291,6.67161a15.67113,15.67113,0,0,0,3.94,5.0912l4.00561,2.91635,2.00281,1.45817c.33278.24228.66365.48748.99856.7268.03618.02586.66323.41651.52436.4691a2.92893,2.92893,0,0,0,.902-.63915c.44991-.41367,1.57478-1.11128,1.11324-1.80516a48.19335,48.19335,0,0,0-8.61869-9.772,10.118,10.118,0,0,1,2.80567-1.32948,28.07773,28.07773,0,0,0,2.99877-1.55252,30.79864,30.79864,0,0,0,5.37568-4.07065C21.45354,37.24082,22.67631,35.14294,21.79486,32.85225Z"/><path class="a4d0a18c-8860-4ea7-b5b5-1822ca1377cc" d="M7.2461,7.70306a.11567.11567,0,0,0-.00493.12364.38869.38869,0,0,0,.08483.099c.14713.14028.23913.37067.42026.4573a.28644.28644,0,0,0,.33881-.121A1.00644,1.00644,0,0,0,8.245,7.85648c.02375-.152-.03909-.222-.15744-.31492a.87939.87939,0,0,0-.75026-.15363C7.25659,7.41088,7.24769,7.61917,7.2461,7.70306Z"/><path class="a4d0a18c-8860-4ea7-b5b5-1822ca1377cc" d="M8.67509,7.78a.26524.26524,0,0,1,.15423-.17716.28142.28142,0,0,1,.30583-.02057.20974.20974,0,0,1,.043.23859A.55754.55754,0,0,1,9.014,8.019a1.32419,1.32419,0,0,0-.41937.47456c-.02358.06056-.02669.1467.03283.1728a.10968.10968,0,0,0,.10491-.02085c.11337-.08284.1112-.23553.15075-.357.04843-.14871.17392-.23859.22792-.39026"/><path class="b2773d62-a87a-49c7-a7b6-54ff38b2593f" d="M4.46277,2.8714a3.71846,3.71846,0,0,1,1.26486-.82026,5.26381,5.26381,0,0,1,1.6903-.51959c.4656-.00707.956-.03215,1.42525-.003a4.979,4.979,0,0,1,2.917,1.17243,2.62015,2.62015,0,0,1,.66387.70433,11.63318,11.63318,0,0,1,.98053,2.49988,5.24517,5.24517,0,0,1,.08048,1.66,7.81276,7.81276,0,0,1-.36969,2.28043c-.13578.3691-.33025.71119-.49888,1.06542-.26155.54941-.22676,1.49337-1.08809.86091a2.98387,2.98387,0,0,1-.48953-.5051c-.2806-.32888-.559-.66068-.87084-.9609-.33758-.325-.37693-.457-.07438-.88064a1.73523,1.73523,0,0,0,.29929-1.27278.5653.5653,0,0,0-.15178-.33748c-.19755-.17927-.52394-.074-.73372.09264-1.02323.813-.473-.22344-1.36232-.41317-.50484-.1077-1.15015.0707-1.6805.01633a4.25371,4.25371,0,0,1-1.03823-.256,1.69021,1.69021,0,0,0-.99152-.07673c-.24614.041-.63431.62187-.8428.50234a.339.339,0,0,1-.1336-.19185A4.02645,4.02645,0,0,1,3.38555,6.131,4.66375,4.66375,0,0,1,4.46277,2.8714Z"/><path class="a83180ed-2f2a-4057-b037-f93fc94bf71b" d="M10.49573,11.57631a3.11914,3.11914,0,0,1-1.31538-1.01175,1.63785,1.63785,0,0,1-.09481-1.72964,1.66964,1.66964,0,0,0,.447-1.15548.61263.61263,0,0,0-.52736-.59378c-.4437-.00977-.58421.45485-.82156.72621-.54786.62637-1.04489-.08954-1.51418-.34108a1.94386,1.94386,0,0,0-.5291-.16415c-.4406-.09177-.89026-.14562-1.335-.21319a3.17053,3.17053,0,0,0-.65174-.11052.439.439,0,0,0-.26457.13872c-.03789.03894-.14061.2974-.165.30341-.22629.05588-.4644-.8955-.50372-1.06516a3.70183,3.70183,0,0,1-.0817-1.21177A2.783,2.783,0,0,1,4.30829,3.10906c.5088-.34733,1.9585-.42414,2.461-.79583A4.649,4.649,0,0,1,10.82539,2.157a5.71943,5.71943,0,0,1,2.98375,4.34372,6.11822,6.11822,0,0,1,.05434,2.44607,3.91423,3.91423,0,0,1-1.46516,1.95209c-.22552.15579-.47532.2772-.68483.454a1.8731,1.8731,0,0,1-.41171.31978.80385.80385,0,0,1-.62068-.01689C10.62,11.631,10.55805,11.60453,10.49573,11.57631Z"/><path class="a83180ed-2f2a-4057-b037-f93fc94bf71b" d="M15.02607.05061A2.62837,2.62837,0,0,1,17.718,1.19942a19.54265,19.54265,0,0,1,1.98785,3.46891,14.6256,14.6256,0,0,0,1.07406,1.97775,4.39633,4.39633,0,0,0,.739.83c.19238.16325,1.03971.44186.79643.8073-.26233.39377-1.01735.481-1.44436.506a8.13756,8.13756,0,0,1-.91989.00181c-.23152-.01264-.64619-.14933-.8622-.06279-.40391.1618-.201.75875-.79876.68044a4.36223,4.36223,0,0,1-3.63623-3.08627,1.8155,1.8155,0,0,0-.4783-.85745c-.26966-.21827-.63411-.26528-.91539-.46762.21763-.16867-.43332-.98079-.55394-1.22264a2.32331,2.32331,0,0,1-.29-1.515A3.24933,3.24933,0,0,1,15.02607.05061Z"/><g class="a6f0fe96-739e-436a-91a0-684d7f4cb8cd"><path class="f90e0ae3-ba06-45a1-b4a1-e0ca4ba935d0" d="M17.083,4.34874a1.10056,1.10056,0,0,0-.38783-.26721.8157.8157,0,0,0-.92835.411,1.44751,1.44751,0,0,0-.076,1.073,7.59545,7.59545,0,0,0,.41612,1.02028,4.68065,4.68065,0,0,0,.37781.78632,3.04816,3.04816,0,0,0,.81626.75337,4.47792,4.47792,0,0,0,1.08531.59229,4.247,4.247,0,0,0,1.07855.19264,3.20038,3.20038,0,0,0,2.13533-.43362,2.77448,2.77448,0,0,1-1.80167-.58628,4.624,4.624,0,0,1-1.891-2.69419.7696.7696,0,0,0-.36828-.42383A3.95906,3.95906,0,0,1,17.083,4.34874Z"/></g><path class="ad08b3d1-1345-4549-9709-ad0907f8ec9a" d="M12.72911,3.96893a1.51645,1.51645,0,0,0,.67935.7859,2.542,2.542,0,0,1,1.0273.80682,4.03907,4.03907,0,0,0,1.738,1.696,4.40985,4.40985,0,0,0,2.501.43523A1.493,1.493,0,0,1,18.05246,6.627a5.54518,5.54518,0,0,1,.07714-.99336,4.92945,4.92945,0,0,0-.71-2.69363,3.945,3.945,0,0,0-2.969-2.128,1.99521,1.99521,0,0,0-1.89994,1.04339A2.43123,2.43123,0,0,0,12.72911,3.96893Z"/><path class="fce6ebcb-6a53-4d12-99b1-031ef264a0c8" d="M13.656,2.57431a1.66282,1.66282,0,0,1,1.48.45259,10.20489,10.20489,0,0,1,.79192,1.19078,2.42719,2.42719,0,0,0,1.26012.8756,1.88123,1.88123,0,0,1-1.64764-.03289c-.41365-.216-.75808-.59244-1.21862-.66776-.48763-.07976-1.02.1982-1.46423-.01814C11.78866,3.854,12.98087,2.709,13.656,2.57431Z"/><path class="ebd76c8f-44b3-48db-befd-2c0f7e45fdfb" d="M11.9526,3.15021a.62108.62108,0,0,0,.014.21941,3.61108,3.61108,0,0,0,.71327,1.54555.66285.66285,0,0,0,.33094.234.28166.28166,0,0,0,.33542-.1644.38858.38858,0,0,0-.0578-.27689,9.02614,9.02614,0,0,0-.50325-.7654,1.76638,1.76638,0,0,1-.329-.84424c-.00946-.16227-.04372-.3236-.237-.28115A.355.355,0,0,0,11.9526,3.15021Z"/><path class="f90e0ae3-ba06-45a1-b4a1-e0ca4ba935d0" d="M12.65614,5.3088a1.44087,1.44087,0,0,1-.14305,1.33312,5.24079,5.24079,0,0,1-1.51736,1.44372,2.02376,2.02376,0,0,0-.35984.32432,1.47032,1.47032,0,0,0-.24945.5154,2.678,2.678,0,0,0-.05771,1.254,4.79362,4.79362,0,0,0,1.52877-.9949,5.16764,5.16764,0,0,0,.76085-1.2618c.31525-.751.63987-2.04441.03622-2.58972"/><path class="ad08b3d1-1345-4549-9709-ad0907f8ec9a" d="M8.72434,4.19366a3.2856,3.2856,0,0,0-1.91248,1.5269,1.55991,1.55991,0,0,1-.88876.778c-.39666.07723-.92043-.02922-.97911-.46391A1.7537,1.7537,0,0,1,5.4025,4.6918a3.38175,3.38175,0,0,1,1.609-1.00829c1.417-.41974,3.00242-.03425,4.37585-.57988a1.784,1.784,0,0,1-.70549.42566A19.69172,19.69172,0,0,1,8.72434,4.19366Z"/><g class="f4aa3e58-ba1a-4f00-885b-db3f7dd73779"><path class="fce6ebcb-6a53-4d12-99b1-031ef264a0c8" d="M11.33212,5.25429c-1.01946.62967-3.96639.04-3.91548,1.84715a.42516.42516,0,0,0,.12757.30877c.37305.32939.94792-.38456,1.236-.57071.99337-.642,2.42652-.46659,3.04675-1.6295a2.21011,2.21011,0,0,0,.34036-1.17627A2.13347,2.13347,0,0,1,11.33212,5.25429Z"/><path class="f90e0ae3-ba06-45a1-b4a1-e0ca4ba935d0" d="M12.17781,11.45065a2.1851,2.1851,0,0,1-.125-1.123,2.63521,2.63521,0,0,1,.44869-.81359,6.276,6.276,0,0,0,.97692-2.36587c.02205.31054.01767.62228.01327.93358a6.01347,6.01347,0,0,1-.17393,1.63732c-.20065.67377-.81477,1.088-1.0842,1.73084"/><path class="ad08b3d1-1345-4549-9709-ad0907f8ec9a" d="M2.58118,3.44373a4.16975,4.16975,0,0,1,.88517-.86117A7.522,7.522,0,0,1,5.1649,1.51137,6.05175,6.05175,0,0,1,8.6757,1.294a4.9,4.9,0,0,1,2.88385,1.51454,6.90789,6.90789,0,0,0-2.27893-.58663A4.4003,4.4003,0,0,0,6.98651,2.663c-.24166.12484-.47013.2766-.72225.37869a5.18324,5.18324,0,0,1-.73373.20511,2.5282,2.5282,0,0,0-1.53765.86059c-.324.46187-.25135,1.03953-.61938,1.48045a.79667.79667,0,0,1-.71886.2854c-.26793-.07445-.39716-.49472-.50335-.74194A2.09953,2.09953,0,0,1,2.58118,3.44373Z"/></g><path class="ac73bd40-05bc-45d2-b404-6dfbba5bbbb3" d="M5.10747,20.61335c-.00265-.93728-.664-1.47815-1.17547-2.32437-.4056-.67123-.98884-1.26182-1.00593-.09727.00021-.01333-.66462-.45951-.745-.541-.24785-.251-.41491-.58-.76589-.70438a.99464.99464,0,0,0-1.04646.27477A1.36411,1.36411,0,0,0,.17438,18.816c.48766.83728,3.6613,4.24114,4.67631,2.81578a1.21626,1.21626,0,0,0,.17284-.40293A2.4043,2.4043,0,0,0,5.10747,20.61335Z"/><path class="e1cd2c80-d57d-4984-8968-8b8b51889d12" d="M10.647,22.718c1.52025.71251,1.4517-.7706,1.81006-1.91461.59172-1.889.80895-3.79493,1.593-5.6536.44281-1.04981,2.10056-2.40628,3.00151-1.07477.91531,1.353.29988,3.42122-.10241,4.84554-.48337,1.71138-.457,3.49048-1.35137,5.09055-.5681,1.01636-1.30747,2.51865-2.53969,2.81745a5.72476,5.72476,0,0,1-3.53979-.585C8.46775,25.79683,7.64067,25.03251,6.6051,24.571a7.09282,7.09282,0,0,1-1.63962-1.1363,15.21179,15.21179,0,0,1-1.69223-1.378c-.43037-.48389.16286-.743.47005-1.14861.27432-.36255.47163-.779.75-1.14042.27536-.35747.62829-.5035.99564-.18918a1.87407,1.87407,0,0,1,.3184.47647A4.79813,4.79813,0,0,0,7.989,21.52787C8.86878,21.93832,9.76785,22.306,10.647,22.718Z"/><path class="e1cd2c80-d57d-4984-8968-8b8b51889d12" d="M8.04082,38.71853a16.47318,16.47318,0,0,0-1.94951,1.08432,10.317,10.317,0,0,0,1.88614-1.9275,20.69919,20.69919,0,0,1,1.94721-1.93886,43.64292,43.64292,0,0,1,5.01978-3.792c1.23092-.79982,2.58925-1.89634,4.15949-1.56173a2.96631,2.96631,0,0,1,2.33183,3.10348,2.68053,2.68053,0,0,1-1.32512,2.408c-1.14991.51687-2.67907.238-3.90326.35014a22.75464,22.75464,0,0,0-4.91155,1.00577A26.74542,26.74542,0,0,0,8.04082,38.71853Z"/><g class="a7a12f6a-8cbd-4c89-8938-f348d639bcf1"><path class="a3dde6bc-5d8a-40fc-8541-d2b949732781" d="M13.12638,48.3725a21.26855,21.26855,0,0,0-1.74222-2.022,5.9873,5.9873,0,0,0-1.01791-.86515c.02483-.26433-.88855-.01249-.96889.01475a9.83625,9.83625,0,0,1-1.925.41829c-.03415.00425-.07387.01232-.08864.0434a.098.098,0,0,0,.01655.088.70761.70761,0,0,0,.27324.26345c.67045.361,1.289.90747,1.948,1.32745.70137.447,1.41148.88138,2.08891,1.36459.95545.68152,1.81983,1.519,2.78486,2.1739A.687.687,0,0,0,14.492,50.422,11.15976,11.15976,0,0,0,13.12638,48.3725Z"/></g></svg>