<svg id="b011acb4-cc5c-4461-bc7f-bdf106b5ce68" data-name="Layer 1" xmlns="http://www.w3.org/2000/svg" viewBox="0 0 47.77657 25.53"><defs><style>.bb5c663c-7834-4129-b5b0-d203192cf9dc{fill:none;stroke:#5bbf90;stroke-miterlimit:10;stroke-width:1.43614px;}.ba8c074a-58b5-445e-bb09-1db8859aa8d1{fill:#5bbf90;}</style></defs><title>Artboard 161</title><rect class="bb5c663c-7834-4129-b5b0-d203192cf9dc" x="0.71807" y="0.71807" width="46.34043" height="22.21277" rx="1.65003"/><path class="ba8c074a-58b5-445e-bb09-1db8859aa8d1" d="M8.70747,15.64017a.25022.25022,0,0,1-.07714-.19336V8.3306a.25024.25024,0,0,1,.07714-.19336A.26862.26862,0,0,1,8.895,8.066h.87989a.26417.26417,0,0,1,.19238.07129.261.261,0,0,1,.07129.19336v7.11621a.261.261,0,0,1-.07129.19336.26412.26412,0,0,1-.19238.07129H8.895A.26858.26858,0,0,1,8.70747,15.64017Z"/><path class="ba8c074a-58b5-445e-bb09-1db8859aa8d1" d="M11.63325,14.27005a.25133.25133,0,0,1-.07714-.18652V8.3306a.25024.25024,0,0,1,.07714-.19336.26864.26864,0,0,1,.1875-.07129h.92383a.26419.26419,0,0,1,.19239.07129.261.261,0,0,1,.07128.19336v5.75293a.262.262,0,0,1-.07128.18652.2495.2495,0,0,1-.19239.07715h-.92383A.25349.25349,0,0,1,11.63325,14.27005Z"/><path class="ba8c074a-58b5-445e-bb09-1db8859aa8d1" d="M14.56978,14.27005a.25506.25506,0,0,1-.07715-.18652v-.69336a.25148.25148,0,0,1,.07715-.19238.266.266,0,0,1,.1875-.07129h1.584a1.58279,1.58279,0,0,0,1.18262-.40137,1.72633,1.72633,0,0,0,.42285-1.17187c.00781-.09571.01172-.21289.01172-.35254,0-.13867-.00391-.25293-.01172-.34082a1.43453,1.43453,0,0,0-1.60547-1.57227h-1.584a.26342.26342,0,0,1-.26465-.26465V8.3306a.25367.25367,0,0,1,.07715-.19336.27033.27033,0,0,1,.1875-.07129H16.396a2.92392,2.92392,0,0,1,2.167.71485,2.994,2.994,0,0,1,.75879,2.05761c.00781.09473.01172.21582.01172.36231,0,.1543-.00391.2793-.01172.374a2.99029,2.99029,0,0,1-.75879,2.05762,2.924,2.924,0,0,1-2.167.71484H14.75728A.255.255,0,0,1,14.56978,14.27005Z"/><path class="ba8c074a-58b5-445e-bb09-1db8859aa8d1" d="M23.88814,14.27005a.26863.26863,0,0,1-.19824.07715H20.45552a.26341.26341,0,0,1-.26367-.26367v-.64941a.26341.26341,0,0,1,.26367-.26368h1.99121l-.13183-2.47558a5.47068,5.47068,0,0,0-.1045-.85742.87029.87029,0,0,0-.26953-.47852.88651.88651,0,0,0-.59375-.1709h-.50683a.26341.26341,0,0,1-.26368-.26367V8.28666a.26341.26341,0,0,1,.26368-.26465h.52832a2.77924,2.77924,0,0,1,1.3916.29687,1.71361,1.71361,0,0,1,.74219.875,4.6676,4.6676,0,0,1,.27539,1.49024l.17578,3.39941A.21939.21939,0,0,1,23.88814,14.27005Z"/><path class="ba8c074a-58b5-445e-bb09-1db8859aa8d1" d="M33.11665,14.11576a.21468.21468,0,0,1-.07226.165.23008.23008,0,0,1-.15918.0664h-.92383a.34283.34283,0,0,1-.18164-.04394.50033.50033,0,0,1-.11524-.09375c-.02929-.03321-.04785-.05274-.05566-.06055l-2.22168-3.15723a1.54684,1.54684,0,0,0-.50586.71,2.78905,2.78905,0,0,0-.13183.874v1.49609a.28187.28187,0,0,1-.07129.19824.25021.25021,0,0,1-.19336.07715h-.74707a.25194.25194,0,0,1-.1875-.07715.26556.26556,0,0,1-.07715-.19824V12.565a3.76367,3.76367,0,0,1,.25293-1.47364,2.61311,2.61311,0,0,1,.96875-1.08886l-1.07813-1.5293A.37131.37131,0,0,1,27.561,8.2974a.22374.22374,0,0,1,.06641-.165.21075.21075,0,0,1,.15429-.06641h.89063a.43816.43816,0,0,1,.35156.209L31.07075,11.146a1.22224,1.22224,0,0,0,.54395-.57715,2.33359,2.33359,0,0,0,.11523-.79785V8.34134a.27981.27981,0,0,1,.07227-.19824.25.25,0,0,1,.19238-.07715h.792a.24286.24286,0,0,1,.18652.083.27092.27092,0,0,1,.07715.19238V9.82572a2.91891,2.91891,0,0,1-.26367,1.27637,2.61768,2.61768,0,0,1-1.02344,1.02343L33.05025,13.94A.293.293,0,0,1,33.11665,14.11576Z"/><path class="ba8c074a-58b5-445e-bb09-1db8859aa8d1" d="M38.352,8.73685a3.11439,3.11439,0,0,1,.61622,2.14551,3.23664,3.23664,0,0,1-.75977,2.24414,4.12237,4.12237,0,0,1-1.93555,1.19824l-.45117.14356a.20025.20025,0,0,1-.19824-.04395.2518.2518,0,0,1-.08789-.19824v-.80274a.29287.29287,0,0,1,.07129-.1875.43531.43531,0,0,1,.19238-.13183l.38574-.1543a2.20776,2.20776,0,0,0,.98438-.71484,2.21233,2.21233,0,0,0,.34668-1.3418,2.64494,2.64494,0,0,0-.1377-.95117.90328.90328,0,0,0-.46191-.501A2.13641,2.13641,0,0,0,36.02,9.28763h-.34082l-1.23242-.01172a.27913.27913,0,0,1-.19824-.07129.23967.23967,0,0,1-.07715-.18164V6.8013a.25887.25887,0,0,1,.07715-.1875.27023.27023,0,0,1,.19824-.07617h.80274a.24719.24719,0,0,1,.26464.26367V8.066h.75879A2.72387,2.72387,0,0,1,38.352,8.73685Z"/></svg>