<svg id="a6992448-db43-4c73-b276-12f4fd45732f" data-name="Layer 1" xmlns="http://www.w3.org/2000/svg" viewBox="0 0 47.77657 25.53"><defs><style>.b971ed43-83fe-4944-9eea-4c9c40b2d9b8{fill:none;stroke:#5289c7;stroke-miterlimit:10;stroke-width:1.43614px;}.ee3af7be-5526-4452-b632-aa9bd34c1d77{fill:#5289c7;}</style></defs><title>Artboard 155</title><rect class="b971ed43-83fe-4944-9eea-4c9c40b2d9b8" x="0.71807" y="0.71807" width="46.34043" height="22.21277" rx="1.65003"/><path class="ee3af7be-5526-4452-b632-aa9bd34c1d77" d="M8.7072,15.64a.24738.24738,0,0,1-.07715-.19336V8.33137A.24738.24738,0,0,1,8.7072,8.138a.26938.26938,0,0,1,.1875-.07227h.87988A.26471.26471,0,0,1,9.967,8.138a.258.258,0,0,1,.07129.19336V15.4466A.258.258,0,0,1,9.967,15.64a.26471.26471,0,0,1-.19238.07227H8.8947A.26938.26938,0,0,1,8.7072,15.64Z"/><path class="ee3af7be-5526-4452-b632-aa9bd34c1d77" d="M11.633,14.27082a.25194.25194,0,0,1-.07715-.1875v-5.752A.24738.24738,0,0,1,11.633,8.138a.26938.26938,0,0,1,.1875-.07227h.92382a.26473.26473,0,0,1,.19239.07227.258.258,0,0,1,.07129.19336v5.752a.26267.26267,0,0,1-.07129.1875.25228.25228,0,0,1-.19239.07617h-.92382A.25638.25638,0,0,1,11.633,14.27082Z"/><path class="ee3af7be-5526-4452-b632-aa9bd34c1d77" d="M14.5695,14.27082a.25568.25568,0,0,1-.07715-.1875V13.39a.24928.24928,0,0,1,.07715-.1914.26256.26256,0,0,1,.1875-.07227h1.584a1.5825,1.5825,0,0,0,1.18262-.40039,1.72633,1.72633,0,0,0,.42285-1.17187c.00782-.09571.01172-.2129.01172-.35352q0-.208-.01172-.33984A1.4341,1.4341,0,0,0,16.341,9.2884H14.757a.25978.25978,0,0,1-.1875-.07812.25571.25571,0,0,1-.07715-.1875V8.33137A.25075.25075,0,0,1,14.5695,8.138a.27113.27113,0,0,1,.1875-.07227h1.63867a2.924,2.924,0,0,1,2.167.71485,2.99842,2.99842,0,0,1,.75879,2.05859c.00782.09375.01172.21485.01172.36133q0,.23145-.01172.375a2.98953,2.98953,0,0,1-.75879,2.05664,2.924,2.924,0,0,1-2.167.71484H14.757A.258.258,0,0,1,14.5695,14.27082Z"/><path class="ee3af7be-5526-4452-b632-aa9bd34c1d77" d="M23.88786,14.27082a.27178.27178,0,0,1-.19824.07617H20.45524a.26176.26176,0,0,1-.26367-.26367v-.64844a.26176.26176,0,0,1,.26367-.26367h1.99121l-.13183-2.47656a5.484,5.484,0,0,0-.1045-.85742.87029.87029,0,0,0-.26953-.47852.89183.89183,0,0,0-.59375-.16992H20.84a.26506.26506,0,0,1-.26367-.26367V8.28645a.25817.25817,0,0,1,.07714-.1875A.25422.25422,0,0,1,20.84,8.02278h.52832a2.77913,2.77913,0,0,1,1.3916.29687,1.70972,1.70972,0,0,1,.74219.875,4.66215,4.66215,0,0,1,.27539,1.49023l.17578,3.39844A.22032.22032,0,0,1,23.88786,14.27082Z"/><path class="ee3af7be-5526-4452-b632-aa9bd34c1d77" d="M33.11637,14.11653a.2112.2112,0,0,1-.07226.16406.22583.22583,0,0,1-.15918.0664H31.9611a.34284.34284,0,0,1-.18164-.043.50005.50005,0,0,1-.11523-.09375c-.0293-.03321-.04786-.05274-.05567-.06055l-2.22168-3.1582a1.55425,1.55425,0,0,0-.50586.71093,2.78281,2.78281,0,0,0-.13183.873V14.0716a.28269.28269,0,0,1-.07129.19922.253.253,0,0,1-.19336.07617h-.74707a.25483.25483,0,0,1-.1875-.07617.26632.26632,0,0,1-.07715-.19922V12.56574a3.77218,3.77218,0,0,1,.25293-1.47461,2.61128,2.61128,0,0,1,.96875-1.08789L27.61637,8.474a.37143.37143,0,0,1-.05566-.17578.22755.22755,0,0,1,.06641-.166.21457.21457,0,0,1,.15429-.06641H28.672a.43816.43816,0,0,1,.35156.209l2.04688,2.87109a1.22077,1.22077,0,0,0,.54394-.57617,2.33576,2.33576,0,0,0,.11524-.79883V8.34113a.27738.27738,0,0,1,.07226-.19726.25069.25069,0,0,1,.19238-.07813h.792a.24055.24055,0,0,1,.18652.084.27031.27031,0,0,1,.07715.1914V9.82551a2.92626,2.92626,0,0,1-.26367,1.27734,2.62394,2.62394,0,0,1-1.02344,1.02344L33.05,13.94074A.293.293,0,0,1,33.11637,14.11653Z"/><path class="ee3af7be-5526-4452-b632-aa9bd34c1d77" d="M38.35173,8.73762a3.1116,3.1116,0,0,1,.61621,2.14453,3.23664,3.23664,0,0,1-.75977,2.24414,4.12407,4.12407,0,0,1-1.93555,1.19922l-.45117.14258a.19986.19986,0,0,1-.19824-.043.2538.2538,0,0,1-.08789-.19922v-.80273a.2948.2948,0,0,1,.07129-.1875.43347.43347,0,0,1,.19238-.13086l.38574-.1543a2.20776,2.20776,0,0,0,.98438-.71484,2.21634,2.21634,0,0,0,.34668-1.3418,2.6413,2.6413,0,0,0-.1377-.95117.90207.90207,0,0,0-.46191-.502,2.1538,2.1538,0,0,0-.89648-.15234h-.34083l-1.23242-.01172a.2756.2756,0,0,1-.19824-.07226.23675.23675,0,0,1-.07715-.18164V6.80207a.25568.25568,0,0,1,.07715-.1875.27023.27023,0,0,1,.19824-.07617h.80274a.2459.2459,0,0,1,.26465.26367V8.06574h.75878A2.724,2.724,0,0,1,38.35173,8.73762Z"/></svg>