<svg id="b868a715-f764-455d-8a6f-5a77b75c269d" data-name="Layer 1" xmlns="http://www.w3.org/2000/svg" viewBox="0 0 47.77657 25.53383"><defs><style>.ea89a146-6f11-41e0-a046-a0ebc6218b80{fill:none;stroke:#f37371;stroke-miterlimit:10;stroke-width:1.2792px;}.ff32ef62-bc0b-46a3-b142-a912a7161fd5{fill:#b9deee;}.b3112cab-3dd0-4a81-9775-2a1cc19b5ecf{fill:#f37371;}</style></defs><title>Artboard 165 copy</title><rect class="ea89a146-6f11-41e0-a046-a0ebc6218b80" x="0.71807" y="0.91871" width="46.34043" height="22.21277" rx="1.65003"/><path class="ff32ef62-bc0b-46a3-b142-a912a7161fd5" d="M14.03157,2.16158c-1.54638,2.009-3.13928,3.97827-4.71447,5.9624-1.56617,1.99219-3.19544,3.92993-4.79139,5.89649l-.88012-.832a71.07432,71.07432,0,0,1,8.29516-7.186A74.7635,74.7635,0,0,1,21.2314.1252.89659.89659,0,0,1,22.31063,1.528l-.00733.00732C19.75777,4.236,17.20284,6.90963,14.73018,9.64693a85.63234,85.63234,0,0,0-6.95141,8.58228l-.744-.739c1.976-1.26294,3.9685-2.50073,5.93078-3.78393q2.9579-1.90357,5.87976-3.8606c1.95716-1.29077,3.88074-2.63183,5.82276-3.94531,1.93762-1.31982,3.88012-2.63257,5.79431-3.98755a.42528.42528,0,0,1,.5824.60693l-.01282.01636L22.36165,13.73458,17.993,19.3066c-1.41858,1.88647-3.09558,3.63477-3.69263,5.58716l-1.40393-1.05518,13.63-9.197q6.83276-4.57141,13.7351-9.03809l.01978-.01293A1.00315,1.00315,0,0,1,41.6274,7.038l-6.26721,8.25147-3.13636,4.12378a20.44442,20.44442,0,0,0-1.43737,2.01758,2.54413,2.54413,0,0,0-.39063,1.94677l-.92834-.36376c3.37243-1.71094,6.72961-3.4502,10.12365-5.12134l.01282-.00635a.33093.33093,0,0,1,.46448.38794l-1.67261,5.84814-.00183.0066a.09987.09987,0,0,1-.19385-.04761L39.43,18.0942l.47717.38159c-3.25329,1.93091-6.54333,3.79394-9.81823,5.68506a.63766.63766,0,0,1-.917-.33179l-.01159-.032a3.872,3.872,0,0,1,.35425-3.033,17.08872,17.08872,0,0,1,1.46813-2.26465L33.98909,14.28l6.01844-8.43457L41.37325,7.28q-6.81262,4.60181-13.67078,9.13525L13.92635,25.39156l-.0138.009a.92859.92859,0,0,1-1.39025-1.06445,11.26429,11.26429,0,0,1,1.87927-3.343c.7594-.96631,1.5188-1.83911,2.2738-2.75341l4.542-5.43189,9.151-10.80908.56958.62329c-1.98046,1.2561-3.93249,2.55469-5.88952,3.846-1.95252,1.2976-3.92359,2.56787-5.861,3.88818q-2.91468,1.96766-5.8042,3.97314C11.451,15.65719,9.549,17.03023,7.63045,18.37862a.53241.53241,0,0,1-.75793-.71728l.01379-.02173a85.53989,85.53989,0,0,1,6.62561-9.04834c2.38892-2.873,4.93372-5.59619,7.48694-8.28906l1.0719,1.40991a82.16656,82.16656,0,0,0-9.17969,5.60547,87.26288,87.26288,0,0,0-8.40576,6.7456l-.02344.02124a.60529.60529,0,0,1-.85657-.85351C5.30611,11.35445,6.97347,9.44918,8.70406,7.5981c1.72143-1.85888,3.42529-3.73266,5.17566-5.56665a.10013.10013,0,0,1,.15185.13013Z"/><path class="b3112cab-3dd0-4a81-9775-2a1cc19b5ecf" d="M8.707,15.84089a.24742.24742,0,0,1-.07714-.19336V8.53229A.24738.24738,0,0,1,8.707,8.33894a.26941.26941,0,0,1,.1875-.07227h.87989a.26471.26471,0,0,1,.19238.07227.258.258,0,0,1,.07129.19335v7.11524a.258.258,0,0,1-.07129.19336.26474.26474,0,0,1-.19238.07226H8.89445A.26945.26945,0,0,1,8.707,15.84089Z"/><path class="b3112cab-3dd0-4a81-9775-2a1cc19b5ecf" d="M11.63274,14.47175a.25194.25194,0,0,1-.07715-.1875v-5.752a.24736.24736,0,0,1,.07715-.19335.26938.26938,0,0,1,.1875-.07227h.92382a.26475.26475,0,0,1,.19239.07227.258.258,0,0,1,.07129.19335v5.752a.26267.26267,0,0,1-.07129.1875.2523.2523,0,0,1-.19239.07617h-.92382A.25638.25638,0,0,1,11.63274,14.47175Z"/><path class="b3112cab-3dd0-4a81-9775-2a1cc19b5ecf" d="M14.56926,14.47175a.25568.25568,0,0,1-.07715-.1875v-.69336a.24932.24932,0,0,1,.07715-.19141.26255.26255,0,0,1,.1875-.07226h1.584a1.58254,1.58254,0,0,0,1.18262-.40039,1.72636,1.72636,0,0,0,.42285-1.17188c.00781-.0957.01172-.21289.01172-.35351q0-.208-.01172-.33985a1.43409,1.43409,0,0,0-1.60547-1.57226h-1.584a.25979.25979,0,0,1-.1875-.07813.25568.25568,0,0,1-.07715-.1875V8.53229a.25072.25072,0,0,1,.07715-.19335.27113.27113,0,0,1,.1875-.07227h1.63867a2.924,2.924,0,0,1,2.167.71484,2.99846,2.99846,0,0,1,.75879,2.0586c.00781.09375.01172.21484.01172.36133q0,.23144-.01172.375a2.98955,2.98955,0,0,1-.75879,2.05664,2.924,2.924,0,0,1-2.167.71484H14.75676A.258.258,0,0,1,14.56926,14.47175Z"/><path class="b3112cab-3dd0-4a81-9775-2a1cc19b5ecf" d="M23.88762,14.47175a.27179.27179,0,0,1-.19824.07617H20.455a.26176.26176,0,0,1-.26367-.26367v-.64844a.26176.26176,0,0,1,.26367-.26367h1.99121l-.13183-2.47656a5.484,5.484,0,0,0-.1045-.85743.8703.8703,0,0,0-.26953-.47851.89185.89185,0,0,0-.59375-.16992h-.50683a.26509.26509,0,0,1-.26368-.26368V8.48737a.25822.25822,0,0,1,.07715-.1875.25419.25419,0,0,1,.18653-.07617h.52832a2.77913,2.77913,0,0,1,1.3916.29688,1.70968,1.70968,0,0,1,.74219.875,4.6621,4.6621,0,0,1,.27539,1.49023l.17578,3.39844A.22032.22032,0,0,1,23.88762,14.47175Z"/><path class="b3112cab-3dd0-4a81-9775-2a1cc19b5ecf" d="M33.11613,14.31745a.21118.21118,0,0,1-.07226.16406.2258.2258,0,0,1-.15918.06641h-.92383a.34275.34275,0,0,1-.18164-.043.50005.50005,0,0,1-.11523-.09375c-.0293-.0332-.04786-.05273-.05567-.06055l-2.22168-3.1582a1.55428,1.55428,0,0,0-.50586.71094,2.78277,2.78277,0,0,0-.13183.873v1.49609a.28269.28269,0,0,1-.07129.19922.253.253,0,0,1-.19336.07617h-.74707a.25483.25483,0,0,1-.1875-.07617.26632.26632,0,0,1-.07715-.19922V12.76667a3.77211,3.77211,0,0,1,.25293-1.47461,2.61121,2.61121,0,0,1,.96875-1.08789l-1.07813-1.5293a.37128.37128,0,0,1-.05566-.17578.22754.22754,0,0,1,.06641-.166.21457.21457,0,0,1,.15429-.06641h.89063a.43815.43815,0,0,1,.35156.209l2.04688,2.8711a1.22077,1.22077,0,0,0,.54394-.57617,2.3358,2.3358,0,0,0,.11524-.79883V8.54206a.2774.2774,0,0,1,.07226-.19727.25068.25068,0,0,1,.19238-.07812h.792a.24054.24054,0,0,1,.18652.084.27032.27032,0,0,1,.07715.19141v1.48438a2.92629,2.92629,0,0,1-.26367,1.27734,2.62394,2.62394,0,0,1-1.02344,1.02344l1.28711,1.81445A.293.293,0,0,1,33.11613,14.31745Z"/><path class="b3112cab-3dd0-4a81-9775-2a1cc19b5ecf" d="M38.35149,8.93854a3.11163,3.11163,0,0,1,.61621,2.14454,3.23665,3.23665,0,0,1-.75977,2.24414,4.12407,4.12407,0,0,1-1.93555,1.19922l-.45117.14257a.19981.19981,0,0,1-.19824-.043.25376.25376,0,0,1-.08789-.19921v-.80274a.29484.29484,0,0,1,.07129-.1875.43363.43363,0,0,1,.19238-.13086l.38574-.15429a2.2077,2.2077,0,0,0,.98438-.71485,2.21632,2.21632,0,0,0,.34668-1.3418,2.64133,2.64133,0,0,0-.1377-.95117.902.902,0,0,0-.46191-.502,2.15382,2.15382,0,0,0-.89649-.15234h-.34082l-1.23242-.01172a.27557.27557,0,0,1-.19824-.07227.23673.23673,0,0,1-.07715-.18164V7.003a.25568.25568,0,0,1,.07715-.1875.27023.27023,0,0,1,.19824-.07617H35.249a.24589.24589,0,0,1,.26464.26367V8.26667h.75879A2.724,2.724,0,0,1,38.35149,8.93854Z"/></svg>