<svg id="af763e20-2f37-4ac0-9315-51a1da21dc33" data-name="Layer 1" xmlns="http://www.w3.org/2000/svg" viewBox="0 0 47.77657 25.53383"><defs><style>.abbac273-3918-4e41-b595-96eef9b62b25{fill:none;stroke:#5bbf90;stroke-miterlimit:10;stroke-width:1.43614px;}.b4e937e8-7397-4e61-8cfc-e03080bc9dc9{fill:#b9deee;}.b1b618ff-8637-439e-8b55-4ceb4b778438{fill:#5bbf90;}</style></defs><title>Artboard 165</title><rect class="abbac273-3918-4e41-b595-96eef9b62b25" x="0.71807" y="0.90121" width="46.34043" height="22.21277" rx="1.65003"/><path class="b4e937e8-7397-4e61-8cfc-e03080bc9dc9" d="M14.03157,2.14408c-1.54638,2.009-3.13928,3.97827-4.71447,5.9624C7.75093,10.09867,6.12166,12.03641,4.52571,14.003l-.88012-.832a71.07519,71.07519,0,0,1,8.29516-7.186A74.76234,74.76234,0,0,1,21.2314.1077a.89658.89658,0,0,1,1.07923,1.40283l-.00733.00733c-2.54553,2.70068-5.10046,5.37427-7.57312,8.11157a85.63121,85.63121,0,0,0-6.95141,8.58228l-.744-.739c1.976-1.26294,3.9685-2.50073,5.93078-3.78393q2.9579-1.90357,5.87976-3.8606c1.95716-1.29077,3.88074-2.63184,5.82276-3.94531C26.60567,4.563,28.54817,3.25028,30.46236,1.8953a.42528.42528,0,0,1,.5824.60693l-.01282.01636L22.36165,13.71708,17.993,19.2891c-1.41858,1.88647-3.09558,3.63476-3.69263,5.58716l-1.40393-1.05518,13.63-9.197q6.83276-4.57142,13.7351-9.03809l.01978-.01294A1.00315,1.00315,0,0,1,41.6274,7.02054L35.36019,15.272l-3.13636,4.12378a20.44324,20.44324,0,0,0-1.43737,2.01758,2.54413,2.54413,0,0,0-.39063,1.94677l-.92834-.36377c3.37243-1.71093,6.72961-3.45019,10.12365-5.12133l.01282-.00635a.33093.33093,0,0,1,.46448.38794l-1.67261,5.84814-.00183.00659a.09987.09987,0,0,1-.19385-.0476L39.43,18.0767l.47717.38159c-3.25329,1.93091-6.54333,3.79394-9.81823,5.68506a.63766.63766,0,0,1-.917-.33179l-.01159-.032a3.872,3.872,0,0,1,.35425-3.033A17.08807,17.08807,0,0,1,30.98274,18.482l3.00635-4.21948,6.01844-8.43457,1.36572,1.43457q-6.81262,4.60181-13.67078,9.13525L13.92635,25.37406l-.0138.009a.92859.92859,0,0,1-1.39025-1.06445,11.26429,11.26429,0,0,1,1.87927-3.343c.7594-.96631,1.5188-1.83911,2.2738-2.75342l4.542-5.43188,9.151-10.80908.56958.62329c-1.98046,1.2561-3.93249,2.55469-5.88952,3.84594-1.95252,1.29761-3.92359,2.56788-5.861,3.88819q-2.91468,1.96765-5.8042,3.97314C11.451,15.63968,9.549,17.01273,7.63045,18.36112a.53241.53241,0,0,1-.75793-.71729l.01379-.02172a85.53989,85.53989,0,0,1,6.62561-9.04834c2.38892-2.873,4.93372-5.5962,7.48694-8.28907l1.0719,1.40992a82.16648,82.16648,0,0,0-9.17969,5.60546,87.263,87.263,0,0,0-8.40576,6.74561l-.02344.02124a.60529.60529,0,0,1-.85657-.85352C5.30611,11.337,6.97347,9.43168,8.70406,7.5806c1.72143-1.85888,3.42529-3.73266,5.17566-5.56665a.10013.10013,0,0,1,.15185.13013Z"/><path class="b1b618ff-8637-439e-8b55-4ceb4b778438" d="M8.707,15.823a.24741.24741,0,0,1-.07714-.19336V8.51444A.24741.24741,0,0,1,8.707,8.32108a.26941.26941,0,0,1,.1875-.07227h.87989a.26471.26471,0,0,1,.19238.07227.258.258,0,0,1,.07129.19336v7.11523a.258.258,0,0,1-.07129.19336.26471.26471,0,0,1-.19238.07227H8.89445A.26941.26941,0,0,1,8.707,15.823Z"/><path class="b1b618ff-8637-439e-8b55-4ceb4b778438" d="M11.63274,14.45389a.25194.25194,0,0,1-.07715-.1875V8.51444a.24738.24738,0,0,1,.07715-.19336.26938.26938,0,0,1,.1875-.07227h.92382a.26475.26475,0,0,1,.19239.07227.258.258,0,0,1,.07129.19336v5.75195a.26267.26267,0,0,1-.07129.1875.2523.2523,0,0,1-.19239.07617h-.92382A.25638.25638,0,0,1,11.63274,14.45389Z"/><path class="b1b618ff-8637-439e-8b55-4ceb4b778438" d="M14.56926,14.45389a.25568.25568,0,0,1-.07715-.1875V13.573a.24928.24928,0,0,1,.07715-.1914.26256.26256,0,0,1,.1875-.07227h1.584a1.5825,1.5825,0,0,0,1.18262-.40039,1.72634,1.72634,0,0,0,.42285-1.17188c.00781-.0957.01172-.21289.01172-.35351q0-.208-.01172-.33985a1.4341,1.4341,0,0,0-1.60547-1.57226h-1.584a.25975.25975,0,0,1-.1875-.07813.25568.25568,0,0,1-.07715-.1875v-.6914a.25075.25075,0,0,1,.07715-.19336.27113.27113,0,0,1,.1875-.07227h1.63867a2.92392,2.92392,0,0,1,2.167.71485,2.99842,2.99842,0,0,1,.75879,2.05859c.00781.09375.01172.21484.01172.36133q0,.23145-.01172.375a2.98953,2.98953,0,0,1-.75879,2.05664,2.924,2.924,0,0,1-2.167.71484H14.75676A.258.258,0,0,1,14.56926,14.45389Z"/><path class="b1b618ff-8637-439e-8b55-4ceb4b778438" d="M23.88762,14.45389a.27179.27179,0,0,1-.19824.07617H20.455a.26176.26176,0,0,1-.26367-.26367V13.618a.26176.26176,0,0,1,.26367-.26367h1.99121l-.13183-2.47656a5.48387,5.48387,0,0,0-.1045-.85742.87029.87029,0,0,0-.26953-.47852.89185.89185,0,0,0-.59375-.16992h-.50683a.26509.26509,0,0,1-.26368-.26367V8.46952a.25818.25818,0,0,1,.07715-.1875.25416.25416,0,0,1,.18653-.07618h.52832a2.77913,2.77913,0,0,1,1.3916.29688,1.70968,1.70968,0,0,1,.74219.875,4.6621,4.6621,0,0,1,.27539,1.49023l.17578,3.39844A.22032.22032,0,0,1,23.88762,14.45389Z"/><path class="b1b618ff-8637-439e-8b55-4ceb4b778438" d="M33.11613,14.29959a.2112.2112,0,0,1-.07226.16407.22583.22583,0,0,1-.15918.0664h-.92383a.34275.34275,0,0,1-.18164-.043.49953.49953,0,0,1-.11523-.09375c-.0293-.0332-.04786-.05273-.05567-.06054l-2.22168-3.15821a1.55433,1.55433,0,0,0-.50586.71094,2.78281,2.78281,0,0,0-.13183.87305v1.49609a.28269.28269,0,0,1-.07129.19922.253.253,0,0,1-.19336.07617h-.74707a.25483.25483,0,0,1-.1875-.07617.26632.26632,0,0,1-.07715-.19922V12.74881a3.77218,3.77218,0,0,1,.25293-1.47461,2.61121,2.61121,0,0,1,.96875-1.08789L27.61613,8.657a.37132.37132,0,0,1-.05566-.17579.22754.22754,0,0,1,.06641-.166.21457.21457,0,0,1,.15429-.06641h.89063a.43816.43816,0,0,1,.35156.209l2.04688,2.87109a1.22077,1.22077,0,0,0,.54394-.57617,2.3358,2.3358,0,0,0,.11524-.79883V8.5242a.27738.27738,0,0,1,.07226-.19726.25069.25069,0,0,1,.19238-.07813h.792a.24055.24055,0,0,1,.18652.084.27029.27029,0,0,1,.07715.1914v1.48438a2.92629,2.92629,0,0,1-.26367,1.27734,2.62394,2.62394,0,0,1-1.02344,1.02344l1.28711,1.81445A.293.293,0,0,1,33.11613,14.29959Z"/><path class="b1b618ff-8637-439e-8b55-4ceb4b778438" d="M38.35149,8.92069a3.1116,3.1116,0,0,1,.61621,2.14453,3.23664,3.23664,0,0,1-.75977,2.24414,4.12407,4.12407,0,0,1-1.93555,1.19922l-.45117.14258a.19986.19986,0,0,1-.19824-.043.2538.2538,0,0,1-.08789-.19922v-.80274a.29484.29484,0,0,1,.07129-.1875.43353.43353,0,0,1,.19238-.13085l.38574-.1543a2.2077,2.2077,0,0,0,.98438-.71485,2.21629,2.21629,0,0,0,.34668-1.34179,2.64126,2.64126,0,0,0-.1377-.95117.902.902,0,0,0-.46191-.502,2.15382,2.15382,0,0,0-.89649-.15234h-.34082l-1.23242-.01172a.27557.27557,0,0,1-.19824-.07227.23673.23673,0,0,1-.07715-.18164V6.98514a.25568.25568,0,0,1,.07715-.1875.27023.27023,0,0,1,.19824-.07617H35.249a.24589.24589,0,0,1,.26464.26367V8.24881h.75879A2.724,2.724,0,0,1,38.35149,8.92069Z"/></svg>